# MagicaVoxel @ Ephtracy

# material
mtllib Chicken.mtl
usemtl palette

# normals
vn -1 0 0
vn 1 0 0
vn 0 0 1
vn 0 0 -1
vn 0 -1 0
vn 0 1 0

# texcoords
vt 0.306641 0.5
vt 0.333984 0.5
vt 0.958984 0.5
vt 0.990234 0.5

# verts
v -4 0 1
v -4 0 -4
v -4 1 1
v -4 1 -4
v -4 5 4
v -4 5 -2
v -4 8 4
v -4 8 -2
v -3 1 -0
v -3 1 -1
v -3 4 6
v -3 4 -0
v -3 4 -1
v -3 4 -4
v -3 5 4
v -3 5 -2
v -3 8 4
v -3 8 -2
v -3 9 6
v -3 9 3
v -3 15 -1
v -3 15 -2
v -3 16 -1
v -3 16 -2
v -3 17 3
v -3 17 -4
v -2 0 -2
v -2 0 -4
v -2 1 -2
v -2 1 -4
v -2 5 7
v -2 5 6
v -2 9 7
v -2 9 6
v -1 11 -4
v -1 11 -6
v -1 13 -4
v -1 13 -6
v -1 13 -7
v -1 15 -4
v -1 15 -7
v -1 17 1
v -1 17 -2
v -1 19 1
v -1 19 -2
v 1 0 1
v 1 0 -4
v 1 1 1
v 1 1 -4
v 2 1 -0
v 2 1 -1
v 2 4 -0
v 2 4 -1
v 3 0 -2
v 3 0 -4
v 3 1 -2
v 3 1 -4
v -3 0 -2
v -3 0 -4
v -3 1 -2
v -3 1 -4
v -2 1 -0
v -2 1 -1
v -2 4 -0
v -2 4 -1
v -1 0 1
v -1 0 -4
v -1 1 1
v -1 1 -4
v 1 11 -4
v 1 11 -6
v 1 13 -4
v 1 13 -6
v 1 13 -7
v 1 15 -4
v 1 15 -7
v 1 17 1
v 1 17 -2
v 1 19 1
v 1 19 -2
v 2 0 -2
v 2 0 -4
v 2 1 -2
v 2 1 -4
v 2 5 7
v 2 5 6
v 2 9 7
v 2 9 6
v 3 1 -0
v 3 1 -1
v 3 4 6
v 3 4 -0
v 3 4 -1
v 3 4 -4
v 3 5 4
v 3 5 -2
v 3 8 4
v 3 8 -2
v 3 9 6
v 3 9 3
v 3 15 -1
v 3 15 -2
v 3 16 -1
v 3 16 -2
v 3 17 3
v 3 17 -4
v 4 0 1
v 4 0 -4
v 4 1 1
v 4 1 -4
v 4 5 4
v 4 5 -2
v 4 8 4
v 4 8 -2
v -2 5 7
v -2 9 7
v 2 5 7
v 2 9 7
v -3 4 6
v -3 9 6
v -2 5 6
v -2 9 6
v 2 5 6
v 2 9 6
v 3 4 6
v 3 9 6
v -4 5 4
v -4 8 4
v -3 5 4
v -3 8 4
v 3 5 4
v 3 8 4
v 4 5 4
v 4 8 4
v -3 9 3
v -3 17 3
v 3 9 3
v 3 17 3
v -4 0 1
v -4 1 1
v -1 0 1
v -1 1 1
v -1 17 1
v -1 19 1
v 1 0 1
v 1 1 1
v 1 17 1
v 1 19 1
v 4 0 1
v 4 1 1
v -3 1 -0
v -3 4 -0
v -2 1 -0
v -2 4 -0
v 2 1 -0
v 2 4 -0
v 3 1 -0
v 3 4 -0
v -3 1 -1
v -3 4 -1
v -2 1 -1
v -2 4 -1
v 2 1 -1
v 2 4 -1
v 3 1 -1
v 3 4 -1
v -4 5 -2
v -4 8 -2
v -3 0 -2
v -3 1 -2
v -3 5 -2
v -3 8 -2
v -2 0 -2
v -2 1 -2
v -1 17 -2
v -1 19 -2
v 1 17 -2
v 1 19 -2
v 2 0 -2
v 2 1 -2
v 3 0 -2
v 3 1 -2
v 3 5 -2
v 3 8 -2
v 4 5 -2
v 4 8 -2
v -4 0 -4
v -4 1 -4
v -3 0 -4
v -3 1 -4
v -3 4 -4
v -3 17 -4
v -2 0 -4
v -2 1 -4
v -1 0 -4
v -1 1 -4
v -1 11 -4
v -1 13 -4
v -1 15 -4
v 1 0 -4
v 1 1 -4
v 1 11 -4
v 1 13 -4
v 1 15 -4
v 2 0 -4
v 2 1 -4
v 3 0 -4
v 3 1 -4
v 3 4 -4
v 3 17 -4
v 4 0 -4
v 4 1 -4
v -1 11 -6
v -1 13 -6
v 1 11 -6
v 1 13 -6
v -1 13 -7
v -1 15 -7
v 1 13 -7
v 1 15 -7
v -4 0 1
v -1 0 1
v 1 0 1
v 4 0 1
v -3 0 -2
v -2 0 -2
v 2 0 -2
v 3 0 -2
v -4 0 -4
v -3 0 -4
v -2 0 -4
v -1 0 -4
v 1 0 -4
v 2 0 -4
v 3 0 -4
v 4 0 -4
v -3 4 6
v 3 4 6
v -3 4 -0
v -2 4 -0
v 2 4 -0
v 3 4 -0
v -3 4 -1
v -2 4 -1
v 2 4 -1
v 3 4 -1
v -3 4 -4
v 3 4 -4
v -2 5 7
v 2 5 7
v -2 5 6
v 2 5 6
v -4 5 4
v -3 5 4
v 3 5 4
v 4 5 4
v -4 5 -2
v -3 5 -2
v 3 5 -2
v 4 5 -2
v -1 11 -4
v 1 11 -4
v -1 11 -6
v 1 11 -6
v -1 13 -6
v 1 13 -6
v -1 13 -7
v 1 13 -7
v -4 1 1
v -1 1 1
v 1 1 1
v 4 1 1
v -3 1 -0
v -2 1 -0
v 2 1 -0
v 3 1 -0
v -3 1 -1
v -2 1 -1
v 2 1 -1
v 3 1 -1
v -3 1 -2
v -2 1 -2
v 2 1 -2
v 3 1 -2
v -4 1 -4
v -3 1 -4
v -2 1 -4
v -1 1 -4
v 1 1 -4
v 2 1 -4
v 3 1 -4
v 4 1 -4
v -4 8 4
v -3 8 4
v 3 8 4
v 4 8 4
v -4 8 -2
v -3 8 -2
v 3 8 -2
v 4 8 -2
v -2 9 7
v 2 9 7
v -3 9 6
v -2 9 6
v 2 9 6
v 3 9 6
v -3 9 3
v 3 9 3
v -1 15 -4
v 1 15 -4
v -1 15 -7
v 1 15 -7
v -3 17 3
v 3 17 3
v -1 17 1
v 1 17 1
v -1 17 -2
v 1 17 -2
v -3 17 -4
v 3 17 -4
v -1 19 1
v 1 19 1
v -1 19 -2
v 1 19 -2

# faces
f 3/1/1 2/1/1 1/1/1
f 4/1/1 2/1/1 3/1/1
f 7/3/1 6/3/1 5/3/1
f 8/3/1 6/3/1 7/3/1
f 12/1/1 10/1/1 9/1/1
f 13/1/1 10/1/1 12/1/1
f 15/3/1 12/3/1 11/3/1
f 15/3/1 14/3/1 13/3/1
f 15/3/1 13/3/1 12/3/1
f 16/3/1 14/3/1 15/3/1
f 17/3/1 15/3/1 11/3/1
f 18/3/1 14/3/1 16/3/1
f 19/3/1 17/3/1 11/3/1
f 19/3/1 18/3/1 17/3/1
f 20/3/1 18/3/1 19/3/1
f 21/3/1 18/3/1 20/3/1
f 22/3/1 14/3/1 18/3/1
f 22/3/1 18/3/1 21/3/1
f 23/3/1 21/3/1 20/3/1
f 23/4/1 22/4/1 21/4/1
f 24/3/1 14/3/1 22/3/1
f 24/4/1 22/4/1 23/4/1
f 25/3/1 23/3/1 20/3/1
f 25/3/1 24/3/1 23/3/1
f 26/3/1 14/3/1 24/3/1
f 26/3/1 24/3/1 25/3/1
f 29/1/1 28/1/1 27/1/1
f 30/1/1 28/1/1 29/1/1
f 33/3/1 32/3/1 31/3/1
f 34/3/1 32/3/1 33/3/1
f 37/2/1 36/2/1 35/2/1
f 38/2/1 36/2/1 37/2/1
f 40/1/1 38/1/1 37/1/1
f 40/1/1 39/1/1 38/1/1
f 41/1/1 39/1/1 40/1/1
f 44/2/1 43/2/1 42/2/1
f 45/2/1 43/2/1 44/2/1
f 48/1/1 47/1/1 46/1/1
f 49/1/1 47/1/1 48/1/1
f 52/1/1 51/1/1 50/1/1
f 53/1/1 51/1/1 52/1/1
f 56/1/1 55/1/1 54/1/1
f 57/1/1 55/1/1 56/1/1
f 58/1/2 59/1/2 60/1/2
f 60/1/2 59/1/2 61/1/2
f 62/1/2 63/1/2 64/1/2
f 64/1/2 63/1/2 65/1/2
f 66/1/2 67/1/2 68/1/2
f 68/1/2 67/1/2 69/1/2
f 70/2/2 71/2/2 72/2/2
f 72/2/2 71/2/2 73/2/2
f 72/1/2 73/1/2 75/1/2
f 73/1/2 74/1/2 75/1/2
f 75/1/2 74/1/2 76/1/2
f 77/2/2 78/2/2 79/2/2
f 79/2/2 78/2/2 80/2/2
f 81/1/2 82/1/2 83/1/2
f 83/1/2 82/1/2 84/1/2
f 85/3/2 86/3/2 87/3/2
f 87/3/2 86/3/2 88/3/2
f 89/1/2 90/1/2 92/1/2
f 92/1/2 90/1/2 93/1/2
f 91/3/2 92/3/2 95/3/2
f 93/3/2 94/3/2 95/3/2
f 92/3/2 93/3/2 95/3/2
f 95/3/2 94/3/2 96/3/2
f 91/3/2 95/3/2 97/3/2
f 96/3/2 94/3/2 98/3/2
f 91/3/2 97/3/2 99/3/2
f 97/3/2 98/3/2 99/3/2
f 99/3/2 98/3/2 100/3/2
f 100/3/2 98/3/2 101/3/2
f 98/3/2 94/3/2 102/3/2
f 101/3/2 98/3/2 102/3/2
f 100/3/2 101/3/2 103/3/2
f 101/4/2 102/4/2 103/4/2
f 102/3/2 94/3/2 104/3/2
f 103/4/2 102/4/2 104/4/2
f 100/3/2 103/3/2 105/3/2
f 103/3/2 104/3/2 105/3/2
f 104/3/2 94/3/2 106/3/2
f 105/3/2 104/3/2 106/3/2
f 107/1/2 108/1/2 109/1/2
f 109/1/2 108/1/2 110/1/2
f 111/3/2 112/3/2 113/3/2
f 113/3/2 112/3/2 114/3/2
f 117/3/3 116/3/3 115/3/3
f 118/3/3 116/3/3 117/3/3
f 121/3/3 120/3/3 119/3/3
f 122/3/3 120/3/3 121/3/3
f 123/3/3 121/3/3 119/3/3
f 125/3/3 123/3/3 119/3/3
f 125/3/3 124/3/3 123/3/3
f 126/3/3 124/3/3 125/3/3
f 129/3/3 128/3/3 127/3/3
f 130/3/3 128/3/3 129/3/3
f 133/3/3 132/3/3 131/3/3
f 134/3/3 132/3/3 133/3/3
f 137/3/3 136/3/3 135/3/3
f 138/3/3 136/3/3 137/3/3
f 141/1/3 140/1/3 139/1/3
f 142/1/3 140/1/3 141/1/3
f 147/2/3 144/2/3 143/2/3
f 148/2/3 144/2/3 147/2/3
f 149/1/3 146/1/3 145/1/3
f 150/1/3 146/1/3 149/1/3
f 153/1/3 152/1/3 151/1/3
f 154/1/3 152/1/3 153/1/3
f 157/1/3 156/1/3 155/1/3
f 158/1/3 156/1/3 157/1/3
f 159/1/4 160/1/4 161/1/4
f 161/1/4 160/1/4 162/1/4
f 163/1/4 164/1/4 165/1/4
f 165/1/4 164/1/4 166/1/4
f 167/3/4 168/3/4 171/3/4
f 171/3/4 168/3/4 172/3/4
f 169/1/4 170/1/4 173/1/4
f 173/1/4 170/1/4 174/1/4
f 175/2/4 176/2/4 177/2/4
f 177/2/4 176/2/4 178/2/4
f 179/1/4 180/1/4 181/1/4
f 181/1/4 180/1/4 182/1/4
f 183/3/4 184/3/4 185/3/4
f 185/3/4 184/3/4 186/3/4
f 187/1/4 188/1/4 189/1/4
f 189/1/4 188/1/4 190/1/4
f 193/1/4 194/1/4 195/1/4
f 195/1/4 194/1/4 196/1/4
f 191/3/4 192/3/4 197/3/4
f 197/3/4 192/3/4 198/3/4
f 198/3/4 192/3/4 199/3/4
f 191/3/4 197/3/4 202/3/4
f 199/3/4 192/3/4 204/3/4
f 200/1/4 201/1/4 205/1/4
f 205/1/4 201/1/4 206/1/4
f 202/3/4 203/3/4 209/3/4
f 203/3/4 204/3/4 209/3/4
f 191/3/4 202/3/4 209/3/4
f 204/3/4 192/3/4 210/3/4
f 209/3/4 204/3/4 210/3/4
f 207/1/4 208/1/4 211/1/4
f 211/1/4 208/1/4 212/1/4
f 213/2/4 214/2/4 215/2/4
f 215/2/4 214/2/4 216/2/4
f 217/1/4 218/1/4 219/1/4
f 219/1/4 218/1/4 220/1/4
f 225/1/5 222/1/5 221/1/5
f 226/1/5 222/1/5 225/1/5
f 227/1/5 224/1/5 223/1/5
f 228/1/5 224/1/5 227/1/5
f 229/1/5 225/1/5 221/1/5
f 230/1/5 225/1/5 229/1/5
f 231/1/5 222/1/5 226/1/5
f 232/1/5 222/1/5 231/1/5
f 233/1/5 227/1/5 223/1/5
f 234/1/5 227/1/5 233/1/5
f 235/1/5 224/1/5 228/1/5
f 236/1/5 224/1/5 235/1/5
f 239/3/5 238/3/5 237/3/5
f 240/3/5 238/3/5 239/3/5
f 241/3/5 238/3/5 240/3/5
f 242/3/5 238/3/5 241/3/5
f 244/3/5 241/3/5 240/3/5
f 245/3/5 241/3/5 244/3/5
f 247/3/5 244/3/5 243/3/5
f 247/3/5 246/3/5 245/3/5
f 247/3/5 245/3/5 244/3/5
f 248/3/5 246/3/5 247/3/5
f 251/3/5 250/3/5 249/3/5
f 252/3/5 250/3/5 251/3/5
f 257/3/5 254/3/5 253/3/5
f 258/3/5 254/3/5 257/3/5
f 259/3/5 256/3/5 255/3/5
f 260/3/5 256/3/5 259/3/5
f 263/2/5 262/2/5 261/2/5
f 264/2/5 262/2/5 263/2/5
f 267/1/5 266/1/5 265/1/5
f 268/1/5 266/1/5 267/1/5
f 269/1/6 270/1/6 273/1/6
f 273/1/6 270/1/6 274/1/6
f 271/1/6 272/1/6 275/1/6
f 275/1/6 272/1/6 276/1/6
f 269/1/6 273/1/6 277/1/6
f 274/1/6 270/1/6 278/1/6
f 271/1/6 275/1/6 279/1/6
f 276/1/6 272/1/6 280/1/6
f 269/1/6 277/1/6 281/1/6
f 277/1/6 278/1/6 281/1/6
f 278/1/6 270/1/6 282/1/6
f 281/1/6 278/1/6 282/1/6
f 279/1/6 280/1/6 283/1/6
f 271/1/6 279/1/6 283/1/6
f 280/1/6 272/1/6 284/1/6
f 283/1/6 280/1/6 284/1/6
f 269/1/6 281/1/6 285/1/6
f 285/1/6 281/1/6 286/1/6
f 282/1/6 270/1/6 287/1/6
f 287/1/6 270/1/6 288/1/6
f 271/1/6 283/1/6 289/1/6
f 289/1/6 283/1/6 290/1/6
f 284/1/6 272/1/6 291/1/6
f 291/1/6 272/1/6 292/1/6
f 293/3/6 294/3/6 297/3/6
f 297/3/6 294/3/6 298/3/6
f 295/3/6 296/3/6 299/3/6
f 299/3/6 296/3/6 300/3/6
f 301/3/6 302/3/6 304/3/6
f 304/3/6 302/3/6 305/3/6
f 303/3/6 304/3/6 307/3/6
f 305/3/6 306/3/6 307/3/6
f 304/3/6 305/3/6 307/3/6
f 307/3/6 306/3/6 308/3/6
f 309/1/6 310/1/6 311/1/6
f 311/1/6 310/1/6 312/1/6
f 313/3/6 314/3/6 315/3/6
f 315/3/6 314/3/6 316/3/6
f 313/3/6 315/3/6 317/3/6
f 316/3/6 314/3/6 318/3/6
f 313/3/6 317/3/6 319/3/6
f 317/3/6 318/3/6 319/3/6
f 318/3/6 314/3/6 320/3/6
f 319/3/6 318/3/6 320/3/6
f 321/2/6 322/2/6 323/2/6
f 323/2/6 322/2/6 324/2/6
