# MagicaVoxel @ Ephtracy

# material
mtllib tree1.mtl
usemtl palette

# normals
vn -1 0 0
vn 1 0 0
vn 0 0 1
vn 0 0 -1
vn 0 -1 0
vn 0 1 0

# texcoords
vt 0.556641 0.5
vt 0.630859 0.5
vt 0.654297 0.5
vt 0.869141 0.5

# verts
v -2.5 3 2.5
v -2.5 3 -2.5
v -2.5 4 2.5
v -2.5 4 -2.5
v -2.5 6 2.5
v -2.5 6 -2.5
v -2.5 7 2.5
v -2.5 7 -2.5
v -2.5 9 2.5
v -2.5 9 -2.5
v -2.5 10 2.5
v -2.5 10 -2.5
v -2.5 12 2.5
v -2.5 12 -2.5
v -2.5 13 2.5
v -2.5 13 -2.5
v -2.5 15 2.5
v -2.5 15 -2.5
v -2.5 16 2.5
v -2.5 16 -2.5
v -1.5 0 1.5
v -1.5 0 -1.5
v -1.5 3 1.5
v -1.5 3 -1.5
v 1.5 0 1.5
v 1.5 0 -1.5
v 1.5 3 1.5
v 1.5 3 -1.5
v 2.5 3 2.5
v 2.5 3 -2.5
v 2.5 4 2.5
v 2.5 4 -2.5
v 2.5 6 2.5
v 2.5 6 -2.5
v 2.5 7 2.5
v 2.5 7 -2.5
v 2.5 9 2.5
v 2.5 9 -2.5
v 2.5 10 2.5
v 2.5 10 -2.5
v 2.5 12 2.5
v 2.5 12 -2.5
v 2.5 13 2.5
v 2.5 13 -2.5
v 2.5 15 2.5
v 2.5 15 -2.5
v 2.5 16 2.5
v 2.5 16 -2.5
v -2.5 3 2.5
v -2.5 4 2.5
v -2.5 6 2.5
v -2.5 7 2.5
v -2.5 9 2.5
v -2.5 10 2.5
v -2.5 12 2.5
v -2.5 13 2.5
v -2.5 15 2.5
v -2.5 16 2.5
v 2.5 3 2.5
v 2.5 4 2.5
v 2.5 6 2.5
v 2.5 7 2.5
v 2.5 9 2.5
v 2.5 10 2.5
v 2.5 12 2.5
v 2.5 13 2.5
v 2.5 15 2.5
v 2.5 16 2.5
v -1.5 0 1.5
v -1.5 3 1.5
v 0.5 0 1.5
v 0.5 3 1.5
v 1.5 0 1.5
v 1.5 3 1.5
v -1.5 0 -1.5
v -1.5 3 -1.5
v 0.5 0 -1.5
v 0.5 3 -1.5
v 1.5 0 -1.5
v 1.5 3 -1.5
v -2.5 3 -2.5
v -2.5 4 -2.5
v -2.5 6 -2.5
v -2.5 7 -2.5
v -2.5 9 -2.5
v -2.5 10 -2.5
v -2.5 12 -2.5
v -2.5 13 -2.5
v -2.5 15 -2.5
v -2.5 16 -2.5
v 2.5 3 -2.5
v 2.5 4 -2.5
v 2.5 6 -2.5
v 2.5 7 -2.5
v 2.5 9 -2.5
v 2.5 10 -2.5
v 2.5 12 -2.5
v 2.5 13 -2.5
v 2.5 15 -2.5
v 2.5 16 -2.5
v -1.5 0 1.5
v 0.5 0 1.5
v 1.5 0 1.5
v -1.5 0 -1.5
v 0.5 0 -1.5
v 1.5 0 -1.5
v -2.5 3 2.5
v 2.5 3 2.5
v -1.5 3 1.5
v 0.5 3 1.5
v 1.5 3 1.5
v -1.5 3 -1.5
v 0.5 3 -1.5
v 1.5 3 -1.5
v -2.5 3 -2.5
v 2.5 3 -2.5
v -2.5 16 2.5
v 2.5 16 2.5
v -2.5 16 -2.5
v 2.5 16 -2.5

# faces
f 3/3/1 2/3/1 1/3/1
f 4/3/1 2/3/1 3/3/1
f 5/2/1 4/2/1 3/2/1
f 6/2/1 4/2/1 5/2/1
f 7/3/1 6/3/1 5/3/1
f 8/3/1 6/3/1 7/3/1
f 9/2/1 8/2/1 7/2/1
f 10/2/1 8/2/1 9/2/1
f 11/3/1 10/3/1 9/3/1
f 12/3/1 10/3/1 11/3/1
f 13/2/1 12/2/1 11/2/1
f 14/2/1 12/2/1 13/2/1
f 15/3/1 14/3/1 13/3/1
f 16/3/1 14/3/1 15/3/1
f 17/2/1 16/2/1 15/2/1
f 18/2/1 16/2/1 17/2/1
f 19/3/1 18/3/1 17/3/1
f 20/3/1 18/3/1 19/3/1
f 23/1/1 22/1/1 21/1/1
f 24/1/1 22/1/1 23/1/1
f 25/4/2 26/4/2 27/4/2
f 27/4/2 26/4/2 28/4/2
f 29/3/2 30/3/2 31/3/2
f 31/3/2 30/3/2 32/3/2
f 31/2/2 32/2/2 33/2/2
f 33/2/2 32/2/2 34/2/2
f 33/3/2 34/3/2 35/3/2
f 35/3/2 34/3/2 36/3/2
f 35/2/2 36/2/2 37/2/2
f 37/2/2 36/2/2 38/2/2
f 37/3/2 38/3/2 39/3/2
f 39/3/2 38/3/2 40/3/2
f 39/2/2 40/2/2 41/2/2
f 41/2/2 40/2/2 42/2/2
f 41/3/2 42/3/2 43/3/2
f 43/3/2 42/3/2 44/3/2
f 43/2/2 44/2/2 45/2/2
f 45/2/2 44/2/2 46/2/2
f 45/3/2 46/3/2 47/3/2
f 47/3/2 46/3/2 48/3/2
f 59/3/3 50/3/3 49/3/3
f 60/2/3 51/2/3 50/2/3
f 60/3/3 50/3/3 59/3/3
f 61/3/3 52/3/3 51/3/3
f 61/2/3 51/2/3 60/2/3
f 62/2/3 53/2/3 52/2/3
f 62/3/3 52/3/3 61/3/3
f 63/3/3 54/3/3 53/3/3
f 63/2/3 53/2/3 62/2/3
f 64/2/3 55/2/3 54/2/3
f 64/3/3 54/3/3 63/3/3
f 65/3/3 56/3/3 55/3/3
f 65/2/3 55/2/3 64/2/3
f 66/2/3 57/2/3 56/2/3
f 66/3/3 56/3/3 65/3/3
f 67/3/3 58/3/3 57/3/3
f 67/2/3 57/2/3 66/2/3
f 68/3/3 58/3/3 67/3/3
f 71/1/3 70/1/3 69/1/3
f 72/1/3 70/1/3 71/1/3
f 73/4/3 72/4/3 71/4/3
f 74/4/3 72/4/3 73/4/3
f 75/1/4 76/1/4 77/1/4
f 77/1/4 76/1/4 78/1/4
f 77/4/4 78/4/4 79/4/4
f 79/4/4 78/4/4 80/4/4
f 81/3/4 82/3/4 91/3/4
f 82/2/4 83/2/4 92/2/4
f 91/3/4 82/3/4 92/3/4
f 83/3/4 84/3/4 93/3/4
f 92/2/4 83/2/4 93/2/4
f 84/2/4 85/2/4 94/2/4
f 93/3/4 84/3/4 94/3/4
f 85/3/4 86/3/4 95/3/4
f 94/2/4 85/2/4 95/2/4
f 86/2/4 87/2/4 96/2/4
f 95/3/4 86/3/4 96/3/4
f 87/3/4 88/3/4 97/3/4
f 96/2/4 87/2/4 97/2/4
f 88/2/4 89/2/4 98/2/4
f 97/3/4 88/3/4 98/3/4
f 89/3/4 90/3/4 99/3/4
f 98/2/4 89/2/4 99/2/4
f 99/3/4 90/3/4 100/3/4
f 104/1/5 102/1/5 101/1/5
f 105/4/5 103/4/5 102/4/5
f 105/1/5 102/1/5 104/1/5
f 106/4/5 103/4/5 105/4/5
f 109/3/5 108/3/5 107/3/5
f 110/3/5 108/3/5 109/3/5
f 111/3/5 108/3/5 110/3/5
f 112/3/5 109/3/5 107/3/5
f 114/3/5 108/3/5 111/3/5
f 115/3/5 113/3/5 112/3/5
f 115/3/5 114/3/5 113/3/5
f 115/3/5 112/3/5 107/3/5
f 116/3/5 108/3/5 114/3/5
f 116/3/5 114/3/5 115/3/5
f 117/3/6 118/3/6 119/3/6
f 119/3/6 118/3/6 120/3/6
