# MagicaVoxel @ Ephtracy

# material
mtllib lgrass-f.mtl
usemtl palette

# normals
vn -1 0 0
vn 1 0 0
vn 0 0 1
vn 0 0 -1
vn 0 -1 0
vn 0 1 0

# texcoords
vt 0.169922 0.5
vt 0.306641 0.5
vt 0.412109 0.5
vt 0.427734 0.5
vt 0.548828 0.5

# verts
v -4.5 0 54
v -4.5 0 -54
v -4.5 1 54
v -4.5 1 18
v -4.5 1 -18
v -4.5 1 -54
v -4.5 2 54
v -4.5 2 18
v -4.5 2 -18
v -4.5 2 -54
v 4.5 0 54
v 4.5 0 -54
v 4.5 1 54
v 4.5 1 18
v 4.5 1 -18
v 4.5 1 -54
v 4.5 2 54
v 4.5 2 18
v 4.5 2 -18
v 4.5 2 -54
v -4.5 0 54
v -4.5 1 54
v -4.5 2 54
v 4.5 0 54
v 4.5 1 54
v 4.5 2 54
v -4.5 0 -54
v -4.5 1 -54
v -4.5 2 -54
v 4.5 0 -54
v 4.5 1 -54
v 4.5 2 -54
v -4.5 0 54
v 4.5 0 54
v -2.5 0 43
v 2.5 0 43
v -2.5 0 31
v 2.5 0 31
v -2.5 0 -19
v 3.5 0 -19
v -2.5 0 -20
v 3.5 0 -20
v -4.5 0 -54
v 4.5 0 -54
v -4.5 2 54
v 4.5 2 54
v -4.5 2 18
v 4.5 2 18
v -4.5 2 -18
v 4.5 2 -18
v -4.5 2 -54
v 4.5 2 -54

# faces
f 3/5/1 2/5/1 1/5/1
f 4/5/1 2/5/1 3/5/1
f 5/5/1 2/5/1 4/5/1
f 6/5/1 2/5/1 5/5/1
f 7/3/1 4/3/1 3/3/1
f 8/1/1 5/1/1 4/1/1
f 8/3/1 4/3/1 7/3/1
f 9/3/1 6/3/1 5/3/1
f 9/1/1 5/1/1 8/1/1
f 10/3/1 6/3/1 9/3/1
f 11/5/2 12/5/2 13/5/2
f 13/5/2 12/5/2 14/5/2
f 14/5/2 12/5/2 15/5/2
f 15/5/2 12/5/2 16/5/2
f 13/3/2 14/3/2 17/3/2
f 14/1/2 15/1/2 18/1/2
f 17/3/2 14/3/2 18/3/2
f 15/3/2 16/3/2 19/3/2
f 18/1/2 15/1/2 19/1/2
f 19/3/2 16/3/2 20/3/2
f 24/5/3 22/5/3 21/5/3
f 25/3/3 23/3/3 22/3/3
f 25/5/3 22/5/3 24/5/3
f 26/3/3 23/3/3 25/3/3
f 27/5/4 28/5/4 30/5/4
f 28/3/4 29/3/4 31/3/4
f 30/5/4 28/5/4 31/5/4
f 31/3/4 29/3/4 32/3/4
f 35/5/5 34/5/5 33/5/5
f 36/5/5 34/5/5 35/5/5
f 37/5/5 35/5/5 33/5/5
f 37/4/5 36/4/5 35/4/5
f 38/5/5 34/5/5 36/5/5
f 38/4/5 36/4/5 37/4/5
f 39/5/5 37/5/5 33/5/5
f 39/5/5 38/5/5 37/5/5
f 40/5/5 34/5/5 38/5/5
f 40/5/5 38/5/5 39/5/5
f 41/5/5 39/5/5 33/5/5
f 41/2/5 40/2/5 39/2/5
f 42/5/5 34/5/5 40/5/5
f 42/2/5 40/2/5 41/2/5
f 43/5/5 41/5/5 33/5/5
f 43/5/5 42/5/5 41/5/5
f 44/5/5 34/5/5 42/5/5
f 44/5/5 42/5/5 43/5/5
f 45/3/6 46/3/6 47/3/6
f 47/3/6 46/3/6 48/3/6
f 47/1/6 48/1/6 49/1/6
f 49/1/6 48/1/6 50/1/6
f 49/3/6 50/3/6 51/3/6
f 51/3/6 50/3/6 52/3/6
