# MagicaVoxel @ Ephtracy

# material
mtllib mickey.mtl
usemtl palette

# normals
vn -1 0 0
vn 1 0 0
vn 0 0 1
vn 0 0 -1
vn 0 -1 0
vn 0 1 0

# texcoords
vt 0.306641 0.5
vt 0.845703 0.5
vt 0.958984 0.5
vt 0.962891 0.5
vt 0.994141 0.5

# verts
v -6 21 2
v -6 21 1
v -6 26 2
v -6 26 1
v -4 0 2
v -4 0 -3
v -4 2 2
v -4 2 -3
v -4 6 2
v -4 6 -0
v -4 8 -0
v -4 8 -1
v -4 9 2
v -4 9 1
v -4 9 -0
v -4 9 -1
v -4 10 1
v -4 10 -0
v -4 14 1
v -4 14 -0
v -4 15 3
v -4 15 1
v -4 15 -0
v -4 15 -1
v -4 18 1
v -4 18 -0
v -4 18 -1
v -4 21 2
v -4 21 1
v -4 22 3
v -4 22 2
v -4 22 1
v -4 22 -1
v -3 2 1
v -3 2 -0
v -3 4 1
v -3 4 -0
v -3 5 2
v -3 5 1
v -3 5 -0
v -3 5 -1
v -3 6 2
v -3 6 -0
v -3 8 -0
v -3 8 -1
v -2 9 2
v -2 9 -1
v -2 13 1
v -2 13 -0
v -2 14 1
v -2 14 -0
v -2 15 2
v -2 15 1
v -2 15 -0
v -2 15 -1
v -2 15 -2
v -2 18 -1
v -2 18 -2
v -1 17 -2
v -1 17 -3
v -1 18 -2
v -1 18 -3
v 1 0 2
v 1 0 -3
v 1 2 2
v 1 2 -3
v 1 22 2
v 1 22 1
v 1 26 2
v 1 26 1
v 2 2 1
v 2 2 -0
v 2 4 1
v 2 4 -0
v 2 5 1
v 2 5 -0
v 3 9 1
v 3 9 -0
v 3 10 1
v 3 10 -0
v 3 13 1
v 3 13 -0
v -3 9 1
v -3 9 -0
v -3 10 1
v -3 10 -0
v -3 13 1
v -3 13 -0
v -2 2 1
v -2 2 -0
v -2 4 1
v -2 4 -0
v -2 5 1
v -2 5 -0
v -1 0 2
v -1 0 -3
v -1 2 2
v -1 2 -3
v -1 22 2
v -1 22 1
v -1 26 2
v -1 26 1
v 1 17 -2
v 1 17 -3
v 1 18 -2
v 1 18 -3
v 2 9 2
v 2 9 -1
v 2 13 1
v 2 13 -0
v 2 14 1
v 2 14 -0
v 2 15 2
v 2 15 1
v 2 15 -0
v 2 15 -1
v 2 15 -2
v 2 18 -1
v 2 18 -2
v 3 2 1
v 3 2 -0
v 3 4 1
v 3 4 -0
v 3 5 2
v 3 5 1
v 3 5 -0
v 3 5 -1
v 3 6 2
v 3 6 -0
v 3 8 -0
v 3 8 -1
v 4 0 2
v 4 0 -3
v 4 2 2
v 4 2 -3
v 4 6 2
v 4 6 -0
v 4 8 -0
v 4 8 -1
v 4 9 2
v 4 9 1
v 4 9 -0
v 4 9 -1
v 4 10 1
v 4 10 -0
v 4 14 1
v 4 14 -0
v 4 15 3
v 4 15 1
v 4 15 -0
v 4 15 -1
v 4 18 1
v 4 18 -0
v 4 18 -1
v 4 21 2
v 4 21 1
v 4 22 3
v 4 22 2
v 4 22 1
v 4 22 -1
v 6 21 2
v 6 21 1
v 6 26 2
v 6 26 1
v -4 15 3
v -4 22 3
v 4 15 3
v 4 22 3
v -6 21 2
v -6 26 2
v -4 0 2
v -4 2 2
v -4 6 2
v -4 9 2
v -4 21 2
v -4 22 2
v -3 5 2
v -3 6 2
v -3 9 2
v -2 9 2
v -2 15 2
v -1 0 2
v -1 2 2
v -1 22 2
v -1 26 2
v 1 0 2
v 1 2 2
v 1 22 2
v 1 26 2
v 2 9 2
v 2 15 2
v 3 5 2
v 3 6 2
v 3 9 2
v 4 0 2
v 4 2 2
v 4 6 2
v 4 9 2
v 4 21 2
v 4 22 2
v 6 21 2
v 6 26 2
v -4 9 1
v -4 10 1
v -4 14 1
v -3 2 1
v -3 4 1
v -3 5 1
v -3 9 1
v -3 10 1
v -3 13 1
v -2 2 1
v -2 4 1
v -2 5 1
v -2 13 1
v -2 14 1
v 2 2 1
v 2 4 1
v 2 5 1
v 2 13 1
v 2 14 1
v 3 2 1
v 3 4 1
v 3 5 1
v 3 9 1
v 3 10 1
v 3 13 1
v 4 9 1
v 4 10 1
v 4 14 1
v -6 21 1
v -6 26 1
v -4 21 1
v -4 22 1
v -1 22 1
v -1 26 1
v 1 22 1
v 1 26 1
v 4 21 1
v 4 22 1
v 6 21 1
v 6 26 1
v -4 6 -0
v -4 8 -0
v -4 9 -0
v -4 10 -0
v -4 14 -0
v -3 2 -0
v -3 4 -0
v -3 5 -0
v -3 6 -0
v -3 8 -0
v -3 9 -0
v -3 10 -0
v -3 13 -0
v -2 2 -0
v -2 4 -0
v -2 5 -0
v -2 13 -0
v -2 14 -0
v 2 2 -0
v 2 4 -0
v 2 5 -0
v 2 13 -0
v 2 14 -0
v 3 2 -0
v 3 4 -0
v 3 5 -0
v 3 6 -0
v 3 8 -0
v 3 9 -0
v 3 10 -0
v 3 13 -0
v 4 6 -0
v 4 8 -0
v 4 9 -0
v 4 10 -0
v 4 14 -0
v -4 8 -1
v -4 9 -1
v -4 15 -1
v -4 18 -1
v -4 22 -1
v -3 5 -1
v -3 8 -1
v -3 9 -1
v -3 18 -1
v -3 22 -1
v -2 7 -1
v -2 8 -1
v -2 9 -1
v -2 15 -1
v -2 18 -1
v -2 19 -1
v -1 7 -1
v -1 8 -1
v -1 18 -1
v -1 19 -1
v -1 21 -1
v -1 22 -1
v 1 7 -1
v 1 8 -1
v 1 18 -1
v 1 19 -1
v 1 21 -1
v 1 22 -1
v 2 7 -1
v 2 8 -1
v 2 9 -1
v 2 15 -1
v 2 18 -1
v 2 19 -1
v 3 5 -1
v 3 8 -1
v 3 9 -1
v 3 18 -1
v 3 22 -1
v 4 8 -1
v 4 9 -1
v 4 15 -1
v 4 18 -1
v 4 22 -1
v -2 15 -2
v -2 18 -2
v -1 17 -2
v -1 18 -2
v 1 17 -2
v 1 18 -2
v 2 15 -2
v 2 18 -2
v -4 0 -3
v -4 2 -3
v -1 0 -3
v -1 2 -3
v -1 17 -3
v -1 18 -3
v 1 0 -3
v 1 2 -3
v 1 17 -3
v 1 18 -3
v 4 0 -3
v 4 2 -3
v -4 0 2
v -1 0 2
v 1 0 2
v 4 0 2
v -4 0 -3
v -1 0 -3
v 1 0 -3
v 4 0 -3
v -3 5 2
v 3 5 2
v -3 5 1
v -2 5 1
v 2 5 1
v 3 5 1
v -3 5 -0
v -2 5 -0
v 2 5 -0
v 3 5 -0
v -3 5 -1
v 3 5 -1
v -4 6 2
v -3 6 2
v 3 6 2
v 4 6 2
v -4 6 -0
v -3 6 -0
v 3 6 -0
v 4 6 -0
v -4 8 -0
v -3 8 -0
v 3 8 -0
v 4 8 -0
v -4 8 -1
v -3 8 -1
v 3 8 -1
v 4 8 -1
v -3 13 1
v -2 13 1
v 2 13 1
v 3 13 1
v -3 13 -0
v -2 13 -0
v 2 13 -0
v 3 13 -0
v -4 15 3
v 4 15 3
v -2 15 2
v 2 15 2
v -4 15 1
v -2 15 1
v 2 15 1
v 4 15 1
v -4 15 -0
v -2 15 -0
v 2 15 -0
v 4 15 -0
v -4 15 -1
v -2 15 -1
v 2 15 -1
v 4 15 -1
v -2 15 -2
v 2 15 -2
v -1 17 -2
v 1 17 -2
v -1 17 -3
v 1 17 -3
v -6 21 2
v -4 21 2
v 4 21 2
v 6 21 2
v -6 21 1
v -4 21 1
v 4 21 1
v 6 21 1
v -4 2 2
v -1 2 2
v 1 2 2
v 4 2 2
v -3 2 1
v -2 2 1
v 2 2 1
v 3 2 1
v -3 2 -0
v -2 2 -0
v 2 2 -0
v 3 2 -0
v -4 2 -3
v -1 2 -3
v 1 2 -3
v 4 2 -3
v -4 9 2
v -3 9 2
v -2 9 2
v 2 9 2
v 3 9 2
v 4 9 2
v -4 9 1
v -3 9 1
v 3 9 1
v 4 9 1
v -4 9 -0
v -3 9 -0
v 3 9 -0
v 4 9 -0
v -4 9 -1
v -3 9 -1
v -2 9 -1
v 2 9 -1
v 3 9 -1
v 4 9 -1
v -4 14 1
v -2 14 1
v 2 14 1
v 4 14 1
v -4 14 -0
v -2 14 -0
v 2 14 -0
v 4 14 -0
v -2 18 -1
v -1 18 -1
v 1 18 -1
v 2 18 -1
v -2 18 -2
v -1 18 -2
v 1 18 -2
v 2 18 -2
v -1 18 -3
v 1 18 -3
v -4 22 3
v 4 22 3
v -4 22 2
v -1 22 2
v 1 22 2
v 4 22 2
v -4 22 1
v -1 22 1
v 1 22 1
v 4 22 1
v -3 22 -0
v -1 22 -0
v 1 22 -0
v 3 22 -0
v -4 22 -1
v -3 22 -1
v -1 22 -1
v 1 22 -1
v 3 22 -1
v 4 22 -1
v -6 26 2
v -1 26 2
v 1 26 2
v 6 26 2
v -6 26 1
v -1 26 1
v 1 26 1
v 6 26 1

# faces
f 3/5/1 2/5/1 1/5/1
f 4/5/1 2/5/1 3/5/1
f 7/1/1 6/1/1 5/1/1
f 8/1/1 6/1/1 7/1/1
f 11/3/1 10/3/1 9/3/1
f 13/3/1 11/3/1 9/3/1
f 13/3/1 12/3/1 11/3/1
f 14/3/1 12/3/1 13/3/1
f 15/3/1 12/3/1 14/3/1
f 16/3/1 12/3/1 15/3/1
f 17/3/1 15/3/1 14/3/1
f 18/3/1 15/3/1 17/3/1
f 19/5/1 18/5/1 17/5/1
f 20/5/1 18/5/1 19/5/1
f 25/4/1 23/4/1 22/4/1
f 25/5/1 22/5/1 21/5/1
f 26/3/1 24/3/1 23/3/1
f 26/4/1 23/4/1 25/4/1
f 27/3/1 24/3/1 26/3/1
f 28/5/1 25/5/1 21/5/1
f 28/5/1 26/5/1 25/5/1
f 28/5/1 27/5/1 26/5/1
f 29/5/1 27/5/1 28/5/1
f 30/5/1 28/5/1 21/5/1
f 31/5/1 28/5/1 30/5/1
f 32/5/1 27/5/1 29/5/1
f 33/5/1 27/5/1 32/5/1
f 36/5/1 35/5/1 34/5/1
f 37/5/1 35/5/1 36/5/1
f 39/2/1 37/2/1 36/2/1
f 40/2/1 37/2/1 39/2/1
f 42/2/1 40/2/1 39/2/1
f 42/2/1 41/2/1 40/2/1
f 42/2/1 39/2/1 38/2/1
f 43/2/1 41/2/1 42/2/1
f 44/2/1 41/2/1 43/2/1
f 45/2/1 41/2/1 44/2/1
f 48/5/1 47/5/1 46/5/1
f 49/5/1 47/5/1 48/5/1
f 50/5/1 48/5/1 46/5/1
f 51/5/1 47/5/1 49/5/1
f 52/5/1 50/5/1 46/5/1
f 52/5/1 51/5/1 50/5/1
f 53/5/1 51/5/1 52/5/1
f 54/5/1 47/5/1 51/5/1
f 54/5/1 51/5/1 53/5/1
f 55/5/1 47/5/1 54/5/1
f 57/3/1 56/3/1 55/3/1
f 58/3/1 56/3/1 57/3/1
f 61/5/1 60/5/1 59/5/1
f 62/5/1 60/5/1 61/5/1
f 65/1/1 64/1/1 63/1/1
f 66/1/1 64/1/1 65/1/1
f 69/5/1 68/5/1 67/5/1
f 70/5/1 68/5/1 69/5/1
f 73/5/1 72/5/1 71/5/1
f 74/5/1 72/5/1 73/5/1
f 75/2/1 74/2/1 73/2/1
f 76/2/1 74/2/1 75/2/1
f 79/3/1 78/3/1 77/3/1
f 80/3/1 78/3/1 79/3/1
f 81/5/1 80/5/1 79/5/1
f 82/5/1 80/5/1 81/5/1
f 83/3/2 84/3/2 85/3/2
f 85/3/2 84/3/2 86/3/2
f 85/5/2 86/5/2 87/5/2
f 87/5/2 86/5/2 88/5/2
f 89/5/2 90/5/2 91/5/2
f 91/5/2 90/5/2 92/5/2
f 91/2/2 92/2/2 93/2/2
f 93/2/2 92/2/2 94/2/2
f 95/1/2 96/1/2 97/1/2
f 97/1/2 96/1/2 98/1/2
f 99/5/2 100/5/2 101/5/2
f 101/5/2 100/5/2 102/5/2
f 103/5/2 104/5/2 105/5/2
f 105/5/2 104/5/2 106/5/2
f 107/5/2 108/5/2 109/5/2
f 109/5/2 108/5/2 110/5/2
f 107/5/2 109/5/2 111/5/2
f 110/5/2 108/5/2 112/5/2
f 107/5/2 111/5/2 113/5/2
f 111/5/2 112/5/2 113/5/2
f 113/5/2 112/5/2 114/5/2
f 112/5/2 108/5/2 115/5/2
f 114/5/2 112/5/2 115/5/2
f 115/5/2 108/5/2 116/5/2
f 116/3/2 117/3/2 118/3/2
f 118/3/2 117/3/2 119/3/2
f 120/5/2 121/5/2 122/5/2
f 122/5/2 121/5/2 123/5/2
f 122/2/2 123/2/2 125/2/2
f 125/2/2 123/2/2 126/2/2
f 125/2/2 126/2/2 128/2/2
f 126/2/2 127/2/2 128/2/2
f 124/2/2 125/2/2 128/2/2
f 128/2/2 127/2/2 129/2/2
f 129/2/2 127/2/2 130/2/2
f 130/2/2 127/2/2 131/2/2
f 132/1/2 133/1/2 134/1/2
f 134/1/2 133/1/2 135/1/2
f 136/3/2 137/3/2 138/3/2
f 136/3/2 138/3/2 140/3/2
f 138/3/2 139/3/2 140/3/2
f 140/3/2 139/3/2 141/3/2
f 141/3/2 139/3/2 142/3/2
f 142/3/2 139/3/2 143/3/2
f 141/3/2 142/3/2 144/3/2
f 144/3/2 142/3/2 145/3/2
f 144/5/2 145/5/2 146/5/2
f 146/5/2 145/5/2 147/5/2
f 149/4/2 150/4/2 152/4/2
f 148/5/2 149/5/2 152/5/2
f 150/3/2 151/3/2 153/3/2
f 152/4/2 150/4/2 153/4/2
f 153/3/2 151/3/2 154/3/2
f 148/5/2 152/5/2 155/5/2
f 152/5/2 153/5/2 155/5/2
f 153/5/2 154/5/2 155/5/2
f 155/5/2 154/5/2 156/5/2
f 148/5/2 155/5/2 157/5/2
f 157/5/2 155/5/2 158/5/2
f 156/5/2 154/5/2 159/5/2
f 159/5/2 154/5/2 160/5/2
f 161/5/2 162/5/2 163/5/2
f 163/5/2 162/5/2 164/5/2
f 167/5/3 166/5/3 165/5/3
f 168/5/3 166/5/3 167/5/3
f 175/5/3 170/5/3 169/5/3
f 176/5/3 170/5/3 175/5/3
f 178/3/3 174/3/3 173/3/3
f 179/3/3 174/3/3 178/3/3
f 180/2/3 178/2/3 177/2/3
f 180/2/3 179/2/3 178/2/3
f 182/1/3 172/1/3 171/1/3
f 183/1/3 172/1/3 182/1/3
f 184/5/3 170/5/3 176/5/3
f 185/5/3 170/5/3 184/5/3
f 190/5/3 181/5/3 180/5/3
f 190/2/3 180/2/3 177/2/3
f 191/5/3 181/5/3 190/5/3
f 192/2/3 190/2/3 177/2/3
f 193/2/3 190/2/3 192/2/3
f 194/2/3 190/2/3 193/2/3
f 195/1/3 187/1/3 186/1/3
f 196/1/3 187/1/3 195/1/3
f 197/3/3 194/3/3 193/3/3
f 198/3/3 194/3/3 197/3/3
f 200/5/3 189/5/3 188/5/3
f 201/5/3 200/5/3 199/5/3
f 202/5/3 189/5/3 200/5/3
f 202/5/3 200/5/3 201/5/3
f 209/3/3 204/3/3 203/3/3
f 210/5/3 205/5/3 204/5/3
f 210/3/3 204/3/3 209/3/3
f 211/5/3 205/5/3 210/5/3
f 212/5/3 207/5/3 206/5/3
f 213/2/3 208/2/3 207/2/3
f 213/5/3 207/5/3 212/5/3
f 214/2/3 208/2/3 213/2/3
f 215/5/3 205/5/3 211/5/3
f 216/5/3 205/5/3 215/5/3
f 222/5/3 218/5/3 217/5/3
f 223/2/3 219/2/3 218/2/3
f 223/5/3 218/5/3 222/5/3
f 224/2/3 219/2/3 223/2/3
f 227/5/3 221/5/3 220/5/3
f 228/3/3 226/3/3 225/3/3
f 229/5/3 227/5/3 226/5/3
f 229/3/3 226/3/3 228/3/3
f 230/5/3 221/5/3 227/5/3
f 230/5/3 227/5/3 229/5/3
f 231/5/4 232/5/4 233/5/4
f 233/5/4 232/5/4 234/5/4
f 234/5/4 232/5/4 235/5/4
f 235/5/4 232/5/4 236/5/4
f 237/5/4 238/5/4 240/5/4
f 239/5/4 240/5/4 241/5/4
f 240/5/4 238/5/4 242/5/4
f 241/5/4 240/5/4 242/5/4
f 243/3/4 244/3/4 251/3/4
f 251/3/4 244/3/4 252/3/4
f 245/3/4 246/3/4 253/3/4
f 246/5/4 247/5/4 254/5/4
f 253/3/4 246/3/4 254/3/4
f 254/5/4 247/5/4 255/5/4
f 248/5/4 249/5/4 256/5/4
f 249/2/4 250/2/4 257/2/4
f 256/5/4 249/5/4 257/5/4
f 257/2/4 250/2/4 258/2/4
f 255/5/4 247/5/4 259/5/4
f 259/5/4 247/5/4 260/5/4
f 261/5/4 262/5/4 266/5/4
f 262/2/4 263/2/4 267/2/4
f 266/5/4 262/5/4 267/5/4
f 267/2/4 263/2/4 268/2/4
f 264/5/4 265/5/4 273/5/4
f 269/3/4 270/3/4 274/3/4
f 274/3/4 270/3/4 275/3/4
f 271/3/4 272/3/4 276/3/4
f 272/5/4 273/5/4 277/5/4
f 276/3/4 272/3/4 277/3/4
f 273/5/4 265/5/4 278/5/4
f 277/5/4 273/5/4 278/5/4
f 279/3/4 280/3/4 285/3/4
f 285/3/4 280/3/4 286/3/4
f 282/5/4 283/5/4 287/5/4
f 281/3/4 282/3/4 287/3/4
f 287/5/4 283/5/4 288/5/4
f 285/2/4 286/2/4 289/2/4
f 284/2/4 285/2/4 289/2/4
f 289/2/4 286/2/4 290/2/4
f 290/2/4 286/2/4 291/2/4
f 287/3/4 288/3/4 292/3/4
f 281/3/4 287/3/4 292/3/4
f 292/3/4 288/3/4 293/3/4
f 293/3/4 288/3/4 294/3/4
f 289/1/4 290/1/4 295/1/4
f 284/2/4 289/2/4 295/2/4
f 290/2/4 291/2/4 296/2/4
f 295/1/4 290/1/4 296/1/4
f 293/5/4 294/5/4 297/5/4
f 294/3/4 288/3/4 298/3/4
f 297/5/4 294/5/4 298/5/4
f 298/3/4 288/3/4 299/3/4
f 299/3/4 288/3/4 300/3/4
f 284/2/4 295/2/4 301/2/4
f 295/2/4 296/2/4 301/2/4
f 296/2/4 291/2/4 302/2/4
f 301/2/4 296/2/4 302/2/4
f 297/3/4 298/3/4 303/3/4
f 298/3/4 299/3/4 303/3/4
f 303/3/4 299/3/4 304/3/4
f 299/5/4 300/5/4 305/5/4
f 304/3/4 299/3/4 305/3/4
f 305/5/4 300/5/4 306/5/4
f 284/2/4 301/2/4 307/2/4
f 301/1/4 302/1/4 307/1/4
f 302/2/4 291/2/4 308/2/4
f 307/1/4 302/1/4 308/1/4
f 291/5/4 292/5/4 309/5/4
f 308/2/4 291/2/4 309/2/4
f 309/5/4 292/5/4 310/5/4
f 303/5/4 304/5/4 311/5/4
f 305/3/4 306/3/4 312/3/4
f 304/3/4 305/3/4 312/3/4
f 311/5/4 304/5/4 312/5/4
f 307/2/4 308/2/4 313/2/4
f 284/2/4 307/2/4 313/2/4
f 308/2/4 309/2/4 313/2/4
f 313/2/4 309/2/4 314/2/4
f 314/2/4 309/2/4 315/2/4
f 311/3/4 312/3/4 316/3/4
f 310/3/4 311/3/4 316/3/4
f 312/3/4 306/3/4 317/3/4
f 316/3/4 312/3/4 317/3/4
f 314/3/4 315/3/4 318/3/4
f 318/3/4 315/3/4 319/3/4
f 310/3/4 316/3/4 320/3/4
f 316/5/4 317/5/4 321/5/4
f 320/3/4 316/3/4 321/3/4
f 321/5/4 317/5/4 322/5/4
f 323/3/4 324/3/4 325/3/4
f 325/3/4 324/3/4 326/3/4
f 323/3/4 325/3/4 327/3/4
f 323/3/4 327/3/4 329/3/4
f 327/3/4 328/3/4 329/3/4
f 329/3/4 328/3/4 330/3/4
f 331/1/4 332/1/4 333/1/4
f 333/1/4 332/1/4 334/1/4
f 335/5/4 336/5/4 339/5/4
f 339/5/4 336/5/4 340/5/4
f 337/1/4 338/1/4 341/1/4
f 341/1/4 338/1/4 342/1/4
f 347/1/5 344/1/5 343/1/5
f 348/1/5 344/1/5 347/1/5
f 349/1/5 346/1/5 345/1/5
f 350/1/5 346/1/5 349/1/5
f 353/2/5 352/2/5 351/2/5
f 354/2/5 352/2/5 353/2/5
f 355/2/5 352/2/5 354/2/5
f 356/2/5 352/2/5 355/2/5
f 358/2/5 355/2/5 354/2/5
f 359/2/5 355/2/5 358/2/5
f 361/2/5 358/2/5 357/2/5
f 361/2/5 360/2/5 359/2/5
f 361/2/5 359/2/5 358/2/5
f 362/2/5 360/2/5 361/2/5
f 367/3/5 364/3/5 363/3/5
f 368/3/5 364/3/5 367/3/5
f 369/3/5 366/3/5 365/3/5
f 370/3/5 366/3/5 369/3/5
f 375/3/5 372/3/5 371/3/5
f 376/3/5 372/3/5 375/3/5
f 377/3/5 374/3/5 373/3/5
f 378/3/5 374/3/5 377/3/5
f 383/5/5 380/5/5 379/5/5
f 384/5/5 380/5/5 383/5/5
f 385/5/5 382/5/5 381/5/5
f 386/5/5 382/5/5 385/5/5
f 389/5/5 388/5/5 387/5/5
f 390/5/5 388/5/5 389/5/5
f 391/5/5 389/5/5 387/5/5
f 392/5/5 389/5/5 391/5/5
f 393/5/5 388/5/5 390/5/5
f 394/5/5 388/5/5 393/5/5
f 395/4/5 392/4/5 391/4/5
f 396/4/5 392/4/5 395/4/5
f 397/4/5 394/4/5 393/4/5
f 398/4/5 394/4/5 397/4/5
f 399/3/5 396/3/5 395/3/5
f 400/3/5 396/3/5 399/3/5
f 401/3/5 398/3/5 397/3/5
f 402/3/5 398/3/5 401/3/5
f 403/3/5 401/3/5 400/3/5
f 404/3/5 401/3/5 403/3/5
f 407/5/5 406/5/5 405/5/5
f 408/5/5 406/5/5 407/5/5
f 413/5/5 410/5/5 409/5/5
f 414/5/5 410/5/5 413/5/5
f 415/5/5 412/5/5 411/5/5
f 416/5/5 412/5/5 415/5/5
f 417/1/6 418/1/6 421/1/6
f 421/1/6 418/1/6 422/1/6
f 419/1/6 420/1/6 423/1/6
f 423/1/6 420/1/6 424/1/6
f 417/1/6 421/1/6 425/1/6
f 422/1/6 418/1/6 426/1/6
f 419/1/6 423/1/6 427/1/6
f 424/1/6 420/1/6 428/1/6
f 417/1/6 425/1/6 429/1/6
f 425/1/6 426/1/6 429/1/6
f 426/1/6 418/1/6 430/1/6
f 429/1/6 426/1/6 430/1/6
f 427/1/6 428/1/6 431/1/6
f 419/1/6 427/1/6 431/1/6
f 428/1/6 420/1/6 432/1/6
f 431/1/6 428/1/6 432/1/6
f 433/3/6 434/3/6 439/3/6
f 434/2/6 435/2/6 440/2/6
f 439/3/6 434/3/6 440/3/6
f 437/3/6 438/3/6 441/3/6
f 436/2/6 437/2/6 441/2/6
f 441/3/6 438/3/6 442/3/6
f 440/2/6 435/2/6 444/2/6
f 436/2/6 441/2/6 445/2/6
f 443/3/6 444/3/6 447/3/6
f 444/2/6 435/2/6 448/2/6
f 447/3/6 444/3/6 448/3/6
f 448/2/6 435/2/6 449/2/6
f 436/2/6 445/2/6 450/2/6
f 445/3/6 446/3/6 451/3/6
f 450/2/6 445/2/6 451/2/6
f 451/3/6 446/3/6 452/3/6
f 453/5/6 454/5/6 457/5/6
f 457/5/6 454/5/6 458/5/6
f 455/5/6 456/5/6 459/5/6
f 459/5/6 456/5/6 460/5/6
f 461/3/6 462/3/6 465/3/6
f 462/4/6 463/4/6 466/4/6
f 465/3/6 462/3/6 466/3/6
f 463/3/6 464/3/6 467/3/6
f 466/4/6 463/4/6 467/4/6
f 467/3/6 464/3/6 468/3/6
f 466/5/6 467/5/6 469/5/6
f 469/5/6 467/5/6 470/5/6
f 471/5/6 472/5/6 473/5/6
f 473/5/6 472/5/6 474/5/6
f 474/5/6 472/5/6 475/5/6
f 475/5/6 472/5/6 476/5/6
f 474/5/6 475/5/6 478/5/6
f 478/5/6 475/5/6 479/5/6
f 477/5/6 478/5/6 481/5/6
f 479/5/6 480/5/6 481/5/6
f 478/5/6 479/5/6 481/5/6
f 481/5/6 480/5/6 482/5/6
f 482/5/6 480/5/6 483/5/6
f 483/5/6 480/5/6 484/5/6
f 477/5/6 481/5/6 485/5/6
f 481/3/6 482/3/6 486/3/6
f 485/5/6 481/5/6 486/5/6
f 482/5/6 483/5/6 487/5/6
f 486/3/6 482/3/6 487/3/6
f 483/3/6 484/3/6 488/3/6
f 487/5/6 483/5/6 488/5/6
f 484/5/6 480/5/6 489/5/6
f 488/3/6 484/3/6 489/3/6
f 489/5/6 480/5/6 490/5/6
f 491/5/6 492/5/6 495/5/6
f 495/5/6 492/5/6 496/5/6
f 493/5/6 494/5/6 497/5/6
f 497/5/6 494/5/6 498/5/6
