# MagicaVoxel @ Ephtracy

# material
mtllib car4-truck.mtl
usemtl palette

# normals
vn -1 0 0
vn 1 0 0
vn 0 0 1
vn 0 0 -1
vn 0 -1 0
vn 0 1 0

# texcoords
vt 0.267578 0.5
vt 0.271484 0.5
vt 0.841797 0.5
vt 0.958984 0.5
vt 0.994141 0.5

# verts
v -6 4 12.5
v -6 4 11.5
v -6 6 12.5
v -6 6 11.5
v -5 2 6.5
v -5 2 -13.5
v -5 3 6.5
v -5 3 -12.5
v -5 9 6.5
v -5 9 -12.5
v -5 10 6.5
v -5 10 -13.5
v -4 0 11.5
v -4 0 8.5
v -4 0 4.5
v -4 0 1.5
v -4 0 -8.5
v -4 0 -11.5
v -4 1 13.5
v -4 1 11.5
v -4 1 10.5
v -4 1 9.5
v -4 1 8.5
v -4 1 7.5
v -4 1 6.5
v -4 1 4.5
v -4 1 3.5
v -4 1 2.5
v -4 1 1.5
v -4 1 -8.5
v -4 1 -9.5
v -4 1 -10.5
v -4 1 -11.5
v -4 1 -12.5
v -4 2 10.5
v -4 2 9.5
v -4 2 6.5
v -4 2 4.5
v -4 2 3.5
v -4 2 2.5
v -4 2 1.5
v -4 2 -8.5
v -4 2 -9.5
v -4 2 -10.5
v -4 2 -11.5
v -4 2 -12.5
v -4 3 11.5
v -4 3 8.5
v -4 4 12.5
v -4 4 11.5
v -4 5 13.5
v -4 5 12.5
v -4 5 11.5
v -4 5 10.5
v -4 7 13.5
v -4 7 10.5
v -4 8 13.5
v -4 8 7.5
v -3 8 10.5
v -3 8 7.5
v -3 9 10.5
v -3 9 9.5
v -3 10 9.5
v -3 10 7.5
v -1 4 7.5
v -1 4 6.5
v -1 5 7.5
v -1 5 6.5
v 3 0 11.5
v 3 0 8.5
v 3 0 4.5
v 3 0 1.5
v 3 0 -8.5
v 3 0 -11.5
v 3 1 11.5
v 3 1 8.5
v 3 1 4.5
v 3 1 1.5
v 3 1 -8.5
v 3 1 -11.5
v 5 5 12.5
v 5 5 11.5
v 5 6 12.5
v 5 6 11.5
v -5 5 12.5
v -5 5 11.5
v -5 6 12.5
v -5 6 11.5
v -3 0 11.5
v -3 0 8.5
v -3 0 4.5
v -3 0 1.5
v -3 0 -8.5
v -3 0 -11.5
v -3 1 11.5
v -3 1 8.5
v -3 1 4.5
v -3 1 1.5
v -3 1 -8.5
v -3 1 -11.5
v 2 4 7.5
v 2 4 6.5
v 2 5 7.5
v 2 5 6.5
v 3 8 10.5
v 3 8 7.5
v 3 9 10.5
v 3 9 9.5
v 3 10 9.5
v 3 10 7.5
v 4 0 11.5
v 4 0 8.5
v 4 0 4.5
v 4 0 1.5
v 4 0 -8.5
v 4 0 -11.5
v 4 1 13.5
v 4 1 11.5
v 4 1 10.5
v 4 1 9.5
v 4 1 8.5
v 4 1 7.5
v 4 1 6.5
v 4 1 4.5
v 4 1 3.5
v 4 1 2.5
v 4 1 1.5
v 4 1 -8.5
v 4 1 -9.5
v 4 1 -10.5
v 4 1 -11.5
v 4 1 -12.5
v 4 2 10.5
v 4 2 9.5
v 4 2 6.5
v 4 2 4.5
v 4 2 3.5
v 4 2 2.5
v 4 2 1.5
v 4 2 -8.5
v 4 2 -9.5
v 4 2 -10.5
v 4 2 -11.5
v 4 2 -12.5
v 4 3 11.5
v 4 3 8.5
v 4 4 12.5
v 4 4 11.5
v 4 5 13.5
v 4 5 12.5
v 4 5 11.5
v 4 5 10.5
v 4 7 13.5
v 4 7 10.5
v 4 8 13.5
v 4 8 7.5
v 5 2 6.5
v 5 2 -13.5
v 5 3 6.5
v 5 3 -12.5
v 5 9 6.5
v 5 9 -12.5
v 5 10 6.5
v 5 10 -13.5
v 6 4 12.5
v 6 4 11.5
v 6 6 12.5
v 6 6 11.5
v -4 1 13.5
v -4 5 13.5
v -4 7 13.5
v -4 8 13.5
v 4 1 13.5
v 4 5 13.5
v 4 7 13.5
v 4 8 13.5
v -6 4 12.5
v -6 6 12.5
v -5 5 12.5
v -5 6 12.5
v -4 4 12.5
v -4 5 12.5
v 4 4 12.5
v 4 5 12.5
v 5 5 12.5
v 5 6 12.5
v 6 4 12.5
v 6 6 12.5
v -4 0 11.5
v -4 1 11.5
v -3 0 11.5
v -3 1 11.5
v 3 0 11.5
v 3 1 11.5
v 4 0 11.5
v 4 1 11.5
v -3 8 10.5
v -3 9 10.5
v 3 8 10.5
v 3 9 10.5
v -3 9 9.5
v -3 10 9.5
v 3 9 9.5
v 3 10 9.5
v -5 2 6.5
v -5 3 6.5
v -5 9 6.5
v -5 10 6.5
v -4 1 6.5
v -4 2 6.5
v -4 3 6.5
v -1 4 6.5
v -1 5 6.5
v 2 4 6.5
v 2 5 6.5
v 4 1 6.5
v 4 2 6.5
v 4 3 6.5
v 5 2 6.5
v 5 3 6.5
v 5 9 6.5
v 5 10 6.5
v -4 0 4.5
v -4 1 4.5
v -3 0 4.5
v -3 1 4.5
v 3 0 4.5
v 3 1 4.5
v 4 0 4.5
v 4 1 4.5
v -4 0 -8.5
v -4 1 -8.5
v -3 0 -8.5
v -3 1 -8.5
v 3 0 -8.5
v 3 1 -8.5
v 4 0 -8.5
v 4 1 -8.5
v -6 4 11.5
v -6 6 11.5
v -5 5 11.5
v -5 6 11.5
v -4 4 11.5
v -4 5 11.5
v 4 4 11.5
v 4 5 11.5
v 5 5 11.5
v 5 6 11.5
v 6 4 11.5
v 6 6 11.5
v -4 0 8.5
v -4 1 8.5
v -3 0 8.5
v -3 1 8.5
v 3 0 8.5
v 3 1 8.5
v 4 0 8.5
v 4 1 8.5
v -4 1 7.5
v -4 8 7.5
v -3 8 7.5
v -3 10 7.5
v -1 4 7.5
v -1 5 7.5
v 2 4 7.5
v 2 5 7.5
v 3 8 7.5
v 3 10 7.5
v 4 1 7.5
v 4 8 7.5
v -4 0 1.5
v -4 1 1.5
v -3 0 1.5
v -3 1 1.5
v 3 0 1.5
v 3 1 1.5
v 4 0 1.5
v 4 1 1.5
v -4 0 -11.5
v -4 1 -11.5
v -3 0 -11.5
v -3 1 -11.5
v 3 0 -11.5
v 3 1 -11.5
v 4 0 -11.5
v 4 1 -11.5
v -4 1 -12.5
v -4 2 -12.5
v 4 1 -12.5
v 4 2 -12.5
v -5 2 -13.5
v -5 10 -13.5
v -4 3 -13.5
v -4 9 -13.5
v 4 3 -13.5
v 4 9 -13.5
v 5 2 -13.5
v 5 10 -13.5
v -4 0 11.5
v -3 0 11.5
v 3 0 11.5
v 4 0 11.5
v -4 0 8.5
v -3 0 8.5
v 3 0 8.5
v 4 0 8.5
v -4 0 4.5
v -3 0 4.5
v 3 0 4.5
v 4 0 4.5
v -4 0 1.5
v -3 0 1.5
v 3 0 1.5
v 4 0 1.5
v -4 0 -8.5
v -3 0 -8.5
v 3 0 -8.5
v 4 0 -8.5
v -4 0 -11.5
v -3 0 -11.5
v 3 0 -11.5
v 4 0 -11.5
v -4 1 13.5
v 4 1 13.5
v -4 1 11.5
v -3 1 11.5
v 3 1 11.5
v 4 1 11.5
v -4 1 8.5
v -3 1 8.5
v 3 1 8.5
v 4 1 8.5
v -4 1 7.5
v 4 1 7.5
v -4 1 6.5
v 4 1 6.5
v -4 1 4.5
v -3 1 4.5
v 3 1 4.5
v 4 1 4.5
v -4 1 1.5
v -3 1 1.5
v 3 1 1.5
v 4 1 1.5
v -4 1 -8.5
v -3 1 -8.5
v 3 1 -8.5
v 4 1 -8.5
v -4 1 -11.5
v -3 1 -11.5
v 3 1 -11.5
v 4 1 -11.5
v -4 1 -12.5
v 4 1 -12.5
v -5 2 6.5
v -4 2 6.5
v 4 2 6.5
v 5 2 6.5
v -4 2 4.5
v 4 2 4.5
v -4 2 3.5
v 4 2 3.5
v -4 2 2.5
v 4 2 2.5
v -4 2 1.5
v 4 2 1.5
v -4 2 -8.5
v 4 2 -8.5
v -4 2 -9.5
v 4 2 -9.5
v -4 2 -10.5
v 4 2 -10.5
v -4 2 -11.5
v 4 2 -11.5
v -4 2 -12.5
v 4 2 -12.5
v -5 2 -13.5
v 5 2 -13.5
v -6 4 12.5
v -4 4 12.5
v 4 4 12.5
v 6 4 12.5
v -6 4 11.5
v -4 4 11.5
v 4 4 11.5
v 6 4 11.5
v -1 4 7.5
v 2 4 7.5
v -1 4 6.5
v 2 4 6.5
v -5 5 12.5
v -4 5 12.5
v 4 5 12.5
v 5 5 12.5
v -5 5 11.5
v -4 5 11.5
v 4 5 11.5
v 5 5 11.5
v -1 5 7.5
v 2 5 7.5
v -1 5 6.5
v 2 5 6.5
v -6 6 12.5
v -5 6 12.5
v 5 6 12.5
v 6 6 12.5
v -6 6 11.5
v -5 6 11.5
v 5 6 11.5
v 6 6 11.5
v -4 8 13.5
v 4 8 13.5
v -3 8 10.5
v 3 8 10.5
v -4 8 7.5
v -3 8 7.5
v 3 8 7.5
v 4 8 7.5
v -3 9 10.5
v 3 9 10.5
v -3 9 9.5
v 3 9 9.5
v -3 10 9.5
v 3 10 9.5
v -3 10 7.5
v 3 10 7.5
v -5 10 6.5
v 5 10 6.5
v -4 10 5.5
v 4 10 5.5
v -4 10 -12.5
v 4 10 -12.5
v -5 10 -13.5
v 5 10 -13.5

# faces
f 3/3/1 2/3/1 1/3/1
f 4/3/1 2/3/1 3/3/1
f 7/1/1 6/1/1 5/1/1
f 8/1/1 6/1/1 7/1/1
f 9/4/1 8/4/1 7/4/1
f 10/1/1 6/1/1 8/1/1
f 10/4/1 8/4/1 9/4/1
f 11/1/1 10/1/1 9/1/1
f 12/1/1 6/1/1 10/1/1
f 12/1/1 10/1/1 11/1/1
f 20/5/1 14/5/1 13/5/1
f 21/5/1 14/5/1 20/5/1
f 22/5/1 14/5/1 21/5/1
f 23/5/1 14/5/1 22/5/1
f 26/5/1 16/5/1 15/5/1
f 27/5/1 16/5/1 26/5/1
f 28/5/1 16/5/1 27/5/1
f 29/5/1 16/5/1 28/5/1
f 30/5/1 18/5/1 17/5/1
f 31/5/1 18/5/1 30/5/1
f 32/5/1 18/5/1 31/5/1
f 33/5/1 18/5/1 32/5/1
f 35/5/1 21/5/1 20/5/1
f 35/4/1 22/4/1 21/4/1
f 36/5/1 23/5/1 22/5/1
f 36/4/1 22/4/1 35/4/1
f 37/2/1 26/2/1 25/2/1
f 38/5/1 27/5/1 26/5/1
f 38/2/1 26/2/1 37/2/1
f 39/4/1 28/4/1 27/4/1
f 39/5/1 27/5/1 38/5/1
f 40/5/1 29/5/1 28/5/1
f 40/4/1 28/4/1 39/4/1
f 41/2/1 30/2/1 29/2/1
f 41/5/1 29/5/1 40/5/1
f 42/5/1 31/5/1 30/5/1
f 42/2/1 30/2/1 41/2/1
f 43/4/1 32/4/1 31/4/1
f 43/5/1 31/5/1 42/5/1
f 44/5/1 33/5/1 32/5/1
f 44/4/1 32/4/1 43/4/1
f 45/2/1 34/2/1 33/2/1
f 45/5/1 33/5/1 44/5/1
f 46/2/1 34/2/1 45/2/1
f 47/3/1 20/3/1 19/3/1
f 47/5/1 36/5/1 35/5/1
f 47/5/1 35/5/1 20/5/1
f 48/3/1 24/3/1 23/3/1
f 48/5/1 36/5/1 47/5/1
f 48/5/1 23/5/1 36/5/1
f 49/3/1 47/3/1 19/3/1
f 49/3/1 48/3/1 47/3/1
f 50/3/1 48/3/1 49/3/1
f 51/3/1 49/3/1 19/3/1
f 52/3/1 49/3/1 51/3/1
f 53/3/1 48/3/1 50/3/1
f 54/3/1 48/3/1 53/3/1
f 55/5/1 52/5/1 51/5/1
f 55/5/1 53/5/1 52/5/1
f 55/5/1 54/5/1 53/5/1
f 56/3/1 48/3/1 54/3/1
f 56/5/1 54/5/1 55/5/1
f 57/3/1 56/3/1 55/3/1
f 58/3/1 24/3/1 48/3/1
f 58/3/1 56/3/1 57/3/1
f 58/3/1 48/3/1 56/3/1
f 61/4/1 60/4/1 59/4/1
f 62/4/1 60/4/1 61/4/1
f 63/4/1 60/4/1 62/4/1
f 64/4/1 60/4/1 63/4/1
f 67/4/1 66/4/1 65/4/1
f 68/4/1 66/4/1 67/4/1
f 75/5/1 70/5/1 69/5/1
f 76/5/1 70/5/1 75/5/1
f 77/5/1 72/5/1 71/5/1
f 78/5/1 72/5/1 77/5/1
f 79/5/1 74/5/1 73/5/1
f 80/5/1 74/5/1 79/5/1
f 83/3/1 82/3/1 81/3/1
f 84/3/1 82/3/1 83/3/1
f 85/3/2 86/3/2 87/3/2
f 87/3/2 86/3/2 88/3/2
f 89/5/2 90/5/2 95/5/2
f 95/5/2 90/5/2 96/5/2
f 91/5/2 92/5/2 97/5/2
f 97/5/2 92/5/2 98/5/2
f 93/5/2 94/5/2 99/5/2
f 99/5/2 94/5/2 100/5/2
f 101/4/2 102/4/2 103/4/2
f 103/4/2 102/4/2 104/4/2
f 105/4/2 106/4/2 107/4/2
f 107/4/2 106/4/2 108/4/2
f 108/4/2 106/4/2 109/4/2
f 109/4/2 106/4/2 110/4/2
f 111/5/2 112/5/2 118/5/2
f 118/5/2 112/5/2 119/5/2
f 119/5/2 112/5/2 120/5/2
f 120/5/2 112/5/2 121/5/2
f 113/5/2 114/5/2 124/5/2
f 124/5/2 114/5/2 125/5/2
f 125/5/2 114/5/2 126/5/2
f 126/5/2 114/5/2 127/5/2
f 115/5/2 116/5/2 128/5/2
f 128/5/2 116/5/2 129/5/2
f 129/5/2 116/5/2 130/5/2
f 130/5/2 116/5/2 131/5/2
f 118/5/2 119/5/2 133/5/2
f 119/4/2 120/4/2 133/4/2
f 120/5/2 121/5/2 134/5/2
f 133/4/2 120/4/2 134/4/2
f 123/2/2 124/2/2 135/2/2
f 124/5/2 125/5/2 136/5/2
f 135/2/2 124/2/2 136/2/2
f 125/4/2 126/4/2 137/4/2
f 136/5/2 125/5/2 137/5/2
f 126/5/2 127/5/2 138/5/2
f 137/4/2 126/4/2 138/4/2
f 127/2/2 128/2/2 139/2/2
f 138/5/2 127/5/2 139/5/2
f 128/5/2 129/5/2 140/5/2
f 139/2/2 128/2/2 140/2/2
f 129/4/2 130/4/2 141/4/2
f 140/5/2 129/5/2 141/5/2
f 130/5/2 131/5/2 142/5/2
f 141/4/2 130/4/2 142/4/2
f 131/2/2 132/2/2 143/2/2
f 142/5/2 131/5/2 143/5/2
f 143/2/2 132/2/2 144/2/2
f 117/3/2 118/3/2 145/3/2
f 133/5/2 134/5/2 145/5/2
f 118/5/2 133/5/2 145/5/2
f 121/3/2 122/3/2 146/3/2
f 145/5/2 134/5/2 146/5/2
f 134/5/2 121/5/2 146/5/2
f 117/3/2 145/3/2 147/3/2
f 145/3/2 146/3/2 147/3/2
f 147/3/2 146/3/2 148/3/2
f 117/3/2 147/3/2 149/3/2
f 149/3/2 147/3/2 150/3/2
f 148/3/2 146/3/2 151/3/2
f 151/3/2 146/3/2 152/3/2
f 149/5/2 150/5/2 153/5/2
f 150/5/2 151/5/2 153/5/2
f 151/5/2 152/5/2 153/5/2
f 152/3/2 146/3/2 154/3/2
f 153/5/2 152/5/2 154/5/2
f 153/3/2 154/3/2 155/3/2
f 146/3/2 122/3/2 156/3/2
f 155/3/2 154/3/2 156/3/2
f 154/3/2 146/3/2 156/3/2
f 157/1/2 158/1/2 159/1/2
f 159/1/2 158/1/2 160/1/2
f 159/4/2 160/4/2 161/4/2
f 160/1/2 158/1/2 162/1/2
f 161/4/2 160/4/2 162/4/2
f 161/1/2 162/1/2 163/1/2
f 162/1/2 158/1/2 164/1/2
f 163/1/2 162/1/2 164/1/2
f 165/3/2 166/3/2 167/3/2
f 167/3/2 166/3/2 168/3/2
f 173/3/3 170/3/3 169/3/3
f 174/5/3 171/5/3 170/5/3
f 174/3/3 170/3/3 173/3/3
f 175/3/3 172/3/3 171/3/3
f 175/5/3 171/5/3 174/5/3
f 176/3/3 172/3/3 175/3/3
f 179/3/3 178/3/3 177/3/3
f 180/3/3 178/3/3 179/3/3
f 181/3/3 179/3/3 177/3/3
f 182/3/3 179/3/3 181/3/3
f 185/3/3 184/3/3 183/3/3
f 187/3/3 185/3/3 183/3/3
f 187/3/3 186/3/3 185/3/3
f 188/3/3 186/3/3 187/3/3
f 191/5/3 190/5/3 189/5/3
f 192/5/3 190/5/3 191/5/3
f 195/5/3 194/5/3 193/5/3
f 196/5/3 194/5/3 195/5/3
f 199/4/3 198/4/3 197/4/3
f 200/4/3 198/4/3 199/4/3
f 203/4/3 202/4/3 201/4/3
f 204/4/3 202/4/3 203/4/3
f 210/1/3 206/1/3 205/1/3
f 211/4/3 207/4/3 206/4/3
f 211/1/3 206/1/3 210/1/3
f 212/4/3 211/4/3 210/4/3
f 212/4/3 207/4/3 211/4/3
f 213/4/3 207/4/3 212/4/3
f 214/4/3 212/4/3 210/4/3
f 215/4/3 207/4/3 213/4/3
f 216/2/3 210/2/3 209/2/3
f 217/4/3 215/4/3 214/4/3
f 217/2/3 210/2/3 216/2/3
f 217/4/3 214/4/3 210/4/3
f 218/4/3 215/4/3 217/4/3
f 219/1/3 218/1/3 217/1/3
f 220/4/3 215/4/3 218/4/3
f 220/1/3 218/1/3 219/1/3
f 221/1/3 208/1/3 207/1/3
f 221/4/3 215/4/3 220/4/3
f 221/4/3 207/4/3 215/4/3
f 222/1/3 208/1/3 221/1/3
f 225/5/3 224/5/3 223/5/3
f 226/5/3 224/5/3 225/5/3
f 229/5/3 228/5/3 227/5/3
f 230/5/3 228/5/3 229/5/3
f 233/5/3 232/5/3 231/5/3
f 234/5/3 232/5/3 233/5/3
f 237/5/3 236/5/3 235/5/3
f 238/5/3 236/5/3 237/5/3
f 239/3/4 240/3/4 241/3/4
f 241/3/4 240/3/4 242/3/4
f 239/3/4 241/3/4 243/3/4
f 243/3/4 241/3/4 244/3/4
f 245/3/4 246/3/4 247/3/4
f 245/3/4 247/3/4 249/3/4
f 247/3/4 248/3/4 249/3/4
f 249/3/4 248/3/4 250/3/4
f 251/5/4 252/5/4 253/5/4
f 253/5/4 252/5/4 254/5/4
f 255/5/4 256/5/4 257/5/4
f 257/5/4 256/5/4 258/5/4
f 259/3/4 260/3/4 261/3/4
f 259/3/4 261/3/4 263/3/4
f 263/3/4 261/3/4 264/3/4
f 259/3/4 263/3/4 265/3/4
f 264/3/4 261/3/4 266/3/4
f 261/4/4 262/4/4 267/4/4
f 265/3/4 266/3/4 267/3/4
f 266/3/4 261/3/4 267/3/4
f 267/4/4 262/4/4 268/4/4
f 259/3/4 265/3/4 269/3/4
f 265/3/4 267/3/4 269/3/4
f 269/3/4 267/3/4 270/3/4
f 271/5/4 272/5/4 273/5/4
f 273/5/4 272/5/4 274/5/4
f 275/5/4 276/5/4 277/5/4
f 277/5/4 276/5/4 278/5/4
f 279/5/4 280/5/4 281/5/4
f 281/5/4 280/5/4 282/5/4
f 283/5/4 284/5/4 285/5/4
f 285/5/4 284/5/4 286/5/4
f 287/2/4 288/2/4 289/2/4
f 289/2/4 288/2/4 290/2/4
f 291/1/4 292/1/4 293/1/4
f 293/1/4 292/1/4 294/1/4
f 291/1/4 293/1/4 295/1/4
f 293/4/4 294/4/4 295/4/4
f 294/1/4 292/1/4 296/1/4
f 295/4/4 294/4/4 296/4/4
f 291/1/4 295/1/4 297/1/4
f 295/1/4 296/1/4 297/1/4
f 296/1/4 292/1/4 298/1/4
f 297/1/4 296/1/4 298/1/4
f 303/5/5 300/5/5 299/5/5
f 304/5/5 300/5/5 303/5/5
f 305/5/5 302/5/5 301/5/5
f 306/5/5 302/5/5 305/5/5
f 311/5/5 308/5/5 307/5/5
f 312/5/5 308/5/5 311/5/5
f 313/5/5 310/5/5 309/5/5
f 314/5/5 310/5/5 313/5/5
f 319/5/5 316/5/5 315/5/5
f 320/5/5 316/5/5 319/5/5
f 321/5/5 318/5/5 317/5/5
f 322/5/5 318/5/5 321/5/5
f 325/3/5 324/3/5 323/3/5
f 326/3/5 324/3/5 325/3/5
f 327/3/5 324/3/5 326/3/5
f 328/3/5 324/3/5 327/3/5
f 330/3/5 327/3/5 326/3/5
f 331/3/5 327/3/5 330/3/5
f 333/3/5 330/3/5 329/3/5
f 333/3/5 332/3/5 331/3/5
f 333/3/5 331/3/5 330/3/5
f 334/3/5 332/3/5 333/3/5
f 337/2/5 336/2/5 335/2/5
f 338/2/5 336/2/5 337/2/5
f 339/2/5 336/2/5 338/2/5
f 340/2/5 336/2/5 339/2/5
f 342/2/5 339/2/5 338/2/5
f 343/2/5 339/2/5 342/2/5
f 345/2/5 342/2/5 341/2/5
f 345/2/5 344/2/5 343/2/5
f 345/2/5 343/2/5 342/2/5
f 346/2/5 344/2/5 345/2/5
f 347/2/5 344/2/5 346/2/5
f 348/2/5 344/2/5 347/2/5
f 350/2/5 347/2/5 346/2/5
f 351/2/5 347/2/5 350/2/5
f 353/2/5 350/2/5 349/2/5
f 353/2/5 352/2/5 351/2/5
f 353/2/5 351/2/5 350/2/5
f 354/2/5 352/2/5 353/2/5
f 359/1/5 356/1/5 355/1/5
f 360/1/5 358/1/5 357/1/5
f 361/1/5 359/1/5 355/1/5
f 362/1/5 358/1/5 360/1/5
f 363/1/5 361/1/5 355/1/5
f 364/1/5 358/1/5 362/1/5
f 365/1/5 363/1/5 355/1/5
f 366/1/5 358/1/5 364/1/5
f 367/1/5 365/1/5 355/1/5
f 368/1/5 358/1/5 366/1/5
f 369/1/5 367/1/5 355/1/5
f 370/1/5 358/1/5 368/1/5
f 371/1/5 369/1/5 355/1/5
f 372/1/5 358/1/5 370/1/5
f 373/1/5 371/1/5 355/1/5
f 374/1/5 358/1/5 372/1/5
f 375/1/5 373/1/5 355/1/5
f 376/1/5 358/1/5 374/1/5
f 377/1/5 375/1/5 355/1/5
f 377/1/5 376/1/5 375/1/5
f 378/1/5 358/1/5 376/1/5
f 378/1/5 376/1/5 377/1/5
f 383/3/5 380/3/5 379/3/5
f 384/3/5 380/3/5 383/3/5
f 385/3/5 382/3/5 381/3/5
f 386/3/5 382/3/5 385/3/5
f 389/4/5 388/4/5 387/4/5
f 390/4/5 388/4/5 389/4/5
f 391/3/6 392/3/6 395/3/6
f 395/3/6 392/3/6 396/3/6
f 393/3/6 394/3/6 397/3/6
f 397/3/6 394/3/6 398/3/6
f 399/4/6 400/4/6 401/4/6
f 401/4/6 400/4/6 402/4/6
f 403/3/6 404/3/6 407/3/6
f 407/3/6 404/3/6 408/3/6
f 405/3/6 406/3/6 409/3/6
f 409/3/6 406/3/6 410/3/6
f 411/3/6 412/3/6 413/3/6
f 413/3/6 412/3/6 414/3/6
f 411/3/6 413/3/6 415/3/6
f 415/3/6 413/3/6 416/3/6
f 414/3/6 412/3/6 417/3/6
f 417/3/6 412/3/6 418/3/6
f 419/4/6 420/4/6 421/4/6
f 421/4/6 420/4/6 422/4/6
f 423/4/6 424/4/6 425/4/6
f 425/4/6 424/4/6 426/4/6
f 427/1/6 428/1/6 429/1/6
f 429/1/6 428/1/6 430/1/6
f 427/1/6 429/1/6 431/1/6
f 429/4/6 430/4/6 431/4/6
f 430/1/6 428/1/6 432/1/6
f 431/4/6 430/4/6 432/4/6
f 427/1/6 431/1/6 433/1/6
f 431/1/6 432/1/6 433/1/6
f 432/1/6 428/1/6 434/1/6
f 433/1/6 432/1/6 434/1/6
