# MagicaVoxel @ Ephtracy

# material
mtllib FootBall.mtl
usemtl palette

# normals
vn -1 0 0
vn 1 0 0
vn 0 0 1
vn 0 0 -1
vn 0 -1 0
vn 0 1 0

# texcoords
vt 0.146484 0.5
vt 0.228516 0.5
vt 0.294922 0.5
vt 0.361328 0.5
vt 0.400391 0.5
vt 0.556641 0.5
vt 0.958984 0.5

# verts
v -5 11 2.5
v -5 11 -2.5
v -5 13 0.5
v -5 13 -2.5
v -5 18 2.5
v -5 18 0.5
v -4 5 3.5
v -4 5 -0.5
v -4 10 3.5
v -4 10 -0.5
v -3 0 2.5
v -3 0 -1.5
v -3 1 2.5
v -3 1 -1.5
v -3 2 2.5
v -3 2 0.5
v -3 2 -1.5
v -3 5 2.5
v -3 5 0.5
v -3 10 3.5
v -3 10 -0.5
v -3 11 2.5
v -3 11 -0.5
v -3 11 -2.5
v -3 11 -3.5
v -3 13 0.5
v -3 13 -0.5
v -3 13 -2.5
v -3 13 -3.5
v -3 18 3.5
v -3 18 2.5
v -3 18 0.5
v -3 18 -0.5
v -2 13 -0.5
v -2 13 -3.5
v -2 15 -0.5
v -2 15 -3.5
v -2 18 3.5
v -2 18 -0.5
v -2 21 3.5
v -2 21 -0.5
v -2 22 3.5
v -2 22 -0.5
v 1 0 2.5
v 1 0 -1.5
v 1 1 2.5
v 1 1 -1.5
v 1 2 2.5
v 1 2 0.5
v 1 2 -1.5
v 1 5 3.5
v 1 5 2.5
v 1 5 0.5
v 1 5 -0.5
v 1 8 3.5
v 1 8 -0.5
v -1 0 2.5
v -1 0 -1.5
v -1 1 2.5
v -1 1 -1.5
v -1 2 2.5
v -1 2 0.5
v -1 2 -1.5
v -1 5 3.5
v -1 5 2.5
v -1 5 0.5
v -1 5 -0.5
v -1 8 3.5
v -1 8 -0.5
v 2 13 -0.5
v 2 13 -3.5
v 2 15 -0.5
v 2 15 -3.5
v 2 18 3.5
v 2 18 -0.5
v 2 21 3.5
v 2 21 -0.5
v 2 22 3.5
v 2 22 -0.5
v 3 0 2.5
v 3 0 -1.5
v 3 1 2.5
v 3 1 -1.5
v 3 2 2.5
v 3 2 0.5
v 3 2 -1.5
v 3 5 2.5
v 3 5 0.5
v 3 10 3.5
v 3 10 -0.5
v 3 11 2.5
v 3 11 -0.5
v 3 11 -2.5
v 3 11 -3.5
v 3 13 0.5
v 3 13 -0.5
v 3 13 -2.5
v 3 13 -3.5
v 3 18 3.5
v 3 18 2.5
v 3 18 0.5
v 3 18 -0.5
v 4 5 3.5
v 4 5 -0.5
v 4 10 3.5
v 4 10 -0.5
v 5 11 2.5
v 5 11 -2.5
v 5 13 0.5
v 5 13 -2.5
v 5 18 2.5
v 5 18 0.5
v -4 5 3.5
v -4 10 3.5
v -3 10 3.5
v -3 18 3.5
v -2 17 3.5
v -2 18 3.5
v -2 21 3.5
v -2 22 3.5
v -1 5 3.5
v -1 8 3.5
v 1 5 3.5
v 1 8 3.5
v 2 17 3.5
v 2 18 3.5
v 2 21 3.5
v 2 22 3.5
v 3 10 3.5
v 3 18 3.5
v 4 5 3.5
v 4 10 3.5
v -5 11 2.5
v -5 18 2.5
v -3 0 2.5
v -3 1 2.5
v -3 2 2.5
v -3 5 2.5
v -3 11 2.5
v -3 18 2.5
v -1 0 2.5
v -1 1 2.5
v -1 2 2.5
v -1 5 2.5
v 1 0 2.5
v 1 1 2.5
v 1 2 2.5
v 1 5 2.5
v 3 0 2.5
v 3 1 2.5
v 3 2 2.5
v 3 5 2.5
v 3 11 2.5
v 3 18 2.5
v 5 11 2.5
v 5 18 2.5
v -5 13 0.5
v -5 18 0.5
v -3 2 0.5
v -3 5 0.5
v -3 13 0.5
v -3 18 0.5
v -1 2 0.5
v -1 5 0.5
v 1 2 0.5
v 1 5 0.5
v 3 2 0.5
v 3 5 0.5
v 3 13 0.5
v 3 18 0.5
v 5 13 0.5
v 5 18 0.5
v -4 5 -0.5
v -4 10 -0.5
v -3 10 -0.5
v -3 11 -0.5
v -3 13 -0.5
v -3 18 -0.5
v -2 11 -0.5
v -2 13 -0.5
v -2 15 -0.5
v -2 17 -0.5
v -2 18 -0.5
v -2 21 -0.5
v -2 22 -0.5
v -1 5 -0.5
v -1 8 -0.5
v 1 5 -0.5
v 1 8 -0.5
v 2 11 -0.5
v 2 13 -0.5
v 2 15 -0.5
v 2 17 -0.5
v 2 18 -0.5
v 2 21 -0.5
v 2 22 -0.5
v 3 10 -0.5
v 3 11 -0.5
v 3 13 -0.5
v 3 18 -0.5
v 4 5 -0.5
v 4 10 -0.5
v -3 0 -1.5
v -3 1 -1.5
v -3 2 -1.5
v -1 0 -1.5
v -1 1 -1.5
v -1 2 -1.5
v 1 0 -1.5
v 1 1 -1.5
v 1 2 -1.5
v 3 0 -1.5
v 3 1 -1.5
v 3 2 -1.5
v -5 11 -2.5
v -5 13 -2.5
v -3 11 -2.5
v -3 13 -2.5
v 3 11 -2.5
v 3 13 -2.5
v 5 11 -2.5
v 5 13 -2.5
v -3 11 -3.5
v -3 13 -3.5
v -2 11 -3.5
v -2 13 -3.5
v -2 15 -3.5
v 2 11 -3.5
v 2 13 -3.5
v 2 15 -3.5
v 3 11 -3.5
v 3 13 -3.5
v -3 0 2.5
v -1 0 2.5
v 1 0 2.5
v 3 0 2.5
v -3 0 -1.5
v -1 0 -1.5
v 1 0 -1.5
v 3 0 -1.5
v -4 5 3.5
v -1 5 3.5
v 1 5 3.5
v 4 5 3.5
v -3 5 2.5
v -1 5 2.5
v 1 5 2.5
v 3 5 2.5
v -3 5 0.5
v -1 5 0.5
v 1 5 0.5
v 3 5 0.5
v -4 5 -0.5
v -1 5 -0.5
v 1 5 -0.5
v 4 5 -0.5
v -1 8 3.5
v 1 8 3.5
v -1 8 -0.5
v 1 8 -0.5
v -5 11 2.5
v -3 11 2.5
v 3 11 2.5
v 5 11 2.5
v -3 11 -0.5
v -2 11 -0.5
v 2 11 -0.5
v 3 11 -0.5
v -5 11 -2.5
v -3 11 -2.5
v 3 11 -2.5
v 5 11 -2.5
v -3 11 -3.5
v -2 11 -3.5
v 2 11 -3.5
v 3 11 -3.5
v -3 2 0.5
v -1 2 0.5
v 1 2 0.5
v 3 2 0.5
v -3 2 -1.5
v -1 2 -1.5
v 1 2 -1.5
v 3 2 -1.5
v -4 10 3.5
v -3 10 3.5
v 3 10 3.5
v 4 10 3.5
v -4 10 -0.5
v -3 10 -0.5
v 3 10 -0.5
v 4 10 -0.5
v -5 13 0.5
v -3 13 0.5
v 3 13 0.5
v 5 13 0.5
v -3 13 -0.5
v -2 13 -0.5
v 2 13 -0.5
v 3 13 -0.5
v -5 13 -2.5
v -3 13 -2.5
v 3 13 -2.5
v 5 13 -2.5
v -3 13 -3.5
v -2 13 -3.5
v 2 13 -3.5
v 3 13 -3.5
v -2 15 -0.5
v 2 15 -0.5
v -2 15 -3.5
v 2 15 -3.5
v -3 18 3.5
v -2 18 3.5
v 2 18 3.5
v 3 18 3.5
v -5 18 2.5
v -3 18 2.5
v 3 18 2.5
v 5 18 2.5
v -5 18 0.5
v -3 18 0.5
v 3 18 0.5
v 5 18 0.5
v -3 18 -0.5
v -2 18 -0.5
v 2 18 -0.5
v 3 18 -0.5
v -2 22 3.5
v 2 22 3.5
v -2 22 -0.5
v 2 22 -0.5

# faces
f 3/3/1 2/3/1 1/3/1
f 4/3/1 2/3/1 3/3/1
f 5/3/1 3/3/1 1/3/1
f 6/3/1 3/3/1 5/3/1
f 9/6/1 8/6/1 7/6/1
f 10/6/1 8/6/1 9/6/1
f 13/7/1 12/7/1 11/7/1
f 14/7/1 12/7/1 13/7/1
f 15/5/1 14/5/1 13/5/1
f 16/5/1 14/5/1 15/5/1
f 17/5/1 14/5/1 16/5/1
f 18/3/1 16/3/1 15/3/1
f 19/3/1 16/3/1 18/3/1
f 22/2/1 21/2/1 20/2/1
f 23/2/1 21/2/1 22/2/1
f 28/3/1 25/3/1 24/3/1
f 29/3/1 25/3/1 28/3/1
f 30/2/1 22/2/1 20/2/1
f 31/2/1 22/2/1 30/2/1
f 32/2/1 27/2/1 26/2/1
f 33/2/1 27/2/1 32/2/1
f 36/4/1 35/4/1 34/4/1
f 37/4/1 35/4/1 36/4/1
f 40/3/1 39/3/1 38/3/1
f 41/3/1 39/3/1 40/3/1
f 42/1/1 41/1/1 40/1/1
f 43/1/1 41/1/1 42/1/1
f 46/7/1 45/7/1 44/7/1
f 47/7/1 45/7/1 46/7/1
f 48/5/1 47/5/1 46/5/1
f 49/5/1 47/5/1 48/5/1
f 50/5/1 47/5/1 49/5/1
f 52/3/1 49/3/1 48/3/1
f 53/3/1 49/3/1 52/3/1
f 55/6/1 52/6/1 51/6/1
f 55/6/1 54/6/1 53/6/1
f 55/6/1 53/6/1 52/6/1
f 56/6/1 54/6/1 55/6/1
f 57/7/2 58/7/2 59/7/2
f 59/7/2 58/7/2 60/7/2
f 59/5/2 60/5/2 61/5/2
f 61/5/2 60/5/2 62/5/2
f 62/5/2 60/5/2 63/5/2
f 61/3/2 62/3/2 65/3/2
f 65/3/2 62/3/2 66/3/2
f 64/6/2 65/6/2 68/6/2
f 66/6/2 67/6/2 68/6/2
f 65/6/2 66/6/2 68/6/2
f 68/6/2 67/6/2 69/6/2
f 70/4/2 71/4/2 72/4/2
f 72/4/2 71/4/2 73/4/2
f 74/3/2 75/3/2 76/3/2
f 76/3/2 75/3/2 77/3/2
f 76/1/2 77/1/2 78/1/2
f 78/1/2 77/1/2 79/1/2
f 80/7/2 81/7/2 82/7/2
f 82/7/2 81/7/2 83/7/2
f 82/5/2 83/5/2 84/5/2
f 84/5/2 83/5/2 85/5/2
f 85/5/2 83/5/2 86/5/2
f 84/3/2 85/3/2 87/3/2
f 87/3/2 85/3/2 88/3/2
f 89/2/2 90/2/2 91/2/2
f 91/2/2 90/2/2 92/2/2
f 93/3/2 94/3/2 97/3/2
f 97/3/2 94/3/2 98/3/2
f 89/2/2 91/2/2 99/2/2
f 99/2/2 91/2/2 100/2/2
f 95/2/2 96/2/2 101/2/2
f 101/2/2 96/2/2 102/2/2
f 103/6/2 104/6/2 105/6/2
f 105/6/2 104/6/2 106/6/2
f 107/3/2 108/3/2 109/3/2
f 109/3/2 108/3/2 110/3/2
f 107/3/2 109/3/2 111/3/2
f 111/3/2 109/3/2 112/3/2
f 115/6/3 114/6/3 113/6/3
f 117/2/3 116/2/3 115/2/3
f 118/2/3 116/2/3 117/2/3
f 121/6/3 115/6/3 113/6/3
f 122/6/3 115/6/3 121/6/3
f 124/6/3 115/6/3 122/6/3
f 125/2/3 117/2/3 115/2/3
f 125/3/3 118/3/3 117/3/3
f 125/3/3 119/3/3 118/3/3
f 126/3/3 119/3/3 125/3/3
f 127/1/3 120/1/3 119/1/3
f 127/3/3 119/3/3 126/3/3
f 128/1/3 120/1/3 127/1/3
f 129/2/3 126/2/3 125/2/3
f 129/6/3 124/6/3 123/6/3
f 129/2/3 125/2/3 115/2/3
f 129/6/3 115/6/3 124/6/3
f 130/2/3 126/2/3 129/2/3
f 131/6/3 129/6/3 123/6/3
f 132/6/3 129/6/3 131/6/3
f 139/3/3 134/3/3 133/3/3
f 140/3/3 134/3/3 139/3/3
f 141/7/3 136/7/3 135/7/3
f 142/5/3 137/5/3 136/5/3
f 142/7/3 136/7/3 141/7/3
f 143/3/3 138/3/3 137/3/3
f 143/5/3 137/5/3 142/5/3
f 144/3/3 138/3/3 143/3/3
f 149/7/3 146/7/3 145/7/3
f 150/5/3 147/5/3 146/5/3
f 150/7/3 146/7/3 149/7/3
f 151/3/3 148/3/3 147/3/3
f 151/5/3 147/5/3 150/5/3
f 152/3/3 148/3/3 151/3/3
f 155/3/3 154/3/3 153/3/3
f 156/3/3 154/3/3 155/3/3
f 157/3/4 158/3/4 161/3/4
f 161/3/4 158/3/4 162/3/4
f 159/3/4 160/3/4 163/3/4
f 163/3/4 160/3/4 164/3/4
f 165/3/4 166/3/4 167/3/4
f 167/3/4 166/3/4 168/3/4
f 169/3/4 170/3/4 171/3/4
f 171/3/4 170/3/4 172/3/4
f 173/6/4 174/6/4 175/6/4
f 175/2/4 176/2/4 179/2/4
f 177/2/4 178/2/4 180/2/4
f 180/2/4 178/2/4 181/2/4
f 181/2/4 178/2/4 182/2/4
f 182/2/4 178/2/4 183/2/4
f 173/6/4 175/6/4 186/6/4
f 186/6/4 175/6/4 187/6/4
f 187/6/4 175/6/4 189/6/4
f 175/2/4 179/2/4 190/2/4
f 181/2/4 182/2/4 192/2/4
f 183/3/4 184/3/4 193/3/4
f 182/3/4 183/3/4 193/3/4
f 192/2/4 182/2/4 193/2/4
f 193/3/4 184/3/4 194/3/4
f 184/1/4 185/1/4 195/1/4
f 194/3/4 184/3/4 195/3/4
f 195/1/4 185/1/4 196/1/4
f 188/6/4 189/6/4 197/6/4
f 175/2/4 190/2/4 197/2/4
f 189/6/4 175/6/4 197/6/4
f 197/2/4 190/2/4 198/2/4
f 193/2/4 194/2/4 199/2/4
f 191/2/4 192/2/4 199/2/4
f 192/2/4 193/2/4 199/2/4
f 199/2/4 194/2/4 200/2/4
f 188/6/4 197/6/4 201/6/4
f 201/6/4 197/6/4 202/6/4
f 203/7/4 204/7/4 206/7/4
f 204/5/4 205/5/4 207/5/4
f 206/7/4 204/7/4 207/7/4
f 207/5/4 205/5/4 208/5/4
f 209/7/4 210/7/4 212/7/4
f 210/5/4 211/5/4 213/5/4
f 212/7/4 210/7/4 213/7/4
f 213/5/4 211/5/4 214/5/4
f 215/3/4 216/3/4 217/3/4
f 217/3/4 216/3/4 218/3/4
f 219/3/4 220/3/4 221/3/4
f 221/3/4 220/3/4 222/3/4
f 223/3/4 224/3/4 225/3/4
f 225/3/4 224/3/4 226/3/4
f 225/4/4 226/4/4 228/4/4
f 226/4/4 227/4/4 228/4/4
f 228/4/4 227/4/4 229/4/4
f 229/4/4 227/4/4 230/4/4
f 228/3/4 229/3/4 231/3/4
f 231/3/4 229/3/4 232/3/4
f 237/7/5 234/7/5 233/7/5
f 238/7/5 234/7/5 237/7/5
f 239/7/5 236/7/5 235/7/5
f 240/7/5 236/7/5 239/7/5
f 245/6/5 242/6/5 241/6/5
f 246/6/5 242/6/5 245/6/5
f 247/6/5 244/6/5 243/6/5
f 248/6/5 244/6/5 247/6/5
f 249/6/5 245/6/5 241/6/5
f 252/6/5 244/6/5 248/6/5
f 253/6/5 250/6/5 249/6/5
f 253/6/5 249/6/5 241/6/5
f 254/6/5 250/6/5 253/6/5
f 255/6/5 252/6/5 251/6/5
f 256/6/5 244/6/5 252/6/5
f 256/6/5 252/6/5 255/6/5
f 259/6/5 258/6/5 257/6/5
f 260/6/5 258/6/5 259/6/5
f 265/3/5 262/3/5 261/3/5
f 268/3/5 264/3/5 263/3/5
f 269/3/5 265/3/5 261/3/5
f 269/3/5 266/3/5 265/3/5
f 270/3/5 266/3/5 269/3/5
f 271/3/5 268/3/5 267/3/5
f 271/3/5 264/3/5 268/3/5
f 272/3/5 264/3/5 271/3/5
f 273/3/5 266/3/5 270/3/5
f 274/4/5 267/4/5 266/4/5
f 274/3/5 266/3/5 273/3/5
f 275/3/5 271/3/5 267/3/5
f 275/4/5 267/4/5 274/4/5
f 276/3/5 271/3/5 275/3/5
f 277/5/6 278/5/6 281/5/6
f 281/5/6 278/5/6 282/5/6
f 279/5/6 280/5/6 283/5/6
f 283/5/6 280/5/6 284/5/6
f 285/6/6 286/6/6 289/6/6
f 289/6/6 286/6/6 290/6/6
f 287/6/6 288/6/6 291/6/6
f 291/6/6 288/6/6 292/6/6
f 293/3/6 294/3/6 297/3/6
f 295/3/6 296/3/6 300/3/6
f 297/3/6 298/3/6 301/3/6
f 293/3/6 297/3/6 301/3/6
f 301/3/6 298/3/6 302/3/6
f 299/3/6 300/3/6 303/3/6
f 300/3/6 296/3/6 303/3/6
f 303/3/6 296/3/6 304/3/6
f 302/3/6 298/3/6 305/3/6
f 305/3/6 298/3/6 306/3/6
f 299/3/6 303/3/6 307/3/6
f 307/3/6 303/3/6 308/3/6
f 309/4/6 310/4/6 311/4/6
f 311/4/6 310/4/6 312/4/6
f 313/2/6 314/2/6 318/2/6
f 315/2/6 316/2/6 319/2/6
f 317/3/6 318/3/6 321/3/6
f 318/2/6 314/2/6 322/2/6
f 321/3/6 318/3/6 322/3/6
f 319/3/6 320/3/6 323/3/6
f 315/2/6 319/2/6 323/2/6
f 323/3/6 320/3/6 324/3/6
f 322/2/6 314/2/6 325/2/6
f 325/2/6 314/2/6 326/2/6
f 315/2/6 323/2/6 327/2/6
f 327/2/6 323/2/6 328/2/6
f 329/1/6 330/1/6 331/1/6
f 331/1/6 330/1/6 332/1/6
