# MagicaVoxel @ Ephtracy

# material
mtllib 1road-f.mtl
usemtl palette

# normals
vn -1 0 0
vn 1 0 0
vn 0 0 1
vn 0 0 -1
vn 0 -1 0
vn 0 1 0

# texcoords
vt 0.236328 0.5
vt 0.361328 0.5
vt 0.548828 0.5

# verts
v -4.5 0 54
v -4.5 0 -22
v -4.5 0 -42
v -4.5 0 -54
v -4.5 1 54
v -4.5 1 18
v -4.5 1 -18
v -4.5 1 -22
v -4.5 1 -42
v -4.5 1 -54
v -4.5 2 54
v -4.5 2 18
v -4.5 2 -18
v -4.5 2 -54
v 4.5 0 54
v 4.5 0 18
v 4.5 0 -22
v 4.5 0 -54
v 4.5 1 -18
v 4.5 1 -22
v 4.5 2 54
v 4.5 2 18
v 4.5 2 -18
v 4.5 2 -54
v -4.5 0 54
v -4.5 1 54
v -4.5 2 54
v 2.5 0 54
v 2.5 1 54
v 4.5 0 54
v 4.5 2 54
v -4.5 0 -54
v -4.5 1 -54
v -4.5 2 -54
v 2.5 0 -54
v 2.5 1 -54
v 4.5 0 -54
v 4.5 2 -54
v -4.5 0 54
v 2.5 0 54
v 4.5 0 54
v 2.5 0 18
v 3.5 0 18
v 4.5 0 18
v 2.5 0 14
v 3.5 0 14
v 2.5 0 9
v 3.5 0 9
v 2.5 0 5
v 3.5 0 5
v 2.5 0 -0
v 3.5 0 -0
v 2.5 0 -4
v 3.5 0 -4
v 2.5 0 -9
v 3.5 0 -9
v 2.5 0 -13
v 3.5 0 -13
v 2.5 0 -18
v 3.5 0 -18
v -4.5 0 -22
v 2.5 0 -22
v 3.5 0 -22
v 4.5 0 -22
v -4.5 0 -42
v 2.5 0 -42
v -4.5 0 -54
v 2.5 0 -54
v 4.5 0 -54
v -4.5 2 54
v 4.5 2 54
v -4.5 2 18
v 4.5 2 18
v -4.5 2 -18
v 4.5 2 -18
v -4.5 2 -54
v 4.5 2 -54

# faces
f 5/3/1 2/3/1 1/3/1
f 6/3/1 2/3/1 5/3/1
f 7/3/1 2/3/1 6/3/1
f 8/2/1 3/2/1 2/2/1
f 8/3/1 2/3/1 7/3/1
f 9/3/1 4/3/1 3/3/1
f 9/2/1 3/2/1 8/2/1
f 10/3/1 4/3/1 9/3/1
f 11/2/1 6/2/1 5/2/1
f 12/3/1 7/3/1 6/3/1
f 12/2/1 6/2/1 11/2/1
f 13/2/1 8/2/1 7/2/1
f 13/3/1 7/3/1 12/3/1
f 13/2/1 9/2/1 8/2/1
f 13/2/1 10/2/1 9/2/1
f 14/2/1 10/2/1 13/2/1
f 16/3/2 17/3/2 19/3/2
f 17/2/2 18/2/2 20/2/2
f 19/3/2 17/3/2 20/3/2
f 15/2/2 16/2/2 21/2/2
f 16/3/2 19/3/2 22/3/2
f 21/2/2 16/2/2 22/2/2
f 19/2/2 20/2/2 23/2/2
f 22/3/2 19/3/2 23/3/2
f 20/2/2 18/2/2 24/2/2
f 23/2/2 20/2/2 24/2/2
f 28/3/3 26/3/3 25/3/3
f 29/2/3 27/2/3 26/2/3
f 29/3/3 26/3/3 28/3/3
f 30/2/3 29/2/3 28/2/3
f 31/2/3 27/2/3 29/2/3
f 31/2/3 29/2/3 30/2/3
f 32/3/4 33/3/4 35/3/4
f 33/2/4 34/2/4 36/2/4
f 35/3/4 33/3/4 36/3/4
f 35/2/4 36/2/4 37/2/4
f 36/2/4 34/2/4 38/2/4
f 37/2/4 36/2/4 38/2/4
f 42/3/5 40/3/5 39/3/5
f 42/2/5 41/2/5 40/2/5
f 43/2/5 41/2/5 42/2/5
f 44/2/5 41/2/5 43/2/5
f 45/3/5 42/3/5 39/3/5
f 45/1/5 43/1/5 42/1/5
f 46/3/5 44/3/5 43/3/5
f 46/1/5 43/1/5 45/1/5
f 47/3/5 45/3/5 39/3/5
f 47/3/5 46/3/5 45/3/5
f 48/3/5 44/3/5 46/3/5
f 48/3/5 46/3/5 47/3/5
f 49/3/5 47/3/5 39/3/5
f 49/1/5 48/1/5 47/1/5
f 50/3/5 44/3/5 48/3/5
f 50/1/5 48/1/5 49/1/5
f 51/3/5 49/3/5 39/3/5
f 51/3/5 50/3/5 49/3/5
f 52/3/5 44/3/5 50/3/5
f 52/3/5 50/3/5 51/3/5
f 53/3/5 51/3/5 39/3/5
f 53/1/5 52/1/5 51/1/5
f 54/3/5 44/3/5 52/3/5
f 54/1/5 52/1/5 53/1/5
f 55/3/5 53/3/5 39/3/5
f 55/3/5 54/3/5 53/3/5
f 56/3/5 44/3/5 54/3/5
f 56/3/5 54/3/5 55/3/5
f 57/3/5 55/3/5 39/3/5
f 57/1/5 56/1/5 55/1/5
f 58/3/5 44/3/5 56/3/5
f 58/1/5 56/1/5 57/1/5
f 59/3/5 57/3/5 39/3/5
f 59/3/5 58/3/5 57/3/5
f 60/3/5 44/3/5 58/3/5
f 60/3/5 58/3/5 59/3/5
f 61/3/5 59/3/5 39/3/5
f 62/1/5 60/1/5 59/1/5
f 62/3/5 59/3/5 61/3/5
f 63/3/5 44/3/5 60/3/5
f 63/1/5 60/1/5 62/1/5
f 64/3/5 44/3/5 63/3/5
f 65/2/5 62/2/5 61/2/5
f 65/2/5 63/2/5 62/2/5
f 65/2/5 64/2/5 63/2/5
f 66/2/5 64/2/5 65/2/5
f 67/3/5 66/3/5 65/3/5
f 68/2/5 64/2/5 66/2/5
f 68/3/5 66/3/5 67/3/5
f 69/2/5 64/2/5 68/2/5
f 70/2/6 71/2/6 72/2/6
f 72/2/6 71/2/6 73/2/6
f 72/3/6 73/3/6 74/3/6
f 74/3/6 73/3/6 75/3/6
f 74/2/6 75/2/6 76/2/6
f 76/2/6 75/2/6 77/2/6
