# MagicaVoxel @ Ephtracy

# material
mtllib body.mtl
usemtl palette

# normals
vn -1 0 0
vn 1 0 0
vn 0 0 1
vn 0 0 -1
vn 0 -1 0
vn 0 1 0

# texcoords
vt 0.267578 0.5
vt 0.482422 0.5
vt 0.958984 0.5
vt 0.990234 0.5

# verts
v -9.5 3 1.5
v -9.5 3 -1.5
v -9.5 6 1.5
v -9.5 6 -1.5
v -8.5 1 1.5
v -8.5 1 0.5
v -8.5 1 -0.5
v -8.5 1 -1.5
v -8.5 2 1.5
v -8.5 2 0.5
v -8.5 2 -0.5
v -8.5 2 -1.5
v -5.5 1 0.5
v -5.5 1 -0.5
v -5.5 2 1.5
v -5.5 2 0.5
v -5.5 2 -0.5
v -5.5 2 -1.5
v -5.5 3 1.5
v -5.5 3 -1.5
v -5.5 4 1.5
v -5.5 4 -1.5
v -5.5 5 1.5
v -5.5 5 -1.5
v -2.5 4 2.5
v -2.5 4 1.5
v -2.5 4 -1.5
v -2.5 4 -2.5
v -2.5 5 1.5
v -2.5 5 -1.5
v -2.5 6 2.5
v -2.5 6 1.5
v -2.5 6 -1.5
v -2.5 6 -2.5
v 8.5 0 0.5
v 8.5 0 -0.5
v 8.5 1 0.5
v 8.5 1 -0.5
v -8.5 4 1.5
v -8.5 4 -1.5
v -8.5 6 1.5
v -8.5 6 -1.5
v 1.5 4 2.5
v 1.5 4 1.5
v 1.5 4 -1.5
v 1.5 4 -2.5
v 1.5 5 1.5
v 1.5 5 -1.5
v 1.5 6 2.5
v 1.5 6 1.5
v 1.5 6 -1.5
v 1.5 6 -2.5
v 7.5 1 1.5
v 7.5 1 0.5
v 7.5 1 -0.5
v 7.5 1 -1.5
v 7.5 3 0.5
v 7.5 3 -0.5
v 7.5 5 1.5
v 7.5 5 -1.5
v 9.5 0 0.5
v 9.5 0 -0.5
v 9.5 3 0.5
v 9.5 3 -0.5
v -2.5 4 2.5
v -2.5 6 2.5
v 1.5 4 2.5
v 1.5 6 2.5
v -9.5 3 1.5
v -9.5 6 1.5
v -8.5 1 1.5
v -8.5 2 1.5
v -8.5 4 1.5
v -8.5 6 1.5
v -5.5 1 1.5
v -5.5 2 1.5
v -5.5 3 1.5
v -5.5 4 1.5
v -5.5 5 1.5
v -2.5 4 1.5
v -2.5 5 1.5
v 1.5 4 1.5
v 1.5 5 1.5
v 4.5 1 1.5
v 4.5 5 1.5
v 5.5 3 1.5
v 5.5 4 1.5
v 6.5 3 1.5
v 6.5 4 1.5
v 7.5 1 1.5
v 7.5 5 1.5
v 7.5 1 0.5
v 7.5 3 0.5
v 8.5 0 0.5
v 8.5 1 0.5
v 9.5 0 0.5
v 9.5 3 0.5
v -8.5 1 -0.5
v -8.5 2 -0.5
v -5.5 1 -0.5
v -5.5 2 -0.5
v -2.5 5 -1.5
v -2.5 6 -1.5
v 1.5 5 -1.5
v 1.5 6 -1.5
v -2.5 5 1.5
v -2.5 6 1.5
v 1.5 5 1.5
v 1.5 6 1.5
v -8.5 1 0.5
v -8.5 2 0.5
v -5.5 1 0.5
v -5.5 2 0.5
v 7.5 1 -0.5
v 7.5 3 -0.5
v 8.5 0 -0.5
v 8.5 1 -0.5
v 9.5 0 -0.5
v 9.5 3 -0.5
v -9.5 3 -1.5
v -9.5 6 -1.5
v -8.5 1 -1.5
v -8.5 2 -1.5
v -8.5 4 -1.5
v -8.5 6 -1.5
v -5.5 1 -1.5
v -5.5 2 -1.5
v -5.5 3 -1.5
v -5.5 4 -1.5
v -5.5 5 -1.5
v -2.5 4 -1.5
v -2.5 5 -1.5
v 1.5 4 -1.5
v 1.5 5 -1.5
v 4.5 1 -1.5
v 4.5 5 -1.5
v 5.5 3 -1.5
v 5.5 4 -1.5
v 6.5 3 -1.5
v 6.5 4 -1.5
v 7.5 1 -1.5
v 7.5 5 -1.5
v -2.5 4 -2.5
v -2.5 6 -2.5
v 1.5 4 -2.5
v 1.5 6 -2.5
v 8.5 0 0.5
v 9.5 0 0.5
v 8.5 0 -0.5
v 9.5 0 -0.5
v -8.5 1 1.5
v -5.5 1 1.5
v 4.5 1 1.5
v 7.5 1 1.5
v -8.5 1 0.5
v -5.5 1 0.5
v 7.5 1 0.5
v 8.5 1 0.5
v -8.5 1 -0.5
v -5.5 1 -0.5
v 7.5 1 -0.5
v 8.5 1 -0.5
v -8.5 1 -1.5
v -5.5 1 -1.5
v 4.5 1 -1.5
v 7.5 1 -1.5
v -9.5 3 1.5
v -5.5 3 1.5
v -9.5 3 -1.5
v -5.5 3 -1.5
v -2.5 4 2.5
v 1.5 4 2.5
v -2.5 4 1.5
v 1.5 4 1.5
v -2.5 4 -1.5
v 1.5 4 -1.5
v -2.5 4 -2.5
v 1.5 4 -2.5
v -8.5 2 1.5
v -5.5 2 1.5
v -8.5 2 0.5
v -5.5 2 0.5
v -8.5 2 -0.5
v -5.5 2 -0.5
v -8.5 2 -1.5
v -5.5 2 -1.5
v 7.5 3 0.5
v 9.5 3 0.5
v 7.5 3 -0.5
v 9.5 3 -0.5
v -8.5 4 1.5
v -5.5 4 1.5
v -8.5 4 -1.5
v -5.5 4 -1.5
v -5.5 5 1.5
v -2.5 5 1.5
v 1.5 5 1.5
v 4.5 5 1.5
v 7.5 5 1.5
v -5.5 5 -1.5
v -2.5 5 -1.5
v 1.5 5 -1.5
v 4.5 5 -1.5
v 7.5 5 -1.5
v -2.5 6 2.5
v 1.5 6 2.5
v -9.5 6 1.5
v -8.5 6 1.5
v -2.5 6 1.5
v 1.5 6 1.5
v -9.5 6 -1.5
v -8.5 6 -1.5
v -2.5 6 -1.5
v 1.5 6 -1.5
v -2.5 6 -2.5
v 1.5 6 -2.5

# faces
f 3/3/1 2/3/1 1/3/1
f 4/3/1 2/3/1 3/3/1
f 9/1/1 6/1/1 5/1/1
f 10/1/1 6/1/1 9/1/1
f 11/1/1 8/1/1 7/1/1
f 12/1/1 8/1/1 11/1/1
f 16/2/1 14/2/1 13/2/1
f 17/2/1 14/2/1 16/2/1
f 19/2/1 16/2/1 15/2/1
f 19/2/1 18/2/1 17/2/1
f 19/2/1 17/2/1 16/2/1
f 20/2/1 18/2/1 19/2/1
f 23/2/1 22/2/1 21/2/1
f 24/2/1 22/2/1 23/2/1
f 29/2/1 26/2/1 25/2/1
f 30/2/1 28/2/1 27/2/1
f 31/2/1 29/2/1 25/2/1
f 32/2/1 29/2/1 31/2/1
f 33/2/1 28/2/1 30/2/1
f 34/2/1 28/2/1 33/2/1
f 37/1/1 36/1/1 35/1/1
f 38/1/1 36/1/1 37/1/1
f 39/3/2 40/3/2 41/3/2
f 41/3/2 40/3/2 42/3/2
f 43/2/2 44/2/2 47/2/2
f 45/2/2 46/2/2 48/2/2
f 43/2/2 47/2/2 49/2/2
f 49/2/2 47/2/2 50/2/2
f 48/2/2 46/2/2 51/2/2
f 51/2/2 46/2/2 52/2/2
f 53/3/2 54/3/2 57/3/2
f 55/3/2 56/3/2 58/3/2
f 53/3/2 57/3/2 59/3/2
f 57/3/2 58/3/2 59/3/2
f 58/3/2 56/3/2 60/3/2
f 59/3/2 58/3/2 60/3/2
f 61/1/2 62/1/2 63/1/2
f 63/1/2 62/1/2 64/1/2
f 67/2/3 66/2/3 65/2/3
f 68/2/3 66/2/3 67/2/3
f 73/3/3 70/3/3 69/3/3
f 74/3/3 70/3/3 73/3/3
f 75/1/3 72/1/3 71/1/3
f 76/1/3 72/1/3 75/1/3
f 77/3/3 73/3/3 69/3/3
f 78/3/3 73/3/3 77/3/3
f 80/2/3 76/2/3 75/2/3
f 80/2/3 79/2/3 78/2/3
f 80/2/3 78/2/3 77/2/3
f 80/2/3 77/2/3 76/2/3
f 81/2/3 79/2/3 80/2/3
f 82/2/3 80/2/3 75/2/3
f 84/2/3 82/2/3 75/2/3
f 84/2/3 83/2/3 82/2/3
f 85/2/3 83/2/3 84/2/3
f 86/3/3 85/3/3 84/3/3
f 87/3/3 85/3/3 86/3/3
f 88/3/3 86/3/3 84/3/3
f 88/4/3 87/4/3 86/4/3
f 89/3/3 85/3/3 87/3/3
f 89/4/3 87/4/3 88/4/3
f 90/3/3 88/3/3 84/3/3
f 90/3/3 89/3/3 88/3/3
f 91/3/3 85/3/3 89/3/3
f 91/3/3 89/3/3 90/3/3
f 95/1/3 93/1/3 92/1/3
f 96/1/3 95/1/3 94/1/3
f 97/1/3 93/1/3 95/1/3
f 97/1/3 95/1/3 96/1/3
f 100/1/3 99/1/3 98/1/3
f 101/1/3 99/1/3 100/1/3
f 104/2/3 103/2/3 102/2/3
f 105/2/3 103/2/3 104/2/3
f 106/2/4 107/2/4 108/2/4
f 108/2/4 107/2/4 109/2/4
f 110/1/4 111/1/4 112/1/4
f 112/1/4 111/1/4 113/1/4
f 114/1/4 115/1/4 117/1/4
f 116/1/4 117/1/4 118/1/4
f 117/1/4 115/1/4 119/1/4
f 118/1/4 117/1/4 119/1/4
f 120/3/4 121/3/4 124/3/4
f 124/3/4 121/3/4 125/3/4
f 122/1/4 123/1/4 126/1/4
f 126/1/4 123/1/4 127/1/4
f 120/3/4 124/3/4 128/3/4
f 128/3/4 124/3/4 129/3/4
f 126/2/4 127/2/4 131/2/4
f 129/2/4 130/2/4 131/2/4
f 128/2/4 129/2/4 131/2/4
f 127/2/4 128/2/4 131/2/4
f 131/2/4 130/2/4 132/2/4
f 126/2/4 131/2/4 133/2/4
f 126/2/4 133/2/4 135/2/4
f 133/2/4 134/2/4 135/2/4
f 135/2/4 134/2/4 136/2/4
f 135/3/4 136/3/4 137/3/4
f 137/3/4 136/3/4 138/3/4
f 135/3/4 137/3/4 139/3/4
f 137/4/4 138/4/4 139/4/4
f 138/3/4 136/3/4 140/3/4
f 139/4/4 138/4/4 140/4/4
f 135/3/4 139/3/4 141/3/4
f 139/3/4 140/3/4 141/3/4
f 140/3/4 136/3/4 142/3/4
f 141/3/4 140/3/4 142/3/4
f 143/2/4 144/2/4 145/2/4
f 145/2/4 144/2/4 146/2/4
f 149/1/5 148/1/5 147/1/5
f 150/1/5 148/1/5 149/1/5
f 155/1/5 152/1/5 151/1/5
f 156/2/5 153/2/5 152/2/5
f 156/1/5 152/1/5 155/1/5
f 157/3/5 154/3/5 153/3/5
f 160/2/5 153/2/5 156/2/5
f 161/3/5 157/3/5 153/3/5
f 161/1/5 158/1/5 157/1/5
f 162/1/5 158/1/5 161/1/5
f 163/1/5 160/1/5 159/1/5
f 164/2/5 153/2/5 160/2/5
f 164/1/5 160/1/5 163/1/5
f 165/3/5 161/3/5 153/3/5
f 165/2/5 153/2/5 164/2/5
f 166/3/5 161/3/5 165/3/5
f 169/3/5 168/3/5 167/3/5
f 170/3/5 168/3/5 169/3/5
f 173/2/5 172/2/5 171/2/5
f 174/2/5 172/2/5 173/2/5
f 177/2/5 176/2/5 175/2/5
f 178/2/5 176/2/5 177/2/5
f 179/1/6 180/1/6 181/1/6
f 181/1/6 180/1/6 182/1/6
f 183/1/6 184/1/6 185/1/6
f 185/1/6 184/1/6 186/1/6
f 187/1/6 188/1/6 189/1/6
f 189/1/6 188/1/6 190/1/6
f 191/3/6 192/3/6 193/3/6
f 193/3/6 192/3/6 194/3/6
f 195/2/6 196/2/6 200/2/6
f 196/2/6 197/2/6 200/2/6
f 197/2/6 198/2/6 200/2/6
f 200/2/6 198/2/6 201/2/6
f 201/2/6 198/2/6 202/2/6
f 198/3/6 199/3/6 203/3/6
f 202/2/6 198/2/6 203/2/6
f 203/3/6 199/3/6 204/3/6
f 205/2/6 206/2/6 209/2/6
f 209/2/6 206/2/6 210/2/6
f 207/3/6 208/3/6 211/3/6
f 211/3/6 208/3/6 212/3/6
f 213/2/6 214/2/6 215/2/6
f 215/2/6 214/2/6 216/2/6
