# MagicaVoxel @ Ephtracy

# material
mtllib Lion.mtl
usemtl palette

# normals
vn -1 0 0
vn 1 0 0
vn 0 0 1
vn 0 0 -1
vn 0 -1 0
vn 0 1 0

# texcoords
vt 0.197266 0.5
vt 0.248047 0.5
vt 0.330078 0.5
vt 0.607422 0.5
vt 0.841797 0.5
vt 0.951172 0.5
vt 0.958984 0.5

# verts
v -9 5 4.5
v -9 5 -7.5
v -9 18 4.5
v -9 18 -7.5
v -8 0 8.5
v -8 0 4.5
v -8 0 -3.5
v -8 0 -7.5
v -8 1 8.5
v -8 1 4.5
v -8 1 -3.5
v -8 1 -7.5
v -8 3 4.5
v -8 3 -3.5
v -8 4 -6.5
v -8 4 -7.5
v -8 5 4.5
v -8 5 -6.5
v -8 5 -7.5
v -8 17 8.5
v -8 17 4.5
v -7 18 -2.5
v -7 18 -5.5
v -7 20 -2.5
v -7 20 -5.5
v -2 5 -7.5
v -2 5 -10.5
v -2 6 -7.5
v -2 6 -9.5
v -2 6 -10.5
v -2 7 -7.5
v -2 7 -9.5
v -2 7 -10.5
v -2 9 -7.5
v -2 9 -9.5
v -2 9 -10.5
v -1 14 10.5
v -1 14 8.5
v -1 17 8.5
v -1 19 8.5
v -1 19 6.5
v -1 19 3.5
v -1 21 10.5
v -1 21 6.5
v -1 21 3.5
v 3 18 -2.5
v 3 18 -5.5
v 3 20 -2.5
v 3 20 -5.5
v 4 0 8.5
v 4 0 4.5
v 4 0 -3.5
v 4 0 -7.5
v 4 1 8.5
v 4 1 4.5
v 4 1 -3.5
v 4 1 -7.5
v 4 3 8.5
v 4 3 4.5
v 4 3 -3.5
v 4 3 -6.5
v 4 3 -7.5
v -4 0 8.5
v -4 0 4.5
v -4 0 -3.5
v -4 0 -7.5
v -4 1 8.5
v -4 1 7.5
v -4 1 5.5
v -4 1 4.5
v -4 1 -6.5
v -4 1 -7.5
v -4 3 8.5
v -4 3 7.5
v -4 3 5.5
v -4 3 4.5
v -4 3 -3.5
v -4 3 -6.5
v -4 3 -7.5
v -3 18 -2.5
v -3 18 -5.5
v -3 20 -2.5
v -3 20 -5.5
v 1 14 10.5
v 1 14 8.5
v 1 17 8.5
v 1 19 8.5
v 1 19 6.5
v 1 19 3.5
v 1 21 10.5
v 1 21 6.5
v 1 21 3.5
v 2 5 -7.5
v 2 5 -10.5
v 2 6 -7.5
v 2 6 -9.5
v 2 6 -10.5
v 2 7 -7.5
v 2 7 -9.5
v 2 7 -10.5
v 2 9 -7.5
v 2 9 -9.5
v 2 9 -10.5
v 7 18 -2.5
v 7 18 -5.5
v 7 20 -2.5
v 7 20 -5.5
v 8 0 8.5
v 8 0 4.5
v 8 0 -3.5
v 8 0 -7.5
v 8 1 8.5
v 8 1 4.5
v 8 1 -3.5
v 8 1 -7.5
v 8 3 4.5
v 8 3 -3.5
v 8 4 -6.5
v 8 4 -7.5
v 8 5 4.5
v 8 5 -6.5
v 8 5 -7.5
v 8 17 8.5
v 8 17 4.5
v 9 5 4.5
v 9 5 -7.5
v 9 18 4.5
v 9 18 -7.5
v -1 14 10.5
v -1 21 10.5
v 1 14 10.5
v 1 21 10.5
v -8 0 8.5
v -8 1 8.5
v -8 17 8.5
v -4 0 8.5
v -4 1 8.5
v -4 3 8.5
v -1 14 8.5
v -1 17 8.5
v 1 14 8.5
v 1 17 8.5
v 4 0 8.5
v 4 1 8.5
v 4 3 8.5
v 8 0 8.5
v 8 1 8.5
v 8 17 8.5
v -9 5 4.5
v -9 18 4.5
v -8 5 4.5
v -8 17 4.5
v 8 5 4.5
v 8 17 4.5
v 9 5 4.5
v 9 18 4.5
v -7 18 -2.5
v -7 20 -2.5
v -3 18 -2.5
v -3 20 -2.5
v 3 18 -2.5
v 3 20 -2.5
v 7 18 -2.5
v 7 20 -2.5
v -8 0 -3.5
v -8 1 -3.5
v -8 3 -3.5
v -7 1 -3.5
v -7 3 -3.5
v -4 0 -3.5
v -4 3 -3.5
v 4 0 -3.5
v 4 1 -3.5
v 4 3 -3.5
v 5 1 -3.5
v 5 3 -3.5
v 7 1 -3.5
v 7 3 -3.5
v 8 0 -3.5
v 8 1 -3.5
v 8 3 -3.5
v -1 17 8.5
v -1 19 8.5
v 1 17 8.5
v 1 19 8.5
v -8 0 4.5
v -8 1 4.5
v -8 3 4.5
v -7 3 4.5
v -4 0 4.5
v -4 1 4.5
v -4 3 4.5
v 4 0 4.5
v 4 1 4.5
v 4 3 4.5
v 7 3 4.5
v 8 0 4.5
v 8 1 4.5
v 8 3 4.5
v -1 19 3.5
v -1 21 3.5
v 1 19 3.5
v 1 21 3.5
v -7 18 -5.5
v -7 20 -5.5
v -6 18 -5.5
v -6 19 -5.5
v -4 18 -5.5
v -4 19 -5.5
v -3 18 -5.5
v -3 20 -5.5
v 3 18 -5.5
v 3 20 -5.5
v 4 18 -5.5
v 4 19 -5.5
v 6 18 -5.5
v 6 19 -5.5
v 7 18 -5.5
v 7 20 -5.5
v -9 5 -7.5
v -9 18 -7.5
v -8 0 -7.5
v -8 1 -7.5
v -8 4 -7.5
v -8 5 -7.5
v -6 7 -7.5
v -6 15 -7.5
v -5 9 -7.5
v -5 14 -7.5
v -4 0 -7.5
v -4 1 -7.5
v -4 3 -7.5
v -4 4 -7.5
v -4 11 -7.5
v -4 12 -7.5
v -3 11 -7.5
v -3 12 -7.5
v -2 5 -7.5
v -2 6 -7.5
v -2 7 -7.5
v -2 9 -7.5
v -2 14 -7.5
v -1 13 -7.5
v -1 15 -7.5
v 1 13 -7.5
v 1 15 -7.5
v 2 5 -7.5
v 2 6 -7.5
v 2 7 -7.5
v 2 9 -7.5
v 2 14 -7.5
v 3 11 -7.5
v 3 12 -7.5
v 4 0 -7.5
v 4 1 -7.5
v 4 3 -7.5
v 4 4 -7.5
v 4 11 -7.5
v 4 12 -7.5
v 5 9 -7.5
v 5 14 -7.5
v 6 7 -7.5
v 6 15 -7.5
v 8 0 -7.5
v 8 1 -7.5
v 8 4 -7.5
v 8 5 -7.5
v 9 5 -7.5
v 9 18 -7.5
v -2 6 -9.5
v -2 7 -9.5
v -1 7 -9.5
v 2 6 -9.5
v 2 7 -9.5
v -2 5 -10.5
v -2 6 -10.5
v -2 7 -10.5
v -2 9 -10.5
v -1 7 -10.5
v -1 9 -10.5
v 2 5 -10.5
v 2 6 -10.5
v 2 7 -10.5
v 2 9 -10.5
v -8 0 8.5
v -4 0 8.5
v 4 0 8.5
v 8 0 8.5
v -8 0 4.5
v -4 0 4.5
v 4 0 4.5
v 8 0 4.5
v -8 0 -3.5
v -4 0 -3.5
v 4 0 -3.5
v 8 0 -3.5
v -8 0 -7.5
v -4 0 -7.5
v 4 0 -7.5
v 8 0 -7.5
v -4 3 8.5
v 4 3 8.5
v -4 3 7.5
v -4 3 5.5
v -8 3 4.5
v -7 3 4.5
v -4 3 4.5
v 4 3 4.5
v 7 3 4.5
v 8 3 4.5
v -8 3 -3.5
v -7 3 -3.5
v -4 3 -3.5
v 4 3 -3.5
v 5 3 -3.5
v 7 3 -3.5
v 8 3 -3.5
v -4 3 -6.5
v 4 3 -6.5
v -4 3 -7.5
v 4 3 -7.5
v -9 5 4.5
v -8 5 4.5
v 8 5 4.5
v 9 5 4.5
v -8 5 -6.5
v 8 5 -6.5
v -9 5 -7.5
v -8 5 -7.5
v -2 5 -7.5
v 2 5 -7.5
v 8 5 -7.5
v 9 5 -7.5
v -2 5 -10.5
v 2 5 -10.5
v -2 7 -9.5
v -1 7 -9.5
v 2 7 -9.5
v -2 7 -10.5
v -1 7 -10.5
v 2 7 -10.5
v -1 14 10.5
v 1 14 10.5
v -1 14 8.5
v 1 14 8.5
v -1 19 8.5
v 1 19 8.5
v -1 19 6.5
v 1 19 6.5
v -1 19 3.5
v 1 19 3.5
v -2 6 -9.5
v 2 6 -9.5
v -2 6 -10.5
v 2 6 -10.5
v -2 9 -7.5
v 2 9 -7.5
v -2 9 -9.5
v -1 9 -9.5
v 2 9 -9.5
v -2 9 -10.5
v -1 9 -10.5
v 2 9 -10.5
v -8 17 8.5
v -1 17 8.5
v 1 17 8.5
v 8 17 8.5
v -8 17 4.5
v 8 17 4.5
v -9 18 4.5
v 9 18 4.5
v -7 18 -2.5
v -3 18 -2.5
v 3 18 -2.5
v 7 18 -2.5
v -7 18 -5.5
v -6 18 -5.5
v -4 18 -5.5
v -3 18 -5.5
v 3 18 -5.5
v 4 18 -5.5
v 6 18 -5.5
v 7 18 -5.5
v -9 18 -7.5
v 9 18 -7.5
v -7 20 -2.5
v -3 20 -2.5
v 3 20 -2.5
v 7 20 -2.5
v -7 20 -5.5
v -3 20 -5.5
v 3 20 -5.5
v 7 20 -5.5
v -1 21 10.5
v 1 21 10.5
v -1 21 6.5
v 1 21 6.5
v -1 21 3.5
v 1 21 3.5

# faces
f 3/1/1 2/1/1 1/1/1
f 4/1/1 2/1/1 3/1/1
f 9/7/1 6/7/1 5/7/1
f 10/7/1 6/7/1 9/7/1
f 11/7/1 8/7/1 7/7/1
f 12/7/1 8/7/1 11/7/1
f 13/3/1 10/3/1 9/3/1
f 14/3/1 12/3/1 11/3/1
f 15/3/1 12/3/1 14/3/1
f 15/3/1 14/3/1 13/3/1
f 16/3/1 12/3/1 15/3/1
f 17/3/1 13/3/1 9/3/1
f 17/3/1 15/3/1 13/3/1
f 18/1/1 16/1/1 15/1/1
f 18/3/1 15/3/1 17/3/1
f 19/1/1 16/1/1 18/1/1
f 20/3/1 17/3/1 9/3/1
f 21/3/1 17/3/1 20/3/1
f 24/3/1 23/3/1 22/3/1
f 25/3/1 23/3/1 24/3/1
f 28/7/1 27/7/1 26/7/1
f 29/7/1 27/7/1 28/7/1
f 30/7/1 27/7/1 29/7/1
f 31/5/1 29/5/1 28/5/1
f 32/5/1 29/5/1 31/5/1
f 34/3/1 32/3/1 31/3/1
f 35/6/1 33/6/1 32/6/1
f 35/3/1 32/3/1 34/3/1
f 36/6/1 33/6/1 35/6/1
f 39/3/1 38/3/1 37/3/1
f 40/3/1 39/3/1 37/3/1
f 43/3/1 40/3/1 37/3/1
f 43/3/1 41/3/1 40/3/1
f 44/1/1 42/1/1 41/1/1
f 44/3/1 41/3/1 43/3/1
f 45/1/1 42/1/1 44/1/1
f 48/3/1 47/3/1 46/3/1
f 49/3/1 47/3/1 48/3/1
f 54/7/1 51/7/1 50/7/1
f 55/7/1 51/7/1 54/7/1
f 56/7/1 53/7/1 52/7/1
f 57/7/1 53/7/1 56/7/1
f 58/3/1 55/3/1 54/3/1
f 59/3/1 55/3/1 58/3/1
f 60/3/1 57/3/1 56/3/1
f 61/3/1 57/3/1 60/3/1
f 62/3/1 57/3/1 61/3/1
f 63/7/2 64/7/2 67/7/2
f 67/7/2 64/7/2 68/7/2
f 68/7/2 64/7/2 69/7/2
f 69/7/2 64/7/2 70/7/2
f 65/7/2 66/7/2 71/7/2
f 71/7/2 66/7/2 72/7/2
f 67/3/2 68/3/2 73/3/2
f 68/7/2 69/7/2 74/7/2
f 73/3/2 68/3/2 74/3/2
f 69/3/2 70/3/2 75/3/2
f 74/7/2 69/7/2 75/7/2
f 75/3/2 70/3/2 76/3/2
f 65/7/2 71/7/2 77/7/2
f 71/3/2 72/3/2 78/3/2
f 77/7/2 71/7/2 78/7/2
f 78/3/2 72/3/2 79/3/2
f 80/3/2 81/3/2 82/3/2
f 82/3/2 81/3/2 83/3/2
f 84/3/2 85/3/2 86/3/2
f 84/3/2 86/3/2 87/3/2
f 84/3/2 87/3/2 90/3/2
f 87/3/2 88/3/2 90/3/2
f 88/1/2 89/1/2 91/1/2
f 90/3/2 88/3/2 91/3/2
f 91/1/2 89/1/2 92/1/2
f 93/7/2 94/7/2 95/7/2
f 95/7/2 94/7/2 96/7/2
f 96/7/2 94/7/2 97/7/2
f 95/5/2 96/5/2 98/5/2
f 98/5/2 96/5/2 99/5/2
f 98/3/2 99/3/2 101/3/2
f 99/4/2 100/4/2 102/4/2
f 101/3/2 99/3/2 102/3/2
f 102/4/2 100/4/2 103/4/2
f 104/3/2 105/3/2 106/3/2
f 106/3/2 105/3/2 107/3/2
f 108/7/2 109/7/2 112/7/2
f 112/7/2 109/7/2 113/7/2
f 110/7/2 111/7/2 114/7/2
f 114/7/2 111/7/2 115/7/2
f 112/3/2 113/3/2 116/3/2
f 114/3/2 115/3/2 117/3/2
f 117/3/2 115/3/2 118/3/2
f 116/3/2 117/3/2 118/3/2
f 118/3/2 115/3/2 119/3/2
f 112/3/2 116/3/2 120/3/2
f 116/3/2 118/3/2 120/3/2
f 118/1/2 119/1/2 121/1/2
f 120/3/2 118/3/2 121/3/2
f 121/1/2 119/1/2 122/1/2
f 112/3/2 120/3/2 123/3/2
f 123/3/2 120/3/2 124/3/2
f 125/1/2 126/1/2 127/1/2
f 127/1/2 126/1/2 128/1/2
f 131/3/3 130/3/3 129/3/3
f 132/3/3 130/3/3 131/3/3
f 136/7/3 134/7/3 133/7/3
f 137/3/3 135/3/3 134/3/3
f 137/7/3 134/7/3 136/7/3
f 138/3/3 135/3/3 137/3/3
f 139/3/3 135/3/3 138/3/3
f 140/3/3 135/3/3 139/3/3
f 141/3/3 139/3/3 138/3/3
f 145/3/3 141/3/3 138/3/3
f 145/3/3 142/3/3 141/3/3
f 146/7/3 144/7/3 143/7/3
f 147/3/3 145/3/3 144/3/3
f 147/7/3 144/7/3 146/7/3
f 148/3/3 142/3/3 145/3/3
f 148/3/3 145/3/3 147/3/3
f 151/1/3 150/1/3 149/1/3
f 152/1/3 150/1/3 151/1/3
f 154/1/3 150/1/3 152/1/3
f 155/1/3 154/1/3 153/1/3
f 156/1/3 150/1/3 154/1/3
f 156/1/3 154/1/3 155/1/3
f 159/3/3 158/3/3 157/3/3
f 160/3/3 158/3/3 159/3/3
f 163/3/3 162/3/3 161/3/3
f 164/3/3 162/3/3 163/3/3
f 168/7/3 166/7/3 165/7/3
f 168/3/3 167/3/3 166/3/3
f 169/3/3 167/3/3 168/3/3
f 170/7/3 168/7/3 165/7/3
f 170/7/3 169/7/3 168/7/3
f 171/7/3 169/7/3 170/7/3
f 175/7/3 173/7/3 172/7/3
f 175/3/3 174/3/3 173/3/3
f 176/3/3 174/3/3 175/3/3
f 177/7/3 175/7/3 172/7/3
f 177/7/3 176/7/3 175/7/3
f 178/7/3 176/7/3 177/7/3
f 179/7/3 177/7/3 172/7/3
f 180/3/3 178/3/3 177/3/3
f 180/7/3 177/7/3 179/7/3
f 181/3/3 178/3/3 180/3/3
f 182/3/4 183/3/4 184/3/4
f 184/3/4 183/3/4 185/3/4
f 187/3/4 188/3/4 189/3/4
f 186/7/4 187/7/4 190/7/4
f 187/3/4 189/3/4 191/3/4
f 190/7/4 187/7/4 191/7/4
f 191/3/4 189/3/4 192/3/4
f 194/3/4 195/3/4 196/3/4
f 193/7/4 194/7/4 197/7/4
f 194/3/4 196/3/4 198/3/4
f 197/7/4 194/7/4 198/7/4
f 198/3/4 196/3/4 199/3/4
f 200/1/4 201/1/4 202/1/4
f 202/1/4 201/1/4 203/1/4
f 204/3/4 205/3/4 206/3/4
f 206/3/4 205/3/4 207/3/4
f 206/7/4 207/7/4 208/7/4
f 207/3/4 205/3/4 209/3/4
f 208/7/4 207/7/4 209/7/4
f 208/3/4 209/3/4 210/3/4
f 209/3/4 205/3/4 211/3/4
f 210/3/4 209/3/4 211/3/4
f 212/3/4 213/3/4 214/3/4
f 214/3/4 213/3/4 215/3/4
f 214/7/4 215/7/4 216/7/4
f 215/3/4 213/3/4 217/3/4
f 216/7/4 215/7/4 217/7/4
f 216/3/4 217/3/4 218/3/4
f 217/3/4 213/3/4 219/3/4
f 218/3/4 217/3/4 219/3/4
f 220/1/4 221/1/4 225/1/4
f 225/1/4 221/1/4 226/1/4
f 224/1/4 225/1/4 226/1/4
f 226/1/4 221/1/4 227/1/4
f 226/3/4 227/3/4 228/3/4
f 228/3/4 227/3/4 229/3/4
f 222/7/4 223/7/4 230/7/4
f 223/3/4 224/3/4 231/3/4
f 230/7/4 223/7/4 231/7/4
f 231/3/4 224/3/4 232/3/4
f 224/1/4 226/1/4 233/1/4
f 232/3/4 224/3/4 233/3/4
f 228/4/4 229/4/4 234/4/4
f 234/4/4 229/4/4 235/4/4
f 234/5/4 235/5/4 236/5/4
f 228/4/4 234/4/4 236/4/4
f 235/4/4 229/4/4 237/4/4
f 236/5/4 235/5/4 237/5/4
f 233/1/4 226/1/4 238/1/4
f 232/1/4 233/1/4 238/1/4
f 238/1/4 226/1/4 239/1/4
f 226/3/4 228/3/4 240/3/4
f 239/1/4 226/1/4 240/1/4
f 228/4/4 236/4/4 241/4/4
f 240/3/4 228/3/4 241/3/4
f 236/4/4 237/4/4 241/4/4
f 229/3/4 227/3/4 242/3/4
f 241/4/4 237/4/4 242/4/4
f 237/4/4 229/4/4 242/4/4
f 241/3/4 242/3/4 243/3/4
f 242/3/4 227/3/4 244/3/4
f 243/3/4 242/3/4 244/3/4
f 227/1/4 221/1/4 244/1/4
f 241/3/4 243/3/4 245/3/4
f 243/1/4 244/1/4 245/1/4
f 244/1/4 221/1/4 246/1/4
f 245/1/4 244/1/4 246/1/4
f 232/1/4 238/1/4 247/1/4
f 241/3/4 245/3/4 250/3/4
f 245/3/4 246/3/4 250/3/4
f 250/3/4 246/3/4 251/3/4
f 250/4/4 251/4/4 252/4/4
f 252/4/4 251/4/4 253/4/4
f 248/1/4 249/1/4 256/1/4
f 247/1/4 248/1/4 256/1/4
f 232/1/4 247/1/4 256/1/4
f 256/1/4 249/1/4 257/1/4
f 252/5/4 253/5/4 258/5/4
f 250/4/4 252/4/4 258/4/4
f 253/4/4 251/4/4 259/4/4
f 258/5/4 253/5/4 259/5/4
f 250/4/4 258/4/4 260/4/4
f 249/3/4 250/3/4 260/3/4
f 258/4/4 259/4/4 260/4/4
f 259/4/4 251/4/4 261/4/4
f 260/4/4 259/4/4 261/4/4
f 251/3/4 246/3/4 261/3/4
f 249/3/4 260/3/4 262/3/4
f 257/1/4 249/1/4 262/1/4
f 260/3/4 261/3/4 262/3/4
f 246/1/4 221/1/4 263/1/4
f 262/3/4 261/3/4 263/3/4
f 261/3/4 246/3/4 263/3/4
f 254/7/4 255/7/4 264/7/4
f 256/3/4 257/3/4 265/3/4
f 264/7/4 255/7/4 265/7/4
f 255/3/4 256/3/4 265/3/4
f 257/1/4 262/1/4 266/1/4
f 265/3/4 257/3/4 266/3/4
f 262/1/4 263/1/4 266/1/4
f 266/1/4 263/1/4 267/1/4
f 267/1/4 263/1/4 268/1/4
f 263/1/4 221/1/4 269/1/4
f 268/1/4 263/1/4 269/1/4
f 270/5/4 271/5/4 272/5/4
f 270/5/4 272/5/4 273/5/4
f 273/5/4 272/5/4 274/5/4
f 277/6/4 278/6/4 279/6/4
f 279/6/4 278/6/4 280/6/4
f 275/7/4 276/7/4 281/7/4
f 281/7/4 276/7/4 282/7/4
f 279/4/4 280/4/4 283/4/4
f 283/4/4 280/4/4 284/4/4
f 289/7/5 286/7/5 285/7/5
f 290/7/5 286/7/5 289/7/5
f 291/7/5 288/7/5 287/7/5
f 292/7/5 288/7/5 291/7/5
f 297/7/5 294/7/5 293/7/5
f 298/7/5 294/7/5 297/7/5
f 299/7/5 296/7/5 295/7/5
f 300/7/5 296/7/5 299/7/5
f 303/3/5 302/3/5 301/3/5
f 304/3/5 302/3/5 303/3/5
f 307/3/5 302/3/5 304/3/5
f 308/3/5 302/3/5 307/3/5
f 311/3/5 306/3/5 305/3/5
f 312/7/5 307/7/5 306/7/5
f 312/3/5 306/3/5 311/3/5
f 312/7/5 308/7/5 307/7/5
f 312/7/5 309/7/5 308/7/5
f 313/7/5 309/7/5 312/7/5
f 314/7/5 309/7/5 313/7/5
f 315/7/5 309/7/5 314/7/5
f 316/3/5 310/3/5 309/3/5
f 316/7/5 309/7/5 315/7/5
f 317/3/5 310/3/5 316/3/5
f 318/7/5 314/7/5 313/7/5
f 319/7/5 314/7/5 318/7/5
f 320/1/5 319/1/5 318/1/5
f 321/1/5 319/1/5 320/1/5
f 326/1/5 323/1/5 322/1/5
f 327/1/5 325/1/5 324/1/5
f 328/1/5 326/1/5 322/1/5
f 329/1/5 326/1/5 328/1/5
f 332/1/5 325/1/5 327/1/5
f 333/1/5 325/1/5 332/1/5
f 334/7/5 331/7/5 330/7/5
f 335/7/5 331/7/5 334/7/5
f 339/6/5 337/6/5 336/6/5
f 340/4/5 338/4/5 337/4/5
f 340/6/5 337/6/5 339/6/5
f 341/4/5 338/4/5 340/4/5
f 344/3/5 343/3/5 342/3/5
f 345/3/5 343/3/5 344/3/5
f 348/3/5 347/3/5 346/3/5
f 349/3/5 347/3/5 348/3/5
f 350/1/5 349/1/5 348/1/5
f 351/1/5 349/1/5 350/1/5
f 352/7/6 353/7/6 354/7/6
f 354/7/6 353/7/6 355/7/6
f 356/3/6 357/3/6 358/3/6
f 358/3/6 357/3/6 359/3/6
f 359/3/6 357/3/6 360/3/6
f 358/6/6 359/6/6 361/6/6
f 359/4/6 360/4/6 362/4/6
f 361/6/6 359/6/6 362/6/6
f 362/4/6 360/4/6 363/4/6
f 364/3/6 365/3/6 368/3/6
f 366/3/6 367/3/6 368/3/6
f 365/3/6 366/3/6 368/3/6
f 368/3/6 367/3/6 369/3/6
f 370/1/6 371/1/6 372/1/6
f 372/1/6 371/1/6 373/1/6
f 373/1/6 371/1/6 374/1/6
f 374/1/6 371/1/6 375/1/6
f 370/1/6 372/1/6 376/1/6
f 373/1/6 374/1/6 379/1/6
f 379/1/6 374/1/6 380/1/6
f 375/1/6 371/1/6 383/1/6
f 381/1/6 382/1/6 384/1/6
f 382/1/6 383/1/6 384/1/6
f 377/1/6 378/1/6 384/1/6
f 370/1/6 376/1/6 384/1/6
f 380/1/6 381/1/6 384/1/6
f 379/1/6 380/1/6 384/1/6
f 378/1/6 379/1/6 384/1/6
f 376/1/6 377/1/6 384/1/6
f 383/1/6 371/1/6 385/1/6
f 384/1/6 383/1/6 385/1/6
f 386/3/6 387/3/6 390/3/6
f 390/3/6 387/3/6 391/3/6
f 388/3/6 389/3/6 392/3/6
f 392/3/6 389/3/6 393/3/6
f 394/3/6 395/3/6 396/3/6
f 396/3/6 395/3/6 397/3/6
f 396/1/6 397/1/6 398/1/6
f 398/1/6 397/1/6 399/1/6
