# MagicaVoxel @ Ephtracy

# material
mtllib tree3.mtl
usemtl palette

# normals
vn -1 0 0
vn 1 0 0
vn 0 0 1
vn 0 0 -1
vn 0 -1 0
vn 0 1 0

# texcoords
vt 0.556641 0.5
vt 0.630859 0.5
vt 0.654297 0.5
vt 0.869141 0.5

# verts
v -2.5 3 2.5
v -2.5 3 -2.5
v -2.5 4 2.5
v -2.5 4 -2.5
v -2.5 6 2.5
v -2.5 6 -2.5
v -2.5 7 2.5
v -2.5 7 -2.5
v -2.5 9 2.5
v -2.5 9 -2.5
v -2.5 10 2.5
v -2.5 10 -2.5
v -1.5 0 1.5
v -1.5 0 -1.5
v -1.5 3 1.5
v -1.5 3 -1.5
v 1.5 0 1.5
v 1.5 0 -1.5
v 1.5 3 1.5
v 1.5 3 -1.5
v 2.5 3 2.5
v 2.5 3 -2.5
v 2.5 4 2.5
v 2.5 4 -2.5
v 2.5 6 2.5
v 2.5 6 -2.5
v 2.5 7 2.5
v 2.5 7 -2.5
v 2.5 9 2.5
v 2.5 9 -2.5
v 2.5 10 2.5
v 2.5 10 -2.5
v -2.5 3 2.5
v -2.5 4 2.5
v -2.5 6 2.5
v -2.5 7 2.5
v -2.5 9 2.5
v -2.5 10 2.5
v 2.5 3 2.5
v 2.5 4 2.5
v 2.5 6 2.5
v 2.5 7 2.5
v 2.5 9 2.5
v 2.5 10 2.5
v -1.5 0 1.5
v -1.5 3 1.5
v 0.5 0 1.5
v 0.5 3 1.5
v 1.5 0 1.5
v 1.5 3 1.5
v -1.5 0 -1.5
v -1.5 3 -1.5
v 0.5 0 -1.5
v 0.5 3 -1.5
v 1.5 0 -1.5
v 1.5 3 -1.5
v -2.5 3 -2.5
v -2.5 4 -2.5
v -2.5 6 -2.5
v -2.5 7 -2.5
v -2.5 9 -2.5
v -2.5 10 -2.5
v 2.5 3 -2.5
v 2.5 4 -2.5
v 2.5 6 -2.5
v 2.5 7 -2.5
v 2.5 9 -2.5
v 2.5 10 -2.5
v -1.5 0 1.5
v 0.5 0 1.5
v 1.5 0 1.5
v -1.5 0 -1.5
v 0.5 0 -1.5
v 1.5 0 -1.5
v -2.5 3 2.5
v 2.5 3 2.5
v -1.5 3 1.5
v 0.5 3 1.5
v 1.5 3 1.5
v -1.5 3 -1.5
v 0.5 3 -1.5
v 1.5 3 -1.5
v -2.5 3 -2.5
v 2.5 3 -2.5
v -2.5 10 2.5
v 2.5 10 2.5
v -2.5 10 -2.5
v 2.5 10 -2.5

# faces
f 3/3/1 2/3/1 1/3/1
f 4/3/1 2/3/1 3/3/1
f 5/2/1 4/2/1 3/2/1
f 6/2/1 4/2/1 5/2/1
f 7/3/1 6/3/1 5/3/1
f 8/3/1 6/3/1 7/3/1
f 9/2/1 8/2/1 7/2/1
f 10/2/1 8/2/1 9/2/1
f 11/3/1 10/3/1 9/3/1
f 12/3/1 10/3/1 11/3/1
f 15/1/1 14/1/1 13/1/1
f 16/1/1 14/1/1 15/1/1
f 17/4/2 18/4/2 19/4/2
f 19/4/2 18/4/2 20/4/2
f 21/3/2 22/3/2 23/3/2
f 23/3/2 22/3/2 24/3/2
f 23/2/2 24/2/2 25/2/2
f 25/2/2 24/2/2 26/2/2
f 25/3/2 26/3/2 27/3/2
f 27/3/2 26/3/2 28/3/2
f 27/2/2 28/2/2 29/2/2
f 29/2/2 28/2/2 30/2/2
f 29/3/2 30/3/2 31/3/2
f 31/3/2 30/3/2 32/3/2
f 39/3/3 34/3/3 33/3/3
f 40/2/3 35/2/3 34/2/3
f 40/3/3 34/3/3 39/3/3
f 41/3/3 36/3/3 35/3/3
f 41/2/3 35/2/3 40/2/3
f 42/2/3 37/2/3 36/2/3
f 42/3/3 36/3/3 41/3/3
f 43/3/3 38/3/3 37/3/3
f 43/2/3 37/2/3 42/2/3
f 44/3/3 38/3/3 43/3/3
f 47/1/3 46/1/3 45/1/3
f 48/1/3 46/1/3 47/1/3
f 49/4/3 48/4/3 47/4/3
f 50/4/3 48/4/3 49/4/3
f 51/1/4 52/1/4 53/1/4
f 53/1/4 52/1/4 54/1/4
f 53/4/4 54/4/4 55/4/4
f 55/4/4 54/4/4 56/4/4
f 57/3/4 58/3/4 63/3/4
f 58/2/4 59/2/4 64/2/4
f 63/3/4 58/3/4 64/3/4
f 59/3/4 60/3/4 65/3/4
f 64/2/4 59/2/4 65/2/4
f 60/2/4 61/2/4 66/2/4
f 65/3/4 60/3/4 66/3/4
f 61/3/4 62/3/4 67/3/4
f 66/2/4 61/2/4 67/2/4
f 67/3/4 62/3/4 68/3/4
f 72/1/5 70/1/5 69/1/5
f 73/4/5 71/4/5 70/4/5
f 73/1/5 70/1/5 72/1/5
f 74/4/5 71/4/5 73/4/5
f 77/3/5 76/3/5 75/3/5
f 78/3/5 76/3/5 77/3/5
f 79/3/5 76/3/5 78/3/5
f 80/3/5 77/3/5 75/3/5
f 82/3/5 76/3/5 79/3/5
f 83/3/5 81/3/5 80/3/5
f 83/3/5 82/3/5 81/3/5
f 83/3/5 80/3/5 75/3/5
f 84/3/5 76/3/5 82/3/5
f 84/3/5 82/3/5 83/3/5
f 85/3/6 86/3/6 87/3/6
f 87/3/6 86/3/6 88/3/6
