# MagicaVoxel @ Ephtracy

# material
mtllib car2.mtl
usemtl palette

# normals
vn -1 0 0
vn 1 0 0
vn 0 0 1
vn 0 0 -1
vn 0 -1 0
vn 0 1 0

# texcoords
vt 0.306641 0.5
vt 0.333984 0.5
vt 0.419922 0.5
vt 0.494141 0.5
vt 0.521484 0.5
vt 0.958984 0.5
vt 0.994141 0.5

# verts
v -4.5 4 0.5
v -4.5 4 -1.5
v -4.5 5 0.5
v -4.5 5 -1.5
v -3.5 0 6.5
v -3.5 0 3.5
v -3.5 0 -2.5
v -3.5 0 -5.5
v -3.5 1 7.5
v -3.5 1 6.5
v -3.5 1 5.5
v -3.5 1 4.5
v -3.5 1 3.5
v -3.5 1 -2.5
v -3.5 1 -3.5
v -3.5 1 -4.5
v -3.5 1 -5.5
v -3.5 1 -7.5
v -3.5 2 7.5
v -3.5 2 6.5
v -3.5 2 5.5
v -3.5 2 4.5
v -3.5 2 3.5
v -3.5 2 -2.5
v -3.5 2 -3.5
v -3.5 2 -4.5
v -3.5 2 -5.5
v -3.5 2 -7.5
v -3.5 3 7.5
v -3.5 3 6.5
v -3.5 3 3.5
v -3.5 3 -2.5
v -3.5 3 -5.5
v -3.5 3 -7.5
v -3.5 4 0.5
v -3.5 4 -1.5
v -3.5 5 7.5
v -3.5 5 0.5
v -3.5 5 -1.5
v -3.5 5 -7.5
v -2.5 5 5.5
v -2.5 5 4.5
v -2.5 5 3.5
v -2.5 5 2.5
v -2.5 5 -1.5
v -2.5 5 -2.5
v -2.5 7 4.5
v -2.5 7 3.5
v -2.5 7 2.5
v -2.5 7 -1.5
v -2.5 8 5.5
v -2.5 8 -2.5
v 1.5 5 2.5
v 1.5 5 -0.5
v 1.5 5 -1.5
v 1.5 7 2.5
v 1.5 7 -1.5
v 2.5 0 6.5
v 2.5 0 3.5
v 2.5 0 -2.5
v 2.5 0 -5.5
v 2.5 1 6.5
v 2.5 1 3.5
v 2.5 1 -2.5
v 2.5 1 -5.5
v -2.5 0 6.5
v -2.5 0 3.5
v -2.5 0 -2.5
v -2.5 0 -5.5
v -2.5 1 6.5
v -2.5 1 3.5
v -2.5 1 -2.5
v -2.5 1 -5.5
v -1.5 5 2.5
v -1.5 5 -0.5
v -1.5 5 -1.5
v -1.5 7 2.5
v -1.5 7 -1.5
v 2.5 5 5.5
v 2.5 5 4.5
v 2.5 5 3.5
v 2.5 5 2.5
v 2.5 5 -1.5
v 2.5 5 -2.5
v 2.5 7 4.5
v 2.5 7 3.5
v 2.5 7 2.5
v 2.5 7 -1.5
v 2.5 8 5.5
v 2.5 8 -2.5
v 3.5 0 6.5
v 3.5 0 3.5
v 3.5 0 -2.5
v 3.5 0 -5.5
v 3.5 1 7.5
v 3.5 1 6.5
v 3.5 1 5.5
v 3.5 1 4.5
v 3.5 1 3.5
v 3.5 1 -2.5
v 3.5 1 -3.5
v 3.5 1 -4.5
v 3.5 1 -5.5
v 3.5 1 -7.5
v 3.5 2 7.5
v 3.5 2 6.5
v 3.5 2 5.5
v 3.5 2 4.5
v 3.5 2 3.5
v 3.5 2 -2.5
v 3.5 2 -3.5
v 3.5 2 -4.5
v 3.5 2 -5.5
v 3.5 2 -7.5
v 3.5 3 7.5
v 3.5 3 6.5
v 3.5 3 3.5
v 3.5 3 -2.5
v 3.5 3 -5.5
v 3.5 3 -7.5
v 3.5 4 0.5
v 3.5 4 -1.5
v 3.5 5 7.5
v 3.5 5 0.5
v 3.5 5 -1.5
v 3.5 5 -7.5
v 4.5 4 0.5
v 4.5 4 -1.5
v 4.5 5 0.5
v 4.5 5 -1.5
v -3.5 1 7.5
v -3.5 2 7.5
v -3.5 3 7.5
v -3.5 5 7.5
v -2.5 3 7.5
v -2.5 4 7.5
v -1.5 3 7.5
v -1.5 4 7.5
v -1.5 5 7.5
v 1.5 3 7.5
v 1.5 4 7.5
v 1.5 5 7.5
v 2.5 3 7.5
v 2.5 4 7.5
v 3.5 1 7.5
v 3.5 2 7.5
v 3.5 3 7.5
v 3.5 5 7.5
v -3.5 0 6.5
v -3.5 1 6.5
v -2.5 0 6.5
v -2.5 1 6.5
v 2.5 0 6.5
v 2.5 1 6.5
v 3.5 0 6.5
v 3.5 1 6.5
v -2.5 5 5.5
v -2.5 8 5.5
v -1.5 5 5.5
v 1.5 5 5.5
v 2.5 5 5.5
v 2.5 8 5.5
v -4.5 4 0.5
v -4.5 5 0.5
v -3.5 4 0.5
v -3.5 5 0.5
v 3.5 4 0.5
v 3.5 5 0.5
v 4.5 4 0.5
v 4.5 5 0.5
v -1.5 5 -1.5
v -1.5 7 -1.5
v 1.5 5 -1.5
v 1.5 7 -1.5
v -3.5 0 -2.5
v -3.5 1 -2.5
v -2.5 0 -2.5
v -2.5 1 -2.5
v 2.5 0 -2.5
v 2.5 1 -2.5
v 3.5 0 -2.5
v 3.5 1 -2.5
v -3.5 0 3.5
v -3.5 1 3.5
v -2.5 0 3.5
v -2.5 1 3.5
v 2.5 0 3.5
v 2.5 1 3.5
v 3.5 0 3.5
v 3.5 1 3.5
v -1.5 5 2.5
v -1.5 7 2.5
v 1.5 5 2.5
v 1.5 7 2.5
v -4.5 4 -1.5
v -4.5 5 -1.5
v -3.5 4 -1.5
v -3.5 5 -1.5
v 3.5 4 -1.5
v 3.5 5 -1.5
v 4.5 4 -1.5
v 4.5 5 -1.5
v -2.5 5 -2.5
v -2.5 8 -2.5
v -1.5 5 -2.5
v -1.5 7 -2.5
v 1.5 5 -2.5
v 1.5 7 -2.5
v 2.5 5 -2.5
v 2.5 8 -2.5
v -3.5 0 -5.5
v -3.5 1 -5.5
v -2.5 0 -5.5
v -2.5 1 -5.5
v 2.5 0 -5.5
v 2.5 1 -5.5
v 3.5 0 -5.5
v 3.5 1 -5.5
v -3.5 1 -7.5
v -3.5 2 -7.5
v -3.5 3 -7.5
v -3.5 5 -7.5
v -2.5 3 -7.5
v -2.5 4 -7.5
v -1.5 3 -7.5
v -1.5 4 -7.5
v -1.5 5 -7.5
v 1.5 3 -7.5
v 1.5 4 -7.5
v 1.5 5 -7.5
v 2.5 3 -7.5
v 2.5 4 -7.5
v 3.5 1 -7.5
v 3.5 2 -7.5
v 3.5 3 -7.5
v 3.5 5 -7.5
v -3.5 0 6.5
v -2.5 0 6.5
v 2.5 0 6.5
v 3.5 0 6.5
v -3.5 0 3.5
v -2.5 0 3.5
v 2.5 0 3.5
v 3.5 0 3.5
v -3.5 0 -2.5
v -2.5 0 -2.5
v 2.5 0 -2.5
v 3.5 0 -2.5
v -3.5 0 -5.5
v -2.5 0 -5.5
v 2.5 0 -5.5
v 3.5 0 -5.5
v -3.5 1 7.5
v 3.5 1 7.5
v -3.5 1 6.5
v -2.5 1 6.5
v 2.5 1 6.5
v 3.5 1 6.5
v -3.5 1 3.5
v -2.5 1 3.5
v 2.5 1 3.5
v 3.5 1 3.5
v -3.5 1 -2.5
v -2.5 1 -2.5
v 2.5 1 -2.5
v 3.5 1 -2.5
v -3.5 1 -5.5
v -2.5 1 -5.5
v 2.5 1 -5.5
v 3.5 1 -5.5
v -3.5 1 -7.5
v 3.5 1 -7.5
v -4.5 4 0.5
v -3.5 4 0.5
v 3.5 4 0.5
v 4.5 4 0.5
v -4.5 4 -1.5
v -3.5 4 -1.5
v 3.5 4 -1.5
v 4.5 4 -1.5
v -1.5 7 2.5
v 1.5 7 2.5
v -1.5 7 -1.5
v 1.5 7 -1.5
v -3.5 5 7.5
v -1.5 5 7.5
v 1.5 5 7.5
v 3.5 5 7.5
v -2.5 5 5.5
v -1.5 5 5.5
v 1.5 5 5.5
v 2.5 5 5.5
v -2.5 5 4.5
v 2.5 5 4.5
v -2.5 5 3.5
v 2.5 5 3.5
v -2.5 5 2.5
v -1.5 5 2.5
v 1.5 5 2.5
v 2.5 5 2.5
v -4.5 5 0.5
v -3.5 5 0.5
v 3.5 5 0.5
v 4.5 5 0.5
v -1.5 5 -0.5
v 1.5 5 -0.5
v -4.5 5 -1.5
v -3.5 5 -1.5
v -2.5 5 -1.5
v -1.5 5 -1.5
v 1.5 5 -1.5
v 2.5 5 -1.5
v 3.5 5 -1.5
v 4.5 5 -1.5
v -2.5 5 -2.5
v -1.5 5 -2.5
v 1.5 5 -2.5
v 2.5 5 -2.5
v -3.5 5 -7.5
v -1.5 5 -7.5
v 1.5 5 -7.5
v 3.5 5 -7.5
v -2.5 8 5.5
v 2.5 8 5.5
v -2.5 8 -2.5
v 2.5 8 -2.5

# faces
f 3/3/1 2/3/1 1/3/1
f 4/3/1 2/3/1 3/3/1
f 10/7/1 6/7/1 5/7/1
f 11/7/1 6/7/1 10/7/1
f 12/7/1 6/7/1 11/7/1
f 13/7/1 6/7/1 12/7/1
f 14/7/1 8/7/1 7/7/1
f 15/7/1 8/7/1 14/7/1
f 16/7/1 8/7/1 15/7/1
f 17/7/1 8/7/1 16/7/1
f 19/2/1 10/2/1 9/2/1
f 20/7/1 11/7/1 10/7/1
f 20/2/1 10/2/1 19/2/1
f 21/6/1 12/6/1 11/6/1
f 21/7/1 11/7/1 20/7/1
f 22/7/1 13/7/1 12/7/1
f 22/6/1 12/6/1 21/6/1
f 23/2/1 14/2/1 13/2/1
f 23/7/1 13/7/1 22/7/1
f 24/7/1 15/7/1 14/7/1
f 24/2/1 14/2/1 23/2/1
f 25/6/1 16/6/1 15/6/1
f 25/7/1 15/7/1 24/7/1
f 26/7/1 17/7/1 16/7/1
f 26/6/1 16/6/1 25/6/1
f 27/2/1 18/2/1 17/2/1
f 27/7/1 17/7/1 26/7/1
f 28/2/1 18/2/1 27/2/1
f 29/3/1 20/3/1 19/3/1
f 30/7/1 21/7/1 20/7/1
f 30/3/1 20/3/1 29/3/1
f 30/7/1 22/7/1 21/7/1
f 30/7/1 23/7/1 22/7/1
f 31/3/1 24/3/1 23/3/1
f 31/7/1 23/7/1 30/7/1
f 32/7/1 26/7/1 25/7/1
f 32/3/1 24/3/1 31/3/1
f 32/7/1 27/7/1 26/7/1
f 32/7/1 25/7/1 24/7/1
f 33/3/1 28/3/1 27/3/1
f 33/7/1 27/7/1 32/7/1
f 34/3/1 28/3/1 33/3/1
f 35/5/1 31/5/1 30/5/1
f 35/5/1 32/5/1 31/5/1
f 35/5/1 34/5/1 33/5/1
f 35/5/1 33/5/1 32/5/1
f 35/5/1 30/5/1 29/5/1
f 36/5/1 34/5/1 35/5/1
f 37/5/1 35/5/1 29/5/1
f 38/5/1 35/5/1 37/5/1
f 39/5/1 34/5/1 36/5/1
f 40/5/1 34/5/1 39/5/1
f 47/6/1 42/6/1 41/6/1
f 47/7/1 43/7/1 42/7/1
f 48/6/1 44/6/1 43/6/1
f 48/7/1 43/7/1 47/7/1
f 49/7/1 45/7/1 44/7/1
f 49/6/1 44/6/1 48/6/1
f 50/6/1 46/6/1 45/6/1
f 50/7/1 45/7/1 49/7/1
f 51/6/1 49/6/1 48/6/1
f 51/6/1 48/6/1 47/6/1
f 51/6/1 50/6/1 49/6/1
f 51/6/1 47/6/1 41/6/1
f 52/6/1 46/6/1 50/6/1
f 52/6/1 50/6/1 51/6/1
f 56/7/1 54/7/1 53/7/1
f 56/7/1 55/7/1 54/7/1
f 57/7/1 55/7/1 56/7/1
f 62/7/1 59/7/1 58/7/1
f 63/7/1 59/7/1 62/7/1
f 64/7/1 61/7/1 60/7/1
f 65/7/1 61/7/1 64/7/1
f 66/7/2 67/7/2 70/7/2
f 70/7/2 67/7/2 71/7/2
f 68/7/2 69/7/2 72/7/2
f 72/7/2 69/7/2 73/7/2
f 74/7/2 75/7/2 77/7/2
f 75/7/2 76/7/2 77/7/2
f 77/7/2 76/7/2 78/7/2
f 79/6/2 80/6/2 85/6/2
f 80/7/2 81/7/2 85/7/2
f 81/6/2 82/6/2 86/6/2
f 85/7/2 81/7/2 86/7/2
f 82/7/2 83/7/2 87/7/2
f 86/6/2 82/6/2 87/6/2
f 83/6/2 84/6/2 88/6/2
f 87/7/2 83/7/2 88/7/2
f 86/6/2 87/6/2 89/6/2
f 85/6/2 86/6/2 89/6/2
f 87/6/2 88/6/2 89/6/2
f 79/6/2 85/6/2 89/6/2
f 88/6/2 84/6/2 90/6/2
f 89/6/2 88/6/2 90/6/2
f 91/7/2 92/7/2 96/7/2
f 96/7/2 92/7/2 97/7/2
f 97/7/2 92/7/2 98/7/2
f 98/7/2 92/7/2 99/7/2
f 93/7/2 94/7/2 100/7/2
f 100/7/2 94/7/2 101/7/2
f 101/7/2 94/7/2 102/7/2
f 102/7/2 94/7/2 103/7/2
f 95/2/2 96/2/2 105/2/2
f 96/7/2 97/7/2 106/7/2
f 105/2/2 96/2/2 106/2/2
f 97/6/2 98/6/2 107/6/2
f 106/7/2 97/7/2 107/7/2
f 98/7/2 99/7/2 108/7/2
f 107/6/2 98/6/2 108/6/2
f 99/2/2 100/2/2 109/2/2
f 108/7/2 99/7/2 109/7/2
f 100/7/2 101/7/2 110/7/2
f 109/2/2 100/2/2 110/2/2
f 101/6/2 102/6/2 111/6/2
f 110/7/2 101/7/2 111/7/2
f 102/7/2 103/7/2 112/7/2
f 111/6/2 102/6/2 112/6/2
f 103/2/2 104/2/2 113/2/2
f 112/7/2 103/7/2 113/7/2
f 113/2/2 104/2/2 114/2/2
f 105/3/2 106/3/2 115/3/2
f 106/7/2 107/7/2 116/7/2
f 115/3/2 106/3/2 116/3/2
f 107/7/2 108/7/2 116/7/2
f 108/7/2 109/7/2 116/7/2
f 109/3/2 110/3/2 117/3/2
f 116/7/2 109/7/2 117/7/2
f 111/7/2 112/7/2 118/7/2
f 117/3/2 110/3/2 118/3/2
f 112/7/2 113/7/2 118/7/2
f 110/7/2 111/7/2 118/7/2
f 113/3/2 114/3/2 119/3/2
f 118/7/2 113/7/2 119/7/2
f 119/3/2 114/3/2 120/3/2
f 116/5/2 117/5/2 121/5/2
f 117/5/2 118/5/2 121/5/2
f 119/5/2 120/5/2 121/5/2
f 118/5/2 119/5/2 121/5/2
f 115/5/2 116/5/2 121/5/2
f 121/5/2 120/5/2 122/5/2
f 115/5/2 121/5/2 123/5/2
f 123/5/2 121/5/2 124/5/2
f 122/5/2 120/5/2 125/5/2
f 125/5/2 120/5/2 126/5/2
f 127/3/2 128/3/2 129/3/2
f 129/3/2 128/3/2 130/3/2
f 135/3/3 133/3/3 132/3/3
f 135/5/3 134/5/3 133/5/3
f 136/5/3 134/5/3 135/5/3
f 137/3/3 135/3/3 132/3/3
f 137/6/3 136/6/3 135/6/3
f 138/5/3 134/5/3 136/5/3
f 138/6/3 136/6/3 137/6/3
f 139/5/3 134/5/3 138/5/3
f 140/3/3 137/3/3 132/3/3
f 140/3/3 138/3/3 137/3/3
f 140/3/3 139/3/3 138/3/3
f 141/3/3 139/3/3 140/3/3
f 142/3/3 139/3/3 141/3/3
f 143/3/3 140/3/3 132/3/3
f 143/6/3 141/6/3 140/6/3
f 144/5/3 142/5/3 141/5/3
f 144/6/3 141/6/3 143/6/3
f 145/2/3 132/2/3 131/2/3
f 146/3/3 143/3/3 132/3/3
f 146/2/3 132/2/3 145/2/3
f 147/5/3 144/5/3 143/5/3
f 147/3/3 143/3/3 146/3/3
f 148/5/3 142/5/3 144/5/3
f 148/5/3 144/5/3 147/5/3
f 151/7/3 150/7/3 149/7/3
f 152/7/3 150/7/3 151/7/3
f 155/7/3 154/7/3 153/7/3
f 156/7/3 154/7/3 155/7/3
f 159/6/3 158/6/3 157/6/3
f 160/6/3 158/6/3 159/6/3
f 161/6/3 158/6/3 160/6/3
f 162/6/3 158/6/3 161/6/3
f 165/3/3 164/3/3 163/3/3
f 166/3/3 164/3/3 165/3/3
f 169/3/3 168/3/3 167/3/3
f 170/3/3 168/3/3 169/3/3
f 173/7/3 172/7/3 171/7/3
f 174/7/3 172/7/3 173/7/3
f 177/7/3 176/7/3 175/7/3
f 178/7/3 176/7/3 177/7/3
f 181/7/3 180/7/3 179/7/3
f 182/7/3 180/7/3 181/7/3
f 183/7/4 184/7/4 185/7/4
f 185/7/4 184/7/4 186/7/4
f 187/7/4 188/7/4 189/7/4
f 189/7/4 188/7/4 190/7/4
f 191/6/4 192/6/4 193/6/4
f 193/6/4 192/6/4 194/6/4
f 195/3/4 196/3/4 197/3/4
f 197/3/4 196/3/4 198/3/4
f 199/3/4 200/3/4 201/3/4
f 201/3/4 200/3/4 202/3/4
f 203/6/4 204/6/4 205/6/4
f 205/6/4 204/6/4 206/6/4
f 205/7/4 206/7/4 207/7/4
f 206/6/4 204/6/4 208/6/4
f 207/7/4 206/7/4 208/7/4
f 207/6/4 208/6/4 209/6/4
f 208/6/4 204/6/4 210/6/4
f 209/6/4 208/6/4 210/6/4
f 211/7/4 212/7/4 213/7/4
f 213/7/4 212/7/4 214/7/4
f 215/7/4 216/7/4 217/7/4
f 217/7/4 216/7/4 218/7/4
f 220/3/4 221/3/4 223/3/4
f 221/5/4 222/5/4 223/5/4
f 223/5/4 222/5/4 224/5/4
f 220/3/4 223/3/4 225/3/4
f 223/6/4 224/6/4 225/6/4
f 224/5/4 222/5/4 226/5/4
f 225/6/4 224/6/4 226/6/4
f 226/5/4 222/5/4 227/5/4
f 220/3/4 225/3/4 228/3/4
f 225/3/4 226/3/4 228/3/4
f 226/3/4 227/3/4 228/3/4
f 228/3/4 227/3/4 229/3/4
f 229/3/4 227/3/4 230/3/4
f 220/3/4 228/3/4 231/3/4
f 228/6/4 229/6/4 231/6/4
f 229/5/4 230/5/4 232/5/4
f 231/6/4 229/6/4 232/6/4
f 219/2/4 220/2/4 233/2/4
f 220/3/4 231/3/4 234/3/4
f 233/2/4 220/2/4 234/2/4
f 231/5/4 232/5/4 235/5/4
f 234/3/4 231/3/4 235/3/4
f 232/5/4 230/5/4 236/5/4
f 235/5/4 232/5/4 236/5/4
f 241/7/5 238/7/5 237/7/5
f 242/7/5 238/7/5 241/7/5
f 243/7/5 240/7/5 239/7/5
f 244/7/5 240/7/5 243/7/5
f 249/7/5 246/7/5 245/7/5
f 250/7/5 246/7/5 249/7/5
f 251/7/5 248/7/5 247/7/5
f 252/7/5 248/7/5 251/7/5
f 255/2/5 254/2/5 253/2/5
f 256/2/5 254/2/5 255/2/5
f 257/2/5 254/2/5 256/2/5
f 258/2/5 254/2/5 257/2/5
f 260/5/5 257/5/5 256/5/5
f 261/5/5 257/5/5 260/5/5
f 263/2/5 260/2/5 259/2/5
f 264/5/5 261/5/5 260/5/5
f 264/2/5 260/2/5 263/2/5
f 265/2/5 262/2/5 261/2/5
f 265/5/5 261/5/5 264/5/5
f 266/2/5 262/2/5 265/2/5
f 268/5/5 265/5/5 264/5/5
f 269/5/5 265/5/5 268/5/5
f 271/2/5 268/2/5 267/2/5
f 271/2/5 270/2/5 269/2/5
f 271/2/5 269/2/5 268/2/5
f 272/2/5 270/2/5 271/2/5
f 277/3/5 274/3/5 273/3/5
f 278/3/5 274/3/5 277/3/5
f 279/3/5 276/3/5 275/3/5
f 280/3/5 276/3/5 279/3/5
f 283/6/5 282/6/5 281/6/5
f 284/6/5 282/6/5 283/6/5
f 285/5/6 286/5/6 289/5/6
f 286/3/6 287/3/6 290/3/6
f 289/5/6 286/5/6 290/5/6
f 287/5/6 288/5/6 291/5/6
f 290/3/6 287/3/6 291/3/6
f 291/5/6 288/5/6 292/5/6
f 285/5/6 289/5/6 293/5/6
f 292/5/6 288/5/6 294/5/6
f 285/5/6 293/5/6 295/5/6
f 294/5/6 288/5/6 296/5/6
f 285/5/6 295/5/6 297/5/6
f 296/5/6 288/5/6 300/5/6
f 285/5/6 297/5/6 302/5/6
f 300/5/6 288/5/6 303/5/6
f 298/1/6 299/1/6 305/1/6
f 305/1/6 299/1/6 306/1/6
f 301/3/6 302/3/6 307/3/6
f 302/5/6 297/5/6 308/5/6
f 307/3/6 302/3/6 308/3/6
f 308/5/6 297/5/6 309/5/6
f 305/5/6 306/5/6 310/5/6
f 310/5/6 306/5/6 311/5/6
f 300/5/6 303/5/6 312/5/6
f 303/3/6 304/3/6 313/3/6
f 312/5/6 303/5/6 313/5/6
f 313/3/6 304/3/6 314/3/6
f 308/5/6 309/5/6 315/5/6
f 312/5/6 313/5/6 318/5/6
f 308/5/6 315/5/6 319/5/6
f 315/5/6 316/5/6 319/5/6
f 316/3/6 317/3/6 320/3/6
f 319/5/6 316/5/6 320/5/6
f 317/5/6 318/5/6 321/5/6
f 320/3/6 317/3/6 321/3/6
f 318/5/6 313/5/6 322/5/6
f 321/5/6 318/5/6 322/5/6
f 323/6/6 324/6/6 325/6/6
f 325/6/6 324/6/6 326/6/6
