# MagicaVoxel @ Ephtracy

# material
mtllib tree2.mtl
usemtl palette

# normals
vn -1 0 0
vn 1 0 0
vn 0 0 1
vn 0 0 -1
vn 0 -1 0
vn 0 1 0

# texcoords
vt 0.556641 0.5
vt 0.630859 0.5
vt 0.654297 0.5
vt 0.869141 0.5

# verts
v -2.5 3 2.5
v -2.5 3 -2.5
v -2.5 4 2.5
v -2.5 4 -2.5
v -2.5 6 2.5
v -2.5 6 -2.5
v -2.5 7 2.5
v -2.5 7 -2.5
v -2.5 9 2.5
v -2.5 9 -2.5
v -2.5 10 2.5
v -2.5 10 -2.5
v -2.5 12 2.5
v -2.5 12 -2.5
v -2.5 13 2.5
v -2.5 13 -2.5
v -1.5 0 1.5
v -1.5 0 -1.5
v -1.5 3 1.5
v -1.5 3 -1.5
v 1.5 0 1.5
v 1.5 0 -1.5
v 1.5 3 1.5
v 1.5 3 -1.5
v 2.5 3 2.5
v 2.5 3 -2.5
v 2.5 4 2.5
v 2.5 4 -2.5
v 2.5 6 2.5
v 2.5 6 -2.5
v 2.5 7 2.5
v 2.5 7 -2.5
v 2.5 9 2.5
v 2.5 9 -2.5
v 2.5 10 2.5
v 2.5 10 -2.5
v 2.5 12 2.5
v 2.5 12 -2.5
v 2.5 13 2.5
v 2.5 13 -2.5
v -2.5 3 2.5
v -2.5 4 2.5
v -2.5 6 2.5
v -2.5 7 2.5
v -2.5 9 2.5
v -2.5 10 2.5
v -2.5 12 2.5
v -2.5 13 2.5
v 2.5 3 2.5
v 2.5 4 2.5
v 2.5 6 2.5
v 2.5 7 2.5
v 2.5 9 2.5
v 2.5 10 2.5
v 2.5 12 2.5
v 2.5 13 2.5
v -1.5 0 1.5
v -1.5 3 1.5
v 0.5 0 1.5
v 0.5 3 1.5
v 1.5 0 1.5
v 1.5 3 1.5
v -1.5 0 -1.5
v -1.5 3 -1.5
v 0.5 0 -1.5
v 0.5 3 -1.5
v 1.5 0 -1.5
v 1.5 3 -1.5
v -2.5 3 -2.5
v -2.5 4 -2.5
v -2.5 6 -2.5
v -2.5 7 -2.5
v -2.5 9 -2.5
v -2.5 10 -2.5
v -2.5 12 -2.5
v -2.5 13 -2.5
v 2.5 3 -2.5
v 2.5 4 -2.5
v 2.5 6 -2.5
v 2.5 7 -2.5
v 2.5 9 -2.5
v 2.5 10 -2.5
v 2.5 12 -2.5
v 2.5 13 -2.5
v -1.5 0 1.5
v 0.5 0 1.5
v 1.5 0 1.5
v -1.5 0 -1.5
v 0.5 0 -1.5
v 1.5 0 -1.5
v -2.5 3 2.5
v 2.5 3 2.5
v -1.5 3 1.5
v 0.5 3 1.5
v 1.5 3 1.5
v -1.5 3 -1.5
v 0.5 3 -1.5
v 1.5 3 -1.5
v -2.5 3 -2.5
v 2.5 3 -2.5
v -2.5 13 2.5
v 2.5 13 2.5
v -2.5 13 -2.5
v 2.5 13 -2.5

# faces
f 3/3/1 2/3/1 1/3/1
f 4/3/1 2/3/1 3/3/1
f 5/2/1 4/2/1 3/2/1
f 6/2/1 4/2/1 5/2/1
f 7/3/1 6/3/1 5/3/1
f 8/3/1 6/3/1 7/3/1
f 9/2/1 8/2/1 7/2/1
f 10/2/1 8/2/1 9/2/1
f 11/3/1 10/3/1 9/3/1
f 12/3/1 10/3/1 11/3/1
f 13/2/1 12/2/1 11/2/1
f 14/2/1 12/2/1 13/2/1
f 15/3/1 14/3/1 13/3/1
f 16/3/1 14/3/1 15/3/1
f 19/1/1 18/1/1 17/1/1
f 20/1/1 18/1/1 19/1/1
f 21/4/2 22/4/2 23/4/2
f 23/4/2 22/4/2 24/4/2
f 25/3/2 26/3/2 27/3/2
f 27/3/2 26/3/2 28/3/2
f 27/2/2 28/2/2 29/2/2
f 29/2/2 28/2/2 30/2/2
f 29/3/2 30/3/2 31/3/2
f 31/3/2 30/3/2 32/3/2
f 31/2/2 32/2/2 33/2/2
f 33/2/2 32/2/2 34/2/2
f 33/3/2 34/3/2 35/3/2
f 35/3/2 34/3/2 36/3/2
f 35/2/2 36/2/2 37/2/2
f 37/2/2 36/2/2 38/2/2
f 37/3/2 38/3/2 39/3/2
f 39/3/2 38/3/2 40/3/2
f 49/3/3 42/3/3 41/3/3
f 50/2/3 43/2/3 42/2/3
f 50/3/3 42/3/3 49/3/3
f 51/3/3 44/3/3 43/3/3
f 51/2/3 43/2/3 50/2/3
f 52/2/3 45/2/3 44/2/3
f 52/3/3 44/3/3 51/3/3
f 53/3/3 46/3/3 45/3/3
f 53/2/3 45/2/3 52/2/3
f 54/2/3 47/2/3 46/2/3
f 54/3/3 46/3/3 53/3/3
f 55/3/3 48/3/3 47/3/3
f 55/2/3 47/2/3 54/2/3
f 56/3/3 48/3/3 55/3/3
f 59/1/3 58/1/3 57/1/3
f 60/1/3 58/1/3 59/1/3
f 61/4/3 60/4/3 59/4/3
f 62/4/3 60/4/3 61/4/3
f 63/1/4 64/1/4 65/1/4
f 65/1/4 64/1/4 66/1/4
f 65/4/4 66/4/4 67/4/4
f 67/4/4 66/4/4 68/4/4
f 69/3/4 70/3/4 77/3/4
f 70/2/4 71/2/4 78/2/4
f 77/3/4 70/3/4 78/3/4
f 71/3/4 72/3/4 79/3/4
f 78/2/4 71/2/4 79/2/4
f 72/2/4 73/2/4 80/2/4
f 79/3/4 72/3/4 80/3/4
f 73/3/4 74/3/4 81/3/4
f 80/2/4 73/2/4 81/2/4
f 74/2/4 75/2/4 82/2/4
f 81/3/4 74/3/4 82/3/4
f 75/3/4 76/3/4 83/3/4
f 82/2/4 75/2/4 83/2/4
f 83/3/4 76/3/4 84/3/4
f 88/1/5 86/1/5 85/1/5
f 89/4/5 87/4/5 86/4/5
f 89/1/5 86/1/5 88/1/5
f 90/4/5 87/4/5 89/4/5
f 93/3/5 92/3/5 91/3/5
f 94/3/5 92/3/5 93/3/5
f 95/3/5 92/3/5 94/3/5
f 96/3/5 93/3/5 91/3/5
f 98/3/5 92/3/5 95/3/5
f 99/3/5 97/3/5 96/3/5
f 99/3/5 98/3/5 97/3/5
f 99/3/5 96/3/5 91/3/5
f 100/3/5 92/3/5 98/3/5
f 100/3/5 98/3/5 99/3/5
f 101/3/6 102/3/6 103/3/6
f 103/3/6 102/3/6 104/3/6
