# MagicaVoxel @ Ephtracy

# material
mtllib lamp.mtl
usemtl palette

# normals
vn -1 0 0
vn 1 0 0
vn 0 0 1
vn 0 0 -1
vn 0 -1 0
vn 0 1 0

# texcoords
vt 0.419922 0.5
vt 0.958984 0.5
vt 0.994141 0.5

# verts
v -1.5 11 1.5
v -1.5 11 0.5
v -1.5 11 -0.5
v -1.5 11 -1.5
v -1.5 12 1.5
v -1.5 12 0.5
v -1.5 12 -0.5
v -1.5 12 -1.5
v -1.5 13 1.5
v -1.5 13 0.5
v -1.5 13 -0.5
v -1.5 13 -1.5
v -0.5 11 2.5
v -0.5 11 1.5
v -0.5 11 0.5
v -0.5 11 -0.5
v -0.5 11 -1.5
v -0.5 11 -2.5
v -0.5 12 1.5
v -0.5 12 0.5
v -0.5 12 -0.5
v -0.5 12 -1.5
v -0.5 13 2.5
v -0.5 13 1.5
v -0.5 13 0.5
v -0.5 13 -0.5
v -0.5 13 -1.5
v -0.5 13 -2.5
v 0.5 0 0.5
v 0.5 0 -0.5
v 0.5 2 0.5
v 0.5 2 -0.5
v 0.5 3 0.5
v 0.5 3 -0.5
v 0.5 5 0.5
v 0.5 5 -0.5
v 0.5 6 0.5
v 0.5 6 -0.5
v 0.5 8 0.5
v 0.5 8 -0.5
v 0.5 9 0.5
v 0.5 9 -0.5
v 0.5 11 0.5
v 0.5 11 -0.5
v 0.5 13 0.5
v 0.5 13 -0.5
v 0.5 14 0.5
v 0.5 14 -0.5
v 0.5 15 0.5
v 0.5 15 -0.5
v 0.5 11 2.5
v 0.5 11 0.5
v 0.5 11 -0.5
v 0.5 11 -2.5
v 0.5 12 0.5
v 0.5 12 -0.5
v 0.5 13 2.5
v 0.5 13 0.5
v 0.5 13 -0.5
v 0.5 13 -2.5
v 1.5 0 0.5
v 1.5 0 -0.5
v 1.5 2 0.5
v 1.5 2 -0.5
v 1.5 3 0.5
v 1.5 3 -0.5
v 1.5 5 0.5
v 1.5 5 -0.5
v 1.5 6 0.5
v 1.5 6 -0.5
v 1.5 8 0.5
v 1.5 8 -0.5
v 1.5 9 0.5
v 1.5 9 -0.5
v 1.5 11 0.5
v 1.5 11 -0.5
v 1.5 12 0.5
v 1.5 12 -0.5
v 1.5 14 0.5
v 1.5 14 -0.5
v 1.5 15 0.5
v 1.5 15 -0.5
v -0.5 11 2.5
v -0.5 13 2.5
v 0.5 11 2.5
v 0.5 13 2.5
v -1.5 11 1.5
v -1.5 12 1.5
v -1.5 13 1.5
v -0.5 11 1.5
v -0.5 12 1.5
v -0.5 13 1.5
v 0.5 0 0.5
v 0.5 2 0.5
v 0.5 3 0.5
v 0.5 5 0.5
v 0.5 6 0.5
v 0.5 8 0.5
v 0.5 9 0.5
v 0.5 11 0.5
v 0.5 12 0.5
v 0.5 13 0.5
v 0.5 14 0.5
v 0.5 15 0.5
v 1.5 0 0.5
v 1.5 2 0.5
v 1.5 3 0.5
v 1.5 5 0.5
v 1.5 6 0.5
v 1.5 8 0.5
v 1.5 9 0.5
v 1.5 11 0.5
v 1.5 12 0.5
v 1.5 14 0.5
v 1.5 15 0.5
v -1.5 11 -0.5
v -1.5 12 -0.5
v -1.5 13 -0.5
v -0.5 11 -0.5
v -0.5 12 -0.5
v -0.5 13 -0.5
v -1.5 11 0.5
v -1.5 12 0.5
v -1.5 13 0.5
v -0.5 11 0.5
v -0.5 12 0.5
v -0.5 13 0.5
v 0.5 0 -0.5
v 0.5 2 -0.5
v 0.5 3 -0.5
v 0.5 5 -0.5
v 0.5 6 -0.5
v 0.5 8 -0.5
v 0.5 9 -0.5
v 0.5 11 -0.5
v 0.5 12 -0.5
v 0.5 13 -0.5
v 0.5 14 -0.5
v 0.5 15 -0.5
v 1.5 0 -0.5
v 1.5 2 -0.5
v 1.5 3 -0.5
v 1.5 5 -0.5
v 1.5 6 -0.5
v 1.5 8 -0.5
v 1.5 9 -0.5
v 1.5 11 -0.5
v 1.5 12 -0.5
v 1.5 14 -0.5
v 1.5 15 -0.5
v -1.5 11 -1.5
v -1.5 12 -1.5
v -1.5 13 -1.5
v -0.5 11 -1.5
v -0.5 12 -1.5
v -0.5 13 -1.5
v -0.5 11 -2.5
v -0.5 13 -2.5
v 0.5 11 -2.5
v 0.5 13 -2.5
v 0.5 0 0.5
v 1.5 0 0.5
v 0.5 0 -0.5
v 1.5 0 -0.5
v -0.5 11 2.5
v 0.5 11 2.5
v -1.5 11 1.5
v -0.5 11 1.5
v -1.5 11 0.5
v -0.5 11 0.5
v 0.5 11 0.5
v -1.5 11 -0.5
v -0.5 11 -0.5
v 0.5 11 -0.5
v -1.5 11 -1.5
v -0.5 11 -1.5
v -0.5 11 -2.5
v 0.5 11 -2.5
v -0.5 13 2.5
v 0.5 13 2.5
v -1.5 13 1.5
v -0.5 13 1.5
v -1.5 13 0.5
v -0.5 13 0.5
v 0.5 13 0.5
v -1.5 13 -0.5
v -0.5 13 -0.5
v 0.5 13 -0.5
v -1.5 13 -1.5
v -0.5 13 -1.5
v -0.5 13 -2.5
v 0.5 13 -2.5
v 0.5 15 0.5
v 1.5 15 0.5
v 0.5 15 -0.5
v 1.5 15 -0.5

# faces
f 5/1/1 2/1/1 1/1/1
f 6/1/1 2/1/1 5/1/1
f 7/1/1 4/1/1 3/1/1
f 8/1/1 4/1/1 7/1/1
f 9/3/1 6/3/1 5/3/1
f 10/3/1 6/3/1 9/3/1
f 11/3/1 8/3/1 7/3/1
f 12/3/1 8/3/1 11/3/1
f 19/3/1 14/3/1 13/3/1
f 20/3/1 16/3/1 15/3/1
f 21/3/1 16/3/1 20/3/1
f 22/3/1 18/3/1 17/3/1
f 23/3/1 19/3/1 13/3/1
f 24/3/1 19/3/1 23/3/1
f 25/3/1 21/3/1 20/3/1
f 26/3/1 21/3/1 25/3/1
f 27/3/1 18/3/1 22/3/1
f 28/3/1 18/3/1 27/3/1
f 31/1/1 30/1/1 29/1/1
f 32/1/1 30/1/1 31/1/1
f 33/2/1 32/2/1 31/2/1
f 34/2/1 32/2/1 33/2/1
f 35/1/1 34/1/1 33/1/1
f 36/1/1 34/1/1 35/1/1
f 37/2/1 36/2/1 35/2/1
f 38/2/1 36/2/1 37/2/1
f 39/1/1 38/1/1 37/1/1
f 40/1/1 38/1/1 39/1/1
f 41/2/1 40/2/1 39/2/1
f 42/2/1 40/2/1 41/2/1
f 43/1/1 42/1/1 41/1/1
f 44/1/1 42/1/1 43/1/1
f 47/1/1 46/1/1 45/1/1
f 48/1/1 46/1/1 47/1/1
f 49/2/1 48/2/1 47/2/1
f 50/2/1 48/2/1 49/2/1
f 51/3/2 52/3/2 55/3/2
f 53/3/2 54/3/2 56/3/2
f 51/3/2 55/3/2 57/3/2
f 57/3/2 55/3/2 58/3/2
f 56/3/2 54/3/2 59/3/2
f 59/3/2 54/3/2 60/3/2
f 61/1/2 62/1/2 63/1/2
f 63/1/2 62/1/2 64/1/2
f 63/2/2 64/2/2 65/2/2
f 65/2/2 64/2/2 66/2/2
f 65/1/2 66/1/2 67/1/2
f 67/1/2 66/1/2 68/1/2
f 67/2/2 68/2/2 69/2/2
f 69/2/2 68/2/2 70/2/2
f 69/1/2 70/1/2 71/1/2
f 71/1/2 70/1/2 72/1/2
f 71/2/2 72/2/2 73/2/2
f 73/2/2 72/2/2 74/2/2
f 73/1/2 74/1/2 75/1/2
f 75/1/2 74/1/2 76/1/2
f 75/2/2 76/2/2 77/2/2
f 77/2/2 76/2/2 78/2/2
f 77/1/2 78/1/2 79/1/2
f 79/1/2 78/1/2 80/1/2
f 79/2/2 80/2/2 81/2/2
f 81/2/2 80/2/2 82/2/2
f 85/3/3 84/3/3 83/3/3
f 86/3/3 84/3/3 85/3/3
f 90/1/3 88/1/3 87/1/3
f 91/3/3 89/3/3 88/3/3
f 91/1/3 88/1/3 90/1/3
f 92/3/3 89/3/3 91/3/3
f 105/1/3 94/1/3 93/1/3
f 106/2/3 95/2/3 94/2/3
f 106/1/3 94/1/3 105/1/3
f 107/1/3 96/1/3 95/1/3
f 107/2/3 95/2/3 106/2/3
f 108/2/3 97/2/3 96/2/3
f 108/1/3 96/1/3 107/1/3
f 109/1/3 98/1/3 97/1/3
f 109/2/3 97/2/3 108/2/3
f 110/2/3 99/2/3 98/2/3
f 110/1/3 98/1/3 109/1/3
f 111/1/3 100/1/3 99/1/3
f 111/2/3 99/2/3 110/2/3
f 112/2/3 101/2/3 100/2/3
f 112/1/3 100/1/3 111/1/3
f 113/1/3 102/1/3 101/1/3
f 113/2/3 101/2/3 112/2/3
f 113/1/3 103/1/3 102/1/3
f 114/2/3 104/2/3 103/2/3
f 114/1/3 103/1/3 113/1/3
f 115/2/3 104/2/3 114/2/3
f 119/1/3 117/1/3 116/1/3
f 120/3/3 118/3/3 117/3/3
f 120/1/3 117/1/3 119/1/3
f 121/3/3 118/3/3 120/3/3
f 122/1/4 123/1/4 125/1/4
f 123/3/4 124/3/4 126/3/4
f 125/1/4 123/1/4 126/1/4
f 126/3/4 124/3/4 127/3/4
f 128/1/4 129/1/4 140/1/4
f 129/2/4 130/2/4 141/2/4
f 140/1/4 129/1/4 141/1/4
f 130/1/4 131/1/4 142/1/4
f 141/2/4 130/2/4 142/2/4
f 131/2/4 132/2/4 143/2/4
f 142/1/4 131/1/4 143/1/4
f 132/1/4 133/1/4 144/1/4
f 143/2/4 132/2/4 144/2/4
f 133/2/4 134/2/4 145/2/4
f 144/1/4 133/1/4 145/1/4
f 134/1/4 135/1/4 146/1/4
f 145/2/4 134/2/4 146/2/4
f 135/2/4 136/2/4 147/2/4
f 146/1/4 135/1/4 147/1/4
f 136/1/4 137/1/4 148/1/4
f 147/2/4 136/2/4 148/2/4
f 137/1/4 138/1/4 148/1/4
f 138/2/4 139/2/4 149/2/4
f 148/1/4 138/1/4 149/1/4
f 149/2/4 139/2/4 150/2/4
f 151/1/4 152/1/4 154/1/4
f 152/3/4 153/3/4 155/3/4
f 154/1/4 152/1/4 155/1/4
f 155/3/4 153/3/4 156/3/4
f 157/3/4 158/3/4 159/3/4
f 159/3/4 158/3/4 160/3/4
f 163/1/5 162/1/5 161/1/5
f 164/1/5 162/1/5 163/1/5
f 168/3/5 166/3/5 165/3/5
f 169/1/5 168/1/5 167/1/5
f 170/3/5 166/3/5 168/3/5
f 170/1/5 168/1/5 169/1/5
f 171/3/5 166/3/5 170/3/5
f 173/3/5 171/3/5 170/3/5
f 174/3/5 171/3/5 173/3/5
f 175/1/5 173/1/5 172/1/5
f 176/3/5 174/3/5 173/3/5
f 176/1/5 173/1/5 175/1/5
f 177/3/5 174/3/5 176/3/5
f 178/3/5 174/3/5 177/3/5
f 179/3/6 180/3/6 182/3/6
f 181/3/6 182/3/6 183/3/6
f 182/3/6 180/3/6 184/3/6
f 183/3/6 182/3/6 184/3/6
f 184/3/6 180/3/6 185/3/6
f 184/3/6 185/3/6 187/3/6
f 187/3/6 185/3/6 188/3/6
f 186/3/6 187/3/6 189/3/6
f 187/3/6 188/3/6 189/3/6
f 189/3/6 188/3/6 190/3/6
f 190/3/6 188/3/6 191/3/6
f 191/3/6 188/3/6 192/3/6
f 193/2/6 194/2/6 195/2/6
f 195/2/6 194/2/6 196/2/6
