# MagicaVoxel @ Ephtracy

# material
mtllib lamp.mtl
usemtl palette

# normals
vn -1 0 0
vn 1 0 0
vn 0 0 1
vn 0 0 -1
vn 0 -1 0
vn 0 1 0

# texcoords
vt 0.419922 0.5
vt 0.958984 0.5
vt 0.994141 0.5

# verts
v -1.5 12 1.5
v -1.5 12 0.5
v -1.5 12 -0.5
v -1.5 12 -1.5
v -1.5 13 1.5
v -1.5 13 0.5
v -1.5 13 -0.5
v -1.5 13 -1.5
v -0.5 11 2.5
v -0.5 11 -2.5
v -0.5 12 1.5
v -0.5 12 0.5
v -0.5 12 -0.5
v -0.5 12 -1.5
v -0.5 13 2.5
v -0.5 13 1.5
v -0.5 13 0.5
v -0.5 13 -0.5
v -0.5 13 -1.5
v -0.5 13 -2.5
v 0.5 0 0.5
v 0.5 0 -0.5
v 0.5 2 0.5
v 0.5 2 -0.5
v 0.5 3 0.5
v 0.5 3 -0.5
v 0.5 5 0.5
v 0.5 5 -0.5
v 0.5 6 0.5
v 0.5 6 -0.5
v 0.5 8 0.5
v 0.5 8 -0.5
v 0.5 9 0.5
v 0.5 9 -0.5
v 0.5 11 0.5
v 0.5 11 -0.5
v 0.5 13 0.5
v 0.5 13 -0.5
v 0.5 14 0.5
v 0.5 14 -0.5
v 0.5 15 0.5
v 0.5 15 -0.5
v 0.5 11 2.5
v 0.5 11 0.5
v 0.5 11 -0.5
v 0.5 11 -2.5
v 0.5 12 0.5
v 0.5 12 -0.5
v 0.5 13 2.5
v 0.5 13 0.5
v 0.5 13 -0.5
v 0.5 13 -2.5
v 1.5 0 0.5
v 1.5 0 -0.5
v 1.5 2 0.5
v 1.5 2 -0.5
v 1.5 3 0.5
v 1.5 3 -0.5
v 1.5 5 0.5
v 1.5 5 -0.5
v 1.5 6 0.5
v 1.5 6 -0.5
v 1.5 8 0.5
v 1.5 8 -0.5
v 1.5 9 0.5
v 1.5 9 -0.5
v 1.5 11 0.5
v 1.5 11 -0.5
v 1.5 12 0.5
v 1.5 12 -0.5
v 1.5 14 0.5
v 1.5 14 -0.5
v 1.5 15 0.5
v 1.5 15 -0.5
v -0.5 11 2.5
v -0.5 13 2.5
v 0.5 11 2.5
v 0.5 13 2.5
v -1.5 12 1.5
v -1.5 13 1.5
v -0.5 12 1.5
v -0.5 13 1.5
v 0.5 0 0.5
v 0.5 2 0.5
v 0.5 3 0.5
v 0.5 5 0.5
v 0.5 6 0.5
v 0.5 8 0.5
v 0.5 9 0.5
v 0.5 11 0.5
v 0.5 12 0.5
v 0.5 13 0.5
v 0.5 14 0.5
v 0.5 15 0.5
v 1.5 0 0.5
v 1.5 2 0.5
v 1.5 3 0.5
v 1.5 5 0.5
v 1.5 6 0.5
v 1.5 8 0.5
v 1.5 9 0.5
v 1.5 11 0.5
v 1.5 12 0.5
v 1.5 14 0.5
v 1.5 15 0.5
v -1.5 12 -0.5
v -1.5 13 -0.5
v -0.5 12 -0.5
v -0.5 13 -0.5
v -1.5 12 0.5
v -1.5 13 0.5
v -0.5 12 0.5
v -0.5 13 0.5
v 0.5 0 -0.5
v 0.5 2 -0.5
v 0.5 3 -0.5
v 0.5 5 -0.5
v 0.5 6 -0.5
v 0.5 8 -0.5
v 0.5 9 -0.5
v 0.5 11 -0.5
v 0.5 12 -0.5
v 0.5 13 -0.5
v 0.5 14 -0.5
v 0.5 15 -0.5
v 1.5 0 -0.5
v 1.5 2 -0.5
v 1.5 3 -0.5
v 1.5 5 -0.5
v 1.5 6 -0.5
v 1.5 8 -0.5
v 1.5 9 -0.5
v 1.5 11 -0.5
v 1.5 12 -0.5
v 1.5 14 -0.5
v 1.5 15 -0.5
v -1.5 12 -1.5
v -1.5 13 -1.5
v -0.5 12 -1.5
v -0.5 13 -1.5
v -0.5 11 -2.5
v -0.5 13 -2.5
v 0.5 11 -2.5
v 0.5 13 -2.5
v 0.5 0 0.5
v 1.5 0 0.5
v 0.5 0 -0.5
v 1.5 0 -0.5
v -0.5 11 2.5
v 0.5 11 2.5
v 0.5 11 0.5
v 0.5 11 -0.5
v -0.5 11 -2.5
v 0.5 11 -2.5
v -1.5 12 1.5
v -0.5 12 1.5
v -1.5 12 0.5
v -0.5 12 0.5
v -1.5 12 -0.5
v -0.5 12 -0.5
v -1.5 12 -1.5
v -0.5 12 -1.5
v -0.5 13 2.5
v 0.5 13 2.5
v -1.5 13 1.5
v -0.5 13 1.5
v -1.5 13 0.5
v -0.5 13 0.5
v 0.5 13 0.5
v -1.5 13 -0.5
v -0.5 13 -0.5
v 0.5 13 -0.5
v -1.5 13 -1.5
v -0.5 13 -1.5
v -0.5 13 -2.5
v 0.5 13 -2.5
v 0.5 15 0.5
v 1.5 15 0.5
v 0.5 15 -0.5
v 1.5 15 -0.5

# faces
f 5/3/1 2/3/1 1/3/1
f 6/3/1 2/3/1 5/3/1
f 7/3/1 4/3/1 3/3/1
f 8/3/1 4/3/1 7/3/1
f 11/3/1 10/3/1 9/3/1
f 12/3/1 10/3/1 11/3/1
f 13/3/1 10/3/1 12/3/1
f 14/3/1 10/3/1 13/3/1
f 15/3/1 11/3/1 9/3/1
f 16/3/1 11/3/1 15/3/1
f 17/3/1 13/3/1 12/3/1
f 18/3/1 13/3/1 17/3/1
f 19/3/1 10/3/1 14/3/1
f 20/3/1 10/3/1 19/3/1
f 23/1/1 22/1/1 21/1/1
f 24/1/1 22/1/1 23/1/1
f 25/2/1 24/2/1 23/2/1
f 26/2/1 24/2/1 25/2/1
f 27/1/1 26/1/1 25/1/1
f 28/1/1 26/1/1 27/1/1
f 29/2/1 28/2/1 27/2/1
f 30/2/1 28/2/1 29/2/1
f 31/1/1 30/1/1 29/1/1
f 32/1/1 30/1/1 31/1/1
f 33/2/1 32/2/1 31/2/1
f 34/2/1 32/2/1 33/2/1
f 35/1/1 34/1/1 33/1/1
f 36/1/1 34/1/1 35/1/1
f 39/1/1 38/1/1 37/1/1
f 40/1/1 38/1/1 39/1/1
f 41/2/1 40/2/1 39/2/1
f 42/2/1 40/2/1 41/2/1
f 43/3/2 44/3/2 47/3/2
f 45/3/2 46/3/2 48/3/2
f 43/3/2 47/3/2 49/3/2
f 49/3/2 47/3/2 50/3/2
f 48/3/2 46/3/2 51/3/2
f 51/3/2 46/3/2 52/3/2
f 53/1/2 54/1/2 55/1/2
f 55/1/2 54/1/2 56/1/2
f 55/2/2 56/2/2 57/2/2
f 57/2/2 56/2/2 58/2/2
f 57/1/2 58/1/2 59/1/2
f 59/1/2 58/1/2 60/1/2
f 59/2/2 60/2/2 61/2/2
f 61/2/2 60/2/2 62/2/2
f 61/1/2 62/1/2 63/1/2
f 63/1/2 62/1/2 64/1/2
f 63/2/2 64/2/2 65/2/2
f 65/2/2 64/2/2 66/2/2
f 65/1/2 66/1/2 67/1/2
f 67/1/2 66/1/2 68/1/2
f 67/2/2 68/2/2 69/2/2
f 69/2/2 68/2/2 70/2/2
f 69/1/2 70/1/2 71/1/2
f 71/1/2 70/1/2 72/1/2
f 71/2/2 72/2/2 73/2/2
f 73/2/2 72/2/2 74/2/2
f 77/3/3 76/3/3 75/3/3
f 78/3/3 76/3/3 77/3/3
f 81/3/3 80/3/3 79/3/3
f 82/3/3 80/3/3 81/3/3
f 95/1/3 84/1/3 83/1/3
f 96/2/3 85/2/3 84/2/3
f 96/1/3 84/1/3 95/1/3
f 97/1/3 86/1/3 85/1/3
f 97/2/3 85/2/3 96/2/3
f 98/2/3 87/2/3 86/2/3
f 98/1/3 86/1/3 97/1/3
f 99/1/3 88/1/3 87/1/3
f 99/2/3 87/2/3 98/2/3
f 100/2/3 89/2/3 88/2/3
f 100/1/3 88/1/3 99/1/3
f 101/1/3 90/1/3 89/1/3
f 101/2/3 89/2/3 100/2/3
f 102/2/3 91/2/3 90/2/3
f 102/1/3 90/1/3 101/1/3
f 103/1/3 92/1/3 91/1/3
f 103/2/3 91/2/3 102/2/3
f 103/1/3 93/1/3 92/1/3
f 104/2/3 94/2/3 93/2/3
f 104/1/3 93/1/3 103/1/3
f 105/2/3 94/2/3 104/2/3
f 108/3/3 107/3/3 106/3/3
f 109/3/3 107/3/3 108/3/3
f 110/3/4 111/3/4 112/3/4
f 112/3/4 111/3/4 113/3/4
f 114/1/4 115/1/4 126/1/4
f 115/2/4 116/2/4 127/2/4
f 126/1/4 115/1/4 127/1/4
f 116/1/4 117/1/4 128/1/4
f 127/2/4 116/2/4 128/2/4
f 117/2/4 118/2/4 129/2/4
f 128/1/4 117/1/4 129/1/4
f 118/1/4 119/1/4 130/1/4
f 129/2/4 118/2/4 130/2/4
f 119/2/4 120/2/4 131/2/4
f 130/1/4 119/1/4 131/1/4
f 120/1/4 121/1/4 132/1/4
f 131/2/4 120/2/4 132/2/4
f 121/2/4 122/2/4 133/2/4
f 132/1/4 121/1/4 133/1/4
f 122/1/4 123/1/4 134/1/4
f 133/2/4 122/2/4 134/2/4
f 123/1/4 124/1/4 134/1/4
f 124/2/4 125/2/4 135/2/4
f 134/1/4 124/1/4 135/1/4
f 135/2/4 125/2/4 136/2/4
f 137/3/4 138/3/4 139/3/4
f 139/3/4 138/3/4 140/3/4
f 141/3/4 142/3/4 143/3/4
f 143/3/4 142/3/4 144/3/4
f 147/1/5 146/1/5 145/1/5
f 148/1/5 146/1/5 147/1/5
f 151/3/5 150/3/5 149/3/5
f 152/3/5 151/3/5 149/3/5
f 153/3/5 152/3/5 149/3/5
f 154/3/5 152/3/5 153/3/5
f 157/3/5 156/3/5 155/3/5
f 158/3/5 156/3/5 157/3/5
f 161/3/5 160/3/5 159/3/5
f 162/3/5 160/3/5 161/3/5
f 163/3/6 164/3/6 166/3/6
f 165/3/6 166/3/6 167/3/6
f 166/3/6 164/3/6 168/3/6
f 167/3/6 166/3/6 168/3/6
f 168/3/6 164/3/6 169/3/6
f 168/3/6 169/3/6 171/3/6
f 171/3/6 169/3/6 172/3/6
f 170/3/6 171/3/6 173/3/6
f 171/3/6 172/3/6 173/3/6
f 173/3/6 172/3/6 174/3/6
f 174/3/6 172/3/6 175/3/6
f 175/3/6 172/3/6 176/3/6
f 177/2/6 178/2/6 179/2/6
f 179/2/6 178/2/6 180/2/6
