# MagicaVoxel @ Ephtracy

# material
mtllib grass-f.mtl
usemtl palette

# normals
vn -1 0 0
vn 1 0 0
vn 0 0 1
vn 0 0 -1
vn 0 -1 0
vn 0 1 0

# texcoords
vt 0.306641 0.5
vt 0.412109 0.5
vt 0.427734 0.5
vt 0.548828 0.5

# verts
v -4 0 62.5
v -4 0 42.5
v -4 0 30.5
v -4 0 -19.5
v -4 0 -20.5
v -4 0 -62.5
v -4 1 62.5
v -4 1 42.5
v -4 1 30.5
v -4 1 19.5
v -4 1 -19.5
v -4 1 -20.5
v -4 1 -62.5
v -4 2 62.5
v -4 2 19.5
v -4 2 -20.5
v -4 2 -62.5
v 4 0 62.5
v 4 0 -19.5
v 4 0 -20.5
v 4 0 -62.5
v 4 1 62.5
v 4 1 19.5
v 4 1 -19.5
v 4 1 -20.5
v 4 1 -62.5
v 4 2 62.5
v 4 2 19.5
v 4 2 -20.5
v 4 2 -62.5
v -4 0 62.5
v -4 1 62.5
v -4 2 62.5
v 4 0 62.5
v 4 1 62.5
v 4 2 62.5
v -4 0 -62.5
v -4 1 -62.5
v -4 2 -62.5
v 4 0 -62.5
v 4 1 -62.5
v 4 2 -62.5
v -4 0 62.5
v 4 0 62.5
v -4 0 42.5
v 2 0 42.5
v -4 0 30.5
v 2 0 30.5
v -4 0 -19.5
v 4 0 -19.5
v -4 0 -20.5
v 4 0 -20.5
v -4 0 -62.5
v 4 0 -62.5
v -4 2 62.5
v 4 2 62.5
v -4 2 19.5
v 4 2 19.5
v -4 2 -20.5
v 4 2 -20.5
v -4 2 -62.5
v 4 2 -62.5

# faces
f 7/4/1 2/4/1 1/4/1
f 8/3/1 3/3/1 2/3/1
f 8/4/1 2/4/1 7/4/1
f 9/4/1 4/4/1 3/4/1
f 9/3/1 3/3/1 8/3/1
f 10/4/1 4/4/1 9/4/1
f 11/1/1 5/1/1 4/1/1
f 11/4/1 4/4/1 10/4/1
f 12/4/1 6/4/1 5/4/1
f 12/1/1 5/1/1 11/1/1
f 13/4/1 6/4/1 12/4/1
f 14/2/1 8/2/1 7/2/1
f 14/2/1 10/2/1 9/2/1
f 14/2/1 9/2/1 8/2/1
f 15/1/1 11/1/1 10/1/1
f 15/2/1 10/2/1 14/2/1
f 15/1/1 12/1/1 11/1/1
f 16/2/1 13/2/1 12/2/1
f 16/1/1 12/1/1 15/1/1
f 17/2/1 13/2/1 16/2/1
f 18/4/2 19/4/2 22/4/2
f 22/4/2 19/4/2 23/4/2
f 19/1/2 20/1/2 24/1/2
f 23/4/2 19/4/2 24/4/2
f 20/4/2 21/4/2 25/4/2
f 24/1/2 20/1/2 25/1/2
f 25/4/2 21/4/2 26/4/2
f 22/2/2 23/2/2 27/2/2
f 23/1/2 24/1/2 28/1/2
f 27/2/2 23/2/2 28/2/2
f 24/1/2 25/1/2 28/1/2
f 25/2/2 26/2/2 29/2/2
f 28/1/2 25/1/2 29/1/2
f 29/2/2 26/2/2 30/2/2
f 34/4/3 32/4/3 31/4/3
f 35/2/3 33/2/3 32/2/3
f 35/4/3 32/4/3 34/4/3
f 36/2/3 33/2/3 35/2/3
f 37/4/4 38/4/4 40/4/4
f 38/2/4 39/2/4 41/2/4
f 40/4/4 38/4/4 41/4/4
f 41/2/4 39/2/4 42/2/4
f 45/4/5 44/4/5 43/4/5
f 46/4/5 44/4/5 45/4/5
f 47/3/5 46/3/5 45/3/5
f 48/4/5 44/4/5 46/4/5
f 48/3/5 46/3/5 47/3/5
f 49/4/5 48/4/5 47/4/5
f 50/4/5 44/4/5 48/4/5
f 50/4/5 48/4/5 49/4/5
f 51/1/5 50/1/5 49/1/5
f 52/1/5 50/1/5 51/1/5
f 53/4/5 52/4/5 51/4/5
f 54/4/5 52/4/5 53/4/5
f 55/2/6 56/2/6 57/2/6
f 57/2/6 56/2/6 58/2/6
f 57/1/6 58/1/6 59/1/6
f 59/1/6 58/1/6 60/1/6
f 59/2/6 60/2/6 61/2/6
f 61/2/6 60/2/6 62/2/6
