# MagicaVoxel @ Ephtracy

# material
mtllib taxi.mtl
usemtl palette

# normals
vn -1 0 0
vn 1 0 0
vn 0 0 1
vn 0 0 -1
vn 0 -1 0
vn 0 1 0

# texcoords
vt 0.267578 0.5
vt 0.306641 0.5
vt 0.333984 0.5
vt 0.419922 0.5
vt 0.494141 0.5
vt 0.521484 0.5
vt 0.669922 0.5
vt 0.958984 0.5
vt 0.994141 0.5

# verts
v -4.5 4 0.5
v -4.5 4 -1.5
v -4.5 5 0.5
v -4.5 5 -1.5
v -3.5 0 6.5
v -3.5 0 3.5
v -3.5 0 -2.5
v -3.5 0 -5.5
v -3.5 1 7.5
v -3.5 1 6.5
v -3.5 1 5.5
v -3.5 1 4.5
v -3.5 1 3.5
v -3.5 1 -2.5
v -3.5 1 -3.5
v -3.5 1 -4.5
v -3.5 1 -5.5
v -3.5 1 -7.5
v -3.5 2 7.5
v -3.5 2 6.5
v -3.5 2 5.5
v -3.5 2 4.5
v -3.5 2 3.5
v -3.5 2 -2.5
v -3.5 2 -3.5
v -3.5 2 -4.5
v -3.5 2 -5.5
v -3.5 2 -7.5
v -3.5 3 7.5
v -3.5 3 6.5
v -3.5 3 5.5
v -3.5 3 3.5
v -3.5 3 0.5
v -3.5 3 -2.5
v -3.5 3 -5.5
v -3.5 3 -7.5
v -3.5 4 5.5
v -3.5 4 0.5
v -3.5 4 -1.5
v -3.5 5 7.5
v -3.5 5 0.5
v -3.5 5 -1.5
v -3.5 5 -7.5
v -2.5 5 5.5
v -2.5 5 4.5
v -2.5 5 3.5
v -2.5 5 2.5
v -2.5 5 -1.5
v -2.5 5 -2.5
v -2.5 7 4.5
v -2.5 7 3.5
v -2.5 7 2.5
v -2.5 7 -1.5
v -2.5 8 5.5
v -2.5 8 -2.5
v -1.5 8 2.5
v -1.5 8 1.5
v -1.5 8 0.5
v -1.5 9 2.5
v -1.5 9 1.5
v -1.5 9 0.5
v 1.5 5 2.5
v 1.5 5 -0.5
v 1.5 5 -1.5
v 1.5 7 2.5
v 1.5 7 -1.5
v 2.5 0 6.5
v 2.5 0 3.5
v 2.5 0 -2.5
v 2.5 0 -5.5
v 2.5 1 6.5
v 2.5 1 3.5
v 2.5 1 -2.5
v 2.5 1 -5.5
v -2.5 0 6.5
v -2.5 0 3.5
v -2.5 0 -2.5
v -2.5 0 -5.5
v -2.5 1 6.5
v -2.5 1 3.5
v -2.5 1 -2.5
v -2.5 1 -5.5
v -1.5 5 2.5
v -1.5 5 -0.5
v -1.5 5 -1.5
v -1.5 7 2.5
v -1.5 7 -1.5
v 1.5 8 2.5
v 1.5 8 1.5
v 1.5 8 0.5
v 1.5 9 2.5
v 1.5 9 1.5
v 1.5 9 0.5
v 2.5 5 5.5
v 2.5 5 4.5
v 2.5 5 3.5
v 2.5 5 2.5
v 2.5 5 -1.5
v 2.5 5 -2.5
v 2.5 7 4.5
v 2.5 7 3.5
v 2.5 7 2.5
v 2.5 7 -1.5
v 2.5 8 5.5
v 2.5 8 -2.5
v 3.5 0 6.5
v 3.5 0 3.5
v 3.5 0 -2.5
v 3.5 0 -5.5
v 3.5 1 7.5
v 3.5 1 6.5
v 3.5 1 5.5
v 3.5 1 4.5
v 3.5 1 3.5
v 3.5 1 -2.5
v 3.5 1 -3.5
v 3.5 1 -4.5
v 3.5 1 -5.5
v 3.5 1 -7.5
v 3.5 2 7.5
v 3.5 2 6.5
v 3.5 2 5.5
v 3.5 2 4.5
v 3.5 2 3.5
v 3.5 2 -2.5
v 3.5 2 -3.5
v 3.5 2 -4.5
v 3.5 2 -5.5
v 3.5 2 -7.5
v 3.5 3 7.5
v 3.5 3 6.5
v 3.5 3 5.5
v 3.5 3 3.5
v 3.5 3 0.5
v 3.5 3 -2.5
v 3.5 3 -5.5
v 3.5 3 -7.5
v 3.5 4 5.5
v 3.5 4 0.5
v 3.5 4 -1.5
v 3.5 5 7.5
v 3.5 5 0.5
v 3.5 5 -1.5
v 3.5 5 -7.5
v 4.5 4 0.5
v 4.5 4 -1.5
v 4.5 5 0.5
v 4.5 5 -1.5
v -3.5 1 7.5
v -3.5 2 7.5
v -3.5 3 7.5
v -3.5 5 7.5
v -2.5 3 7.5
v -2.5 4 7.5
v -1.5 3 7.5
v -1.5 4 7.5
v -1.5 5 7.5
v 1.5 3 7.5
v 1.5 4 7.5
v 1.5 5 7.5
v 2.5 3 7.5
v 2.5 4 7.5
v 3.5 1 7.5
v 3.5 2 7.5
v 3.5 3 7.5
v 3.5 5 7.5
v -3.5 0 6.5
v -3.5 1 6.5
v -2.5 0 6.5
v -2.5 1 6.5
v 2.5 0 6.5
v 2.5 1 6.5
v 3.5 0 6.5
v 3.5 1 6.5
v -2.5 5 5.5
v -2.5 8 5.5
v -1.5 5 5.5
v -1.5 7 5.5
v 1.5 5 5.5
v 1.5 7 5.5
v 2.5 5 5.5
v 2.5 8 5.5
v -1.5 8 2.5
v -1.5 9 2.5
v 1.5 8 2.5
v 1.5 9 2.5
v -4.5 4 0.5
v -4.5 5 0.5
v -3.5 4 0.5
v -3.5 5 0.5
v 3.5 4 0.5
v 3.5 5 0.5
v 4.5 4 0.5
v 4.5 5 0.5
v -1.5 5 -1.5
v -1.5 7 -1.5
v 1.5 5 -1.5
v 1.5 7 -1.5
v -3.5 0 -2.5
v -3.5 1 -2.5
v -2.5 0 -2.5
v -2.5 1 -2.5
v 2.5 0 -2.5
v 2.5 1 -2.5
v 3.5 0 -2.5
v 3.5 1 -2.5
v -3.5 0 3.5
v -3.5 1 3.5
v -2.5 0 3.5
v -2.5 1 3.5
v 2.5 0 3.5
v 2.5 1 3.5
v 3.5 0 3.5
v 3.5 1 3.5
v -1.5 5 2.5
v -1.5 7 2.5
v 1.5 5 2.5
v 1.5 7 2.5
v -1.5 8 0.5
v -1.5 9 0.5
v 1.5 8 0.5
v 1.5 9 0.5
v -4.5 4 -1.5
v -4.5 5 -1.5
v -3.5 4 -1.5
v -3.5 5 -1.5
v 3.5 4 -1.5
v 3.5 5 -1.5
v 4.5 4 -1.5
v 4.5 5 -1.5
v -2.5 5 -2.5
v -2.5 8 -2.5
v -1.5 5 -2.5
v -1.5 7 -2.5
v 1.5 5 -2.5
v 1.5 7 -2.5
v 2.5 5 -2.5
v 2.5 8 -2.5
v -3.5 0 -5.5
v -3.5 1 -5.5
v -2.5 0 -5.5
v -2.5 1 -5.5
v 2.5 0 -5.5
v 2.5 1 -5.5
v 3.5 0 -5.5
v 3.5 1 -5.5
v -3.5 1 -7.5
v -3.5 2 -7.5
v -3.5 3 -7.5
v -3.5 5 -7.5
v -2.5 3 -7.5
v -2.5 4 -7.5
v -1.5 3 -7.5
v -1.5 4 -7.5
v -1.5 5 -7.5
v 1.5 3 -7.5
v 1.5 4 -7.5
v 1.5 5 -7.5
v 2.5 3 -7.5
v 2.5 4 -7.5
v 3.5 1 -7.5
v 3.5 2 -7.5
v 3.5 3 -7.5
v 3.5 5 -7.5
v -3.5 0 6.5
v -2.5 0 6.5
v 2.5 0 6.5
v 3.5 0 6.5
v -3.5 0 3.5
v -2.5 0 3.5
v 2.5 0 3.5
v 3.5 0 3.5
v -3.5 0 -2.5
v -2.5 0 -2.5
v 2.5 0 -2.5
v 3.5 0 -2.5
v -3.5 0 -5.5
v -2.5 0 -5.5
v 2.5 0 -5.5
v 3.5 0 -5.5
v -3.5 1 7.5
v 3.5 1 7.5
v -3.5 1 6.5
v -2.5 1 6.5
v 2.5 1 6.5
v 3.5 1 6.5
v -3.5 1 3.5
v -2.5 1 3.5
v 2.5 1 3.5
v 3.5 1 3.5
v -3.5 1 -2.5
v -2.5 1 -2.5
v 2.5 1 -2.5
v 3.5 1 -2.5
v -3.5 1 -5.5
v -2.5 1 -5.5
v 2.5 1 -5.5
v 3.5 1 -5.5
v -3.5 1 -7.5
v 3.5 1 -7.5
v -4.5 4 0.5
v -3.5 4 0.5
v 3.5 4 0.5
v 4.5 4 0.5
v -4.5 4 -1.5
v -3.5 4 -1.5
v 3.5 4 -1.5
v 4.5 4 -1.5
v -1.5 7 2.5
v 1.5 7 2.5
v -1.5 7 -1.5
v 1.5 7 -1.5
v -3.5 5 7.5
v -1.5 5 7.5
v 1.5 5 7.5
v 3.5 5 7.5
v -2.5 5 5.5
v -1.5 5 5.5
v 1.5 5 5.5
v 2.5 5 5.5
v -2.5 5 4.5
v 2.5 5 4.5
v -2.5 5 3.5
v 2.5 5 3.5
v -2.5 5 2.5
v -1.5 5 2.5
v 1.5 5 2.5
v 2.5 5 2.5
v -4.5 5 0.5
v -3.5 5 0.5
v 3.5 5 0.5
v 4.5 5 0.5
v -1.5 5 -0.5
v 1.5 5 -0.5
v -4.5 5 -1.5
v -3.5 5 -1.5
v -2.5 5 -1.5
v -1.5 5 -1.5
v 1.5 5 -1.5
v 2.5 5 -1.5
v 3.5 5 -1.5
v 4.5 5 -1.5
v -2.5 5 -2.5
v -1.5 5 -2.5
v 1.5 5 -2.5
v 2.5 5 -2.5
v -3.5 5 -7.5
v -1.5 5 -7.5
v 1.5 5 -7.5
v 3.5 5 -7.5
v -2.5 8 5.5
v 2.5 8 5.5
v -1.5 8 2.5
v 1.5 8 2.5
v -1.5 8 1.5
v 1.5 8 1.5
v -1.5 8 0.5
v 1.5 8 0.5
v -2.5 8 -2.5
v 2.5 8 -2.5
v -1.5 9 2.5
v 1.5 9 2.5
v -1.5 9 1.5
v 1.5 9 1.5
v -1.5 9 0.5
v 1.5 9 0.5

# faces
f 3/4/1 2/4/1 1/4/1
f 4/4/1 2/4/1 3/4/1
f 10/9/1 6/9/1 5/9/1
f 11/9/1 6/9/1 10/9/1
f 12/9/1 6/9/1 11/9/1
f 13/9/1 6/9/1 12/9/1
f 14/9/1 8/9/1 7/9/1
f 15/9/1 8/9/1 14/9/1
f 16/9/1 8/9/1 15/9/1
f 17/9/1 8/9/1 16/9/1
f 19/3/1 10/3/1 9/3/1
f 20/9/1 11/9/1 10/9/1
f 20/3/1 10/3/1 19/3/1
f 21/8/1 12/8/1 11/8/1
f 21/9/1 11/9/1 20/9/1
f 22/9/1 13/9/1 12/9/1
f 22/8/1 12/8/1 21/8/1
f 23/3/1 14/3/1 13/3/1
f 23/9/1 13/9/1 22/9/1
f 24/9/1 15/9/1 14/9/1
f 24/3/1 14/3/1 23/3/1
f 25/8/1 16/8/1 15/8/1
f 25/9/1 15/9/1 24/9/1
f 26/9/1 17/9/1 16/9/1
f 26/8/1 16/8/1 25/8/1
f 27/3/1 18/3/1 17/3/1
f 27/9/1 17/9/1 26/9/1
f 28/3/1 18/3/1 27/3/1
f 29/4/1 20/4/1 19/4/1
f 30/9/1 21/9/1 20/9/1
f 30/4/1 20/4/1 29/4/1
f 30/9/1 22/9/1 21/9/1
f 30/9/1 23/9/1 22/9/1
f 31/9/1 23/9/1 30/9/1
f 32/4/1 24/4/1 23/4/1
f 32/9/1 23/9/1 31/9/1
f 33/4/1 24/4/1 32/4/1
f 34/9/1 26/9/1 25/9/1
f 34/4/1 24/4/1 33/4/1
f 34/9/1 27/9/1 26/9/1
f 34/9/1 25/9/1 24/9/1
f 35/4/1 28/4/1 27/4/1
f 35/9/1 27/9/1 34/9/1
f 36/4/1 28/4/1 35/4/1
f 37/1/1 33/1/1 32/1/1
f 37/1/1 32/1/1 31/1/1
f 37/7/1 31/7/1 30/7/1
f 37/7/1 30/7/1 29/7/1
f 38/7/1 34/7/1 33/7/1
f 38/1/1 33/1/1 37/1/1
f 38/7/1 36/7/1 35/7/1
f 38/7/1 35/7/1 34/7/1
f 39/7/1 36/7/1 38/7/1
f 40/7/1 37/7/1 29/7/1
f 40/7/1 38/7/1 37/7/1
f 41/7/1 38/7/1 40/7/1
f 42/7/1 36/7/1 39/7/1
f 43/7/1 36/7/1 42/7/1
f 50/8/1 45/8/1 44/8/1
f 50/9/1 46/9/1 45/9/1
f 51/8/1 47/8/1 46/8/1
f 51/9/1 46/9/1 50/9/1
f 52/9/1 48/9/1 47/9/1
f 52/8/1 47/8/1 51/8/1
f 53/8/1 49/8/1 48/8/1
f 53/9/1 48/9/1 52/9/1
f 54/8/1 52/8/1 51/8/1
f 54/8/1 51/8/1 50/8/1
f 54/8/1 53/8/1 52/8/1
f 54/8/1 50/8/1 44/8/1
f 55/8/1 49/8/1 53/8/1
f 55/8/1 53/8/1 54/8/1
f 59/4/1 57/4/1 56/4/1
f 60/7/1 58/7/1 57/7/1
f 60/4/1 57/4/1 59/4/1
f 61/7/1 58/7/1 60/7/1
f 65/9/1 63/9/1 62/9/1
f 65/9/1 64/9/1 63/9/1
f 66/9/1 64/9/1 65/9/1
f 71/9/1 68/9/1 67/9/1
f 72/9/1 68/9/1 71/9/1
f 73/9/1 70/9/1 69/9/1
f 74/9/1 70/9/1 73/9/1
f 75/9/2 76/9/2 79/9/2
f 79/9/2 76/9/2 80/9/2
f 77/9/2 78/9/2 81/9/2
f 81/9/2 78/9/2 82/9/2
f 83/9/2 84/9/2 86/9/2
f 84/9/2 85/9/2 86/9/2
f 86/9/2 85/9/2 87/9/2
f 88/4/2 89/4/2 91/4/2
f 89/7/2 90/7/2 92/7/2
f 91/4/2 89/4/2 92/4/2
f 92/7/2 90/7/2 93/7/2
f 94/8/2 95/8/2 100/8/2
f 95/9/2 96/9/2 100/9/2
f 96/8/2 97/8/2 101/8/2
f 100/9/2 96/9/2 101/9/2
f 97/9/2 98/9/2 102/9/2
f 101/8/2 97/8/2 102/8/2
f 98/8/2 99/8/2 103/8/2
f 102/9/2 98/9/2 103/9/2
f 101/8/2 102/8/2 104/8/2
f 100/8/2 101/8/2 104/8/2
f 102/8/2 103/8/2 104/8/2
f 94/8/2 100/8/2 104/8/2
f 103/8/2 99/8/2 105/8/2
f 104/8/2 103/8/2 105/8/2
f 106/9/2 107/9/2 111/9/2
f 111/9/2 107/9/2 112/9/2
f 112/9/2 107/9/2 113/9/2
f 113/9/2 107/9/2 114/9/2
f 108/9/2 109/9/2 115/9/2
f 115/9/2 109/9/2 116/9/2
f 116/9/2 109/9/2 117/9/2
f 117/9/2 109/9/2 118/9/2
f 110/3/2 111/3/2 120/3/2
f 111/9/2 112/9/2 121/9/2
f 120/3/2 111/3/2 121/3/2
f 112/8/2 113/8/2 122/8/2
f 121/9/2 112/9/2 122/9/2
f 113/9/2 114/9/2 123/9/2
f 122/8/2 113/8/2 123/8/2
f 114/3/2 115/3/2 124/3/2
f 123/9/2 114/9/2 124/9/2
f 115/9/2 116/9/2 125/9/2
f 124/3/2 115/3/2 125/3/2
f 116/8/2 117/8/2 126/8/2
f 125/9/2 116/9/2 126/9/2
f 117/9/2 118/9/2 127/9/2
f 126/8/2 117/8/2 127/8/2
f 118/3/2 119/3/2 128/3/2
f 127/9/2 118/9/2 128/9/2
f 128/3/2 119/3/2 129/3/2
f 120/4/2 121/4/2 130/4/2
f 121/9/2 122/9/2 131/9/2
f 130/4/2 121/4/2 131/4/2
f 122/9/2 123/9/2 131/9/2
f 123/9/2 124/9/2 131/9/2
f 131/9/2 124/9/2 132/9/2
f 124/4/2 125/4/2 133/4/2
f 132/9/2 124/9/2 133/9/2
f 133/4/2 125/4/2 134/4/2
f 126/9/2 127/9/2 135/9/2
f 134/4/2 125/4/2 135/4/2
f 127/9/2 128/9/2 135/9/2
f 125/9/2 126/9/2 135/9/2
f 128/4/2 129/4/2 136/4/2
f 135/9/2 128/9/2 136/9/2
f 136/4/2 129/4/2 137/4/2
f 133/1/2 134/1/2 138/1/2
f 132/1/2 133/1/2 138/1/2
f 131/7/2 132/7/2 138/7/2
f 130/7/2 131/7/2 138/7/2
f 134/7/2 135/7/2 139/7/2
f 138/1/2 134/1/2 139/1/2
f 136/7/2 137/7/2 139/7/2
f 135/7/2 136/7/2 139/7/2
f 139/7/2 137/7/2 140/7/2
f 130/7/2 138/7/2 141/7/2
f 138/7/2 139/7/2 141/7/2
f 141/7/2 139/7/2 142/7/2
f 140/7/2 137/7/2 143/7/2
f 143/7/2 137/7/2 144/7/2
f 145/4/2 146/4/2 147/4/2
f 147/4/2 146/4/2 148/4/2
f 153/4/3 151/4/3 150/4/3
f 153/7/3 152/7/3 151/7/3
f 154/7/3 152/7/3 153/7/3
f 155/4/3 153/4/3 150/4/3
f 155/8/3 154/8/3 153/8/3
f 156/7/3 152/7/3 154/7/3
f 156/8/3 154/8/3 155/8/3
f 157/7/3 152/7/3 156/7/3
f 158/4/3 155/4/3 150/4/3
f 158/4/3 156/4/3 155/4/3
f 158/4/3 157/4/3 156/4/3
f 159/4/3 157/4/3 158/4/3
f 160/4/3 157/4/3 159/4/3
f 161/4/3 158/4/3 150/4/3
f 161/8/3 159/8/3 158/8/3
f 162/7/3 160/7/3 159/7/3
f 162/8/3 159/8/3 161/8/3
f 163/3/3 150/3/3 149/3/3
f 164/4/3 161/4/3 150/4/3
f 164/3/3 150/3/3 163/3/3
f 165/7/3 162/7/3 161/7/3
f 165/4/3 161/4/3 164/4/3
f 166/7/3 160/7/3 162/7/3
f 166/7/3 162/7/3 165/7/3
f 169/9/3 168/9/3 167/9/3
f 170/9/3 168/9/3 169/9/3
f 173/9/3 172/9/3 171/9/3
f 174/9/3 172/9/3 173/9/3
f 177/8/3 176/8/3 175/8/3
f 178/8/3 176/8/3 177/8/3
f 179/9/3 178/9/3 177/9/3
f 180/8/3 176/8/3 178/8/3
f 180/9/3 178/9/3 179/9/3
f 181/8/3 180/8/3 179/8/3
f 182/8/3 176/8/3 180/8/3
f 182/8/3 180/8/3 181/8/3
f 185/4/3 184/4/3 183/4/3
f 186/4/3 184/4/3 185/4/3
f 189/4/3 188/4/3 187/4/3
f 190/4/3 188/4/3 189/4/3
f 193/4/3 192/4/3 191/4/3
f 194/4/3 192/4/3 193/4/3
f 197/9/3 196/9/3 195/9/3
f 198/9/3 196/9/3 197/9/3
f 201/9/3 200/9/3 199/9/3
f 202/9/3 200/9/3 201/9/3
f 205/9/3 204/9/3 203/9/3
f 206/9/3 204/9/3 205/9/3
f 207/9/4 208/9/4 209/9/4
f 209/9/4 208/9/4 210/9/4
f 211/9/4 212/9/4 213/9/4
f 213/9/4 212/9/4 214/9/4
f 215/8/4 216/8/4 217/8/4
f 217/8/4 216/8/4 218/8/4
f 219/7/4 220/7/4 221/7/4
f 221/7/4 220/7/4 222/7/4
f 223/4/4 224/4/4 225/4/4
f 225/4/4 224/4/4 226/4/4
f 227/4/4 228/4/4 229/4/4
f 229/4/4 228/4/4 230/4/4
f 231/8/4 232/8/4 233/8/4
f 233/8/4 232/8/4 234/8/4
f 233/9/4 234/9/4 235/9/4
f 234/8/4 232/8/4 236/8/4
f 235/9/4 234/9/4 236/9/4
f 235/8/4 236/8/4 237/8/4
f 236/8/4 232/8/4 238/8/4
f 237/8/4 236/8/4 238/8/4
f 239/9/4 240/9/4 241/9/4
f 241/9/4 240/9/4 242/9/4
f 243/9/4 244/9/4 245/9/4
f 245/9/4 244/9/4 246/9/4
f 248/4/4 249/4/4 251/4/4
f 249/7/4 250/7/4 251/7/4
f 251/7/4 250/7/4 252/7/4
f 248/4/4 251/4/4 253/4/4
f 251/8/4 252/8/4 253/8/4
f 252/7/4 250/7/4 254/7/4
f 253/8/4 252/8/4 254/8/4
f 254/7/4 250/7/4 255/7/4
f 248/4/4 253/4/4 256/4/4
f 253/4/4 254/4/4 256/4/4
f 254/4/4 255/4/4 256/4/4
f 256/4/4 255/4/4 257/4/4
f 257/4/4 255/4/4 258/4/4
f 248/4/4 256/4/4 259/4/4
f 256/8/4 257/8/4 259/8/4
f 257/7/4 258/7/4 260/7/4
f 259/8/4 257/8/4 260/8/4
f 247/3/4 248/3/4 261/3/4
f 248/4/4 259/4/4 262/4/4
f 261/3/4 248/3/4 262/3/4
f 259/7/4 260/7/4 263/7/4
f 262/4/4 259/4/4 263/4/4
f 260/7/4 258/7/4 264/7/4
f 263/7/4 260/7/4 264/7/4
f 269/9/5 266/9/5 265/9/5
f 270/9/5 266/9/5 269/9/5
f 271/9/5 268/9/5 267/9/5
f 272/9/5 268/9/5 271/9/5
f 277/9/5 274/9/5 273/9/5
f 278/9/5 274/9/5 277/9/5
f 279/9/5 276/9/5 275/9/5
f 280/9/5 276/9/5 279/9/5
f 283/3/5 282/3/5 281/3/5
f 284/3/5 282/3/5 283/3/5
f 285/3/5 282/3/5 284/3/5
f 286/3/5 282/3/5 285/3/5
f 288/6/5 285/6/5 284/6/5
f 289/6/5 285/6/5 288/6/5
f 291/3/5 288/3/5 287/3/5
f 292/6/5 289/6/5 288/6/5
f 292/3/5 288/3/5 291/3/5
f 293/3/5 290/3/5 289/3/5
f 293/6/5 289/6/5 292/6/5
f 294/3/5 290/3/5 293/3/5
f 296/6/5 293/6/5 292/6/5
f 297/6/5 293/6/5 296/6/5
f 299/3/5 296/3/5 295/3/5
f 299/3/5 298/3/5 297/3/5
f 299/3/5 297/3/5 296/3/5
f 300/3/5 298/3/5 299/3/5
f 305/4/5 302/4/5 301/4/5
f 306/4/5 302/4/5 305/4/5
f 307/4/5 304/4/5 303/4/5
f 308/4/5 304/4/5 307/4/5
f 311/8/5 310/8/5 309/8/5
f 312/8/5 310/8/5 311/8/5
f 313/7/6 314/7/6 317/7/6
f 314/4/6 315/4/6 318/4/6
f 317/7/6 314/7/6 318/7/6
f 315/7/6 316/7/6 319/7/6
f 318/4/6 315/4/6 319/4/6
f 319/7/6 316/7/6 320/7/6
f 313/7/6 317/7/6 321/7/6
f 320/7/6 316/7/6 322/7/6
f 313/7/6 321/7/6 323/7/6
f 322/7/6 316/7/6 324/7/6
f 313/7/6 323/7/6 325/7/6
f 324/7/6 316/7/6 328/7/6
f 313/7/6 325/7/6 330/7/6
f 328/7/6 316/7/6 331/7/6
f 326/2/6 327/2/6 333/2/6
f 333/2/6 327/2/6 334/2/6
f 329/4/6 330/4/6 335/4/6
f 330/7/6 325/7/6 336/7/6
f 335/4/6 330/4/6 336/4/6
f 336/7/6 325/7/6 337/7/6
f 333/6/6 334/6/6 338/6/6
f 338/6/6 334/6/6 339/6/6
f 328/7/6 331/7/6 340/7/6
f 331/4/6 332/4/6 341/4/6
f 340/7/6 331/7/6 341/7/6
f 341/4/6 332/4/6 342/4/6
f 336/7/6 337/7/6 343/7/6
f 340/7/6 341/7/6 346/7/6
f 336/7/6 343/7/6 347/7/6
f 343/7/6 344/7/6 347/7/6
f 344/4/6 345/4/6 348/4/6
f 347/7/6 344/7/6 348/7/6
f 345/7/6 346/7/6 349/7/6
f 348/4/6 345/4/6 349/4/6
f 346/7/6 341/7/6 350/7/6
f 349/7/6 346/7/6 350/7/6
f 351/8/6 352/8/6 353/8/6
f 353/8/6 352/8/6 354/8/6
f 351/8/6 353/8/6 355/8/6
f 354/8/6 352/8/6 356/8/6
f 351/8/6 355/8/6 357/8/6
f 356/8/6 352/8/6 358/8/6
f 351/8/6 357/8/6 359/8/6
f 357/8/6 358/8/6 359/8/6
f 358/8/6 352/8/6 360/8/6
f 359/8/6 358/8/6 360/8/6
f 361/4/6 362/4/6 363/4/6
f 363/4/6 362/4/6 364/4/6
f 363/7/6 364/7/6 365/7/6
f 365/7/6 364/7/6 366/7/6
