# MagicaVoxel @ Ephtracy

# material
mtllib beo.mtl
usemtl palette

# normals
vn -1 0 0
vn 1 0 0
vn 0 0 1
vn 0 0 -1
vn 0 -1 0
vn 0 1 0

# texcoords
vt 0.302734 0.5
vt 0.490234 0.5
vt 0.552734 0.5

# verts
v -2 0 2
v -2 0 -2
v -2 2 2
v -2 2 -2
v 1 0 -1
v 1 0 -2
v 1 2 -1
v 1 2 -2
v 2 0 2
v 2 0 1
v 2 0 -0
v 2 0 -1
v 2 2 2
v 2 2 1
v 2 2 -0
v 2 2 -1
v -2 0 2
v -2 2 2
v 2 0 2
v 2 2 2
v 1 0 -1
v 1 2 -1
v 2 0 -1
v 2 2 -1
v -2 0 -2
v -2 2 -2
v -1 0 -2
v -1 2 -2
v 0 0 -2
v 0 2 -2
v 1 0 -2
v 1 2 -2
v -2 0 2
v 2 0 2
v 1 0 1
v 2 0 1
v 0 0 -0
v 1 0 -0
v 2 0 -0
v -1 0 -1
v 0 0 -1
v 1 0 -1
v 2 0 -1
v -2 0 -2
v -1 0 -2
v 0 0 -2
v 1 0 -2
v -2 2 2
v 2 2 2
v -1 2 1
v 2 2 1
v 0 2 -0
v 2 2 -0
v 1 2 -1
v 2 2 -1
v -2 2 -2
v -1 2 -2
v 0 2 -2
v 1 2 -2

# faces
f 3/3/1 2/3/1 1/3/1
f 4/3/1 2/3/1 3/3/1
f 5/3/2 6/3/2 7/3/2
f 7/3/2 6/3/2 8/3/2
f 9/3/2 10/3/2 13/3/2
f 10/1/2 11/1/2 14/1/2
f 13/3/2 10/3/2 14/3/2
f 11/3/2 12/3/2 15/3/2
f 14/1/2 11/1/2 15/1/2
f 15/3/2 12/3/2 16/3/2
f 19/3/3 18/3/3 17/3/3
f 20/3/3 18/3/3 19/3/3
f 21/3/4 22/3/4 23/3/4
f 23/3/4 22/3/4 24/3/4
f 25/3/4 26/3/4 27/3/4
f 27/3/4 26/3/4 28/3/4
f 27/1/4 28/1/4 29/1/4
f 29/1/4 28/1/4 30/1/4
f 29/3/4 30/3/4 31/3/4
f 31/3/4 30/3/4 32/3/4
f 35/3/5 34/3/5 33/3/5
f 36/3/5 34/3/5 35/3/5
f 37/3/5 35/3/5 33/3/5
f 38/1/5 36/1/5 35/1/5
f 38/3/5 35/3/5 37/3/5
f 39/1/5 36/1/5 38/1/5
f 40/3/5 37/3/5 33/3/5
f 41/2/5 38/2/5 37/2/5
f 41/3/5 37/3/5 40/3/5
f 42/3/5 39/3/5 38/3/5
f 42/2/5 38/2/5 41/2/5
f 43/3/5 39/3/5 42/3/5
f 44/3/5 40/3/5 33/3/5
f 45/1/5 41/1/5 40/1/5
f 45/3/5 40/3/5 44/3/5
f 46/3/5 42/3/5 41/3/5
f 46/1/5 41/1/5 45/1/5
f 47/3/5 42/3/5 46/3/5
f 48/3/6 49/3/6 50/3/6
f 50/3/6 49/3/6 51/3/6
f 50/1/6 51/1/6 52/1/6
f 52/1/6 51/1/6 53/1/6
f 52/3/6 53/3/6 54/3/6
f 54/3/6 53/3/6 55/3/6
f 48/3/6 50/3/6 56/3/6
f 50/1/6 52/1/6 57/1/6
f 56/3/6 50/3/6 57/3/6
f 52/3/6 54/3/6 58/3/6
f 57/1/6 52/1/6 58/1/6
f 58/3/6 54/3/6 59/3/6
