# MagicaVoxel @ Ephtracy

# material
mtllib go.mtl
usemtl palette

# normals
vn -1 0 0
vn 1 0 0
vn 0 0 1
vn 0 0 -1
vn 0 -1 0
vn 0 1 0

# texcoords
vt 0.306641 0.5
vt 0.451172 0.5
vt 0.490234 0.5

# verts
v -2 0 8
v -2 0 7
v -2 0 5
v -2 0 4
v -2 0 -0
v -2 0 -3
v -2 0 -5
v -2 0 -6
v -2 0 -7
v -2 0 -8
v -2 1 5
v -2 1 4
v -2 1 3
v -2 1 2
v -2 1 -0
v -2 1 -1
v -2 1 -2
v -2 1 -3
v -2 1 -5
v -2 1 -6
v -2 2 6
v -2 2 3
v -2 2 2
v -2 2 -1
v -2 2 -2
v -2 2 -5
v -2 2 -7
v -2 3 8
v -2 3 7
v -2 3 6
v -2 3 3
v -2 3 -5
v -2 3 -7
v -2 3 -8
v 1 1 8
v 1 1 7
v 1 1 6
v 1 1 3
v 1 1 -7
v 1 1 -8
v 1 2 8
v 1 2 7
v 1 2 6
v 1 2 4
v 1 2 3
v 1 2 2
v 1 2 1
v 1 2 -1
v 1 2 -3
v 1 2 -6
v 1 2 -7
v 1 2 -8
v -1 1 8
v -1 1 7
v -1 1 3
v -1 1 2
v -1 1 -1
v -1 1 -2
v -1 1 -7
v -1 1 -8
v -1 2 8
v -1 2 7
v -1 2 3
v -1 2 2
v -1 2 -0
v -1 2 -1
v -1 2 -2
v -1 2 -7
v -1 2 -8
v 2 0 8
v 2 0 7
v 2 0 -2
v 2 0 -3
v 2 0 -4
v 2 0 -6
v 2 0 -7
v 2 0 -8
v 2 1 6
v 2 1 3
v 2 1 -2
v 2 1 -3
v 2 1 -4
v 2 1 -6
v 2 2 6
v 2 2 3
v 2 2 2
v 2 2 -1
v 2 3 8
v 2 3 7
v 2 3 2
v 2 3 -1
v 2 3 -7
v 2 3 -8
v -2 0 8
v -2 3 8
v -1 1 8
v -1 2 8
v 1 1 8
v 1 2 8
v 2 0 8
v 2 3 8
v -2 0 -8
v -2 3 -8
v -1 1 -8
v -1 2 -8
v 1 1 -8
v 1 2 -8
v 2 0 -8
v 2 3 -8
v -2 0 8
v 2 0 8
v -2 0 7
v 2 0 7
v -2 0 5
v -1 0 5
v -2 0 4
v -1 0 4
v -2 0 -0
v -1 0 -0
v 1 0 -2
v 2 0 -2
v -2 0 -3
v -1 0 -3
v 1 0 -3
v 2 0 -3
v 1 0 -4
v 2 0 -4
v -2 0 -5
v -1 0 -5
v -2 0 -6
v -1 0 -6
v 1 0 -6
v 2 0 -6
v -2 0 -7
v 2 0 -7
v -2 0 -8
v 2 0 -8
v -1 2 8
v 1 2 8
v -1 2 7
v 0 2 7
v 1 2 7
v 1 2 6
v 0 2 4
v 1 2 4
v -1 2 3
v 0 2 3
v 1 2 3
v -1 2 2
v 0 2 2
v 1 2 2
v 0 2 1
v 1 2 1
v -1 2 -0
v 0 2 -0
v -1 2 -1
v 0 2 -1
v 1 2 -1
v -1 2 -2
v 0 2 -2
v 0 2 -3
v 1 2 -3
v 0 2 -6
v 1 2 -6
v -1 2 -7
v 1 2 -7
v -1 2 -8
v 1 2 -8
v -1 1 8
v 1 1 8
v -1 1 7
v 1 1 7
v 1 1 6
v -1 1 3
v 1 1 3
v -1 1 2
v -1 1 -1
v -1 1 -2
v -1 1 -7
v 1 1 -7
v -1 1 -8
v 1 1 -8
v -2 3 8
v 2 3 8
v -2 3 7
v 0 3 7
v 1 3 7
v 2 3 7
v -2 3 6
v -1 3 6
v 0 3 4
v 1 3 4
v -2 3 3
v -1 3 3
v 0 3 3
v 1 3 3
v 0 3 2
v 1 3 2
v 2 3 2
v 0 3 1
v 1 3 1
v -1 3 -0
v 0 3 -0
v 0 3 -1
v 2 3 -1
v -1 3 -2
v 0 3 -2
v 0 3 -3
v 1 3 -3
v -2 3 -5
v -1 3 -5
v 0 3 -6
v 1 3 -6
v -2 3 -7
v -1 3 -7
v 2 3 -7
v -2 3 -8
v 2 3 -8

# faces
f 11/2/1 3/2/1 2/2/1
f 11/3/1 4/3/1 3/3/1
f 12/2/1 5/2/1 4/2/1
f 12/3/1 4/3/1 11/3/1
f 13/2/1 5/2/1 12/2/1
f 14/2/1 5/2/1 13/2/1
f 15/3/1 6/3/1 5/3/1
f 15/2/1 5/2/1 14/2/1
f 16/3/1 6/3/1 15/3/1
f 17/3/1 6/3/1 16/3/1
f 18/2/1 7/2/1 6/2/1
f 18/3/1 6/3/1 17/3/1
f 19/3/1 8/3/1 7/3/1
f 19/2/1 7/2/1 18/2/1
f 20/2/1 9/2/1 8/2/1
f 20/3/1 8/3/1 19/3/1
f 21/2/1 11/2/1 2/2/1
f 21/2/1 12/2/1 11/2/1
f 21/2/1 13/2/1 12/2/1
f 22/3/1 14/3/1 13/3/1
f 22/2/1 13/2/1 21/2/1
f 23/2/1 16/2/1 15/2/1
f 23/3/1 14/3/1 22/3/1
f 23/2/1 15/2/1 14/2/1
f 24/3/1 17/3/1 16/3/1
f 24/2/1 16/2/1 23/2/1
f 25/2/1 19/2/1 18/2/1
f 25/3/1 17/3/1 24/3/1
f 25/2/1 18/2/1 17/2/1
f 25/2/1 20/2/1 19/2/1
f 26/2/1 20/2/1 25/2/1
f 27/1/1 10/1/1 9/1/1
f 27/2/1 20/2/1 26/2/1
f 27/2/1 9/2/1 20/2/1
f 28/1/1 2/1/1 1/1/1
f 29/2/1 21/2/1 2/2/1
f 29/1/1 2/1/1 28/1/1
f 30/3/1 22/3/1 21/3/1
f 30/2/1 21/2/1 29/2/1
f 31/2/1 26/2/1 25/2/1
f 31/3/1 22/3/1 30/3/1
f 31/2/1 24/2/1 23/2/1
f 31/2/1 25/2/1 24/2/1
f 31/2/1 23/2/1 22/2/1
f 32/3/1 27/3/1 26/3/1
f 32/2/1 26/2/1 31/2/1
f 33/1/1 10/1/1 27/1/1
f 33/3/1 27/3/1 32/3/1
f 34/1/1 10/1/1 33/1/1
f 41/1/1 36/1/1 35/1/1
f 42/2/1 37/2/1 36/2/1
f 42/1/1 36/1/1 41/1/1
f 43/3/1 38/3/1 37/3/1
f 43/2/1 37/2/1 42/2/1
f 44/3/1 38/3/1 43/3/1
f 45/2/1 39/2/1 38/2/1
f 45/3/1 38/3/1 44/3/1
f 46/2/1 39/2/1 45/2/1
f 47/2/1 39/2/1 46/2/1
f 48/2/1 39/2/1 47/2/1
f 49/2/1 39/2/1 48/2/1
f 50/2/1 39/2/1 49/2/1
f 51/1/1 40/1/1 39/1/1
f 51/2/1 39/2/1 50/2/1
f 52/1/1 40/1/1 51/1/1
f 53/1/2 54/1/2 61/1/2
f 54/2/2 55/2/2 62/2/2
f 61/1/2 54/1/2 62/1/2
f 55/3/2 56/3/2 63/3/2
f 62/2/2 55/2/2 63/2/2
f 56/2/2 57/2/2 64/2/2
f 63/3/2 56/3/2 64/3/2
f 64/2/2 57/2/2 65/2/2
f 57/3/2 58/3/2 66/3/2
f 65/2/2 57/2/2 66/2/2
f 58/2/2 59/2/2 67/2/2
f 66/3/2 58/3/2 67/3/2
f 59/1/2 60/1/2 68/1/2
f 67/2/2 59/2/2 68/2/2
f 68/1/2 60/1/2 69/1/2
f 71/2/2 72/2/2 78/2/2
f 78/2/2 72/2/2 79/2/2
f 72/3/2 73/3/2 80/3/2
f 79/2/2 72/2/2 80/2/2
f 73/2/2 74/2/2 81/2/2
f 80/3/2 73/3/2 81/3/2
f 74/3/2 75/3/2 82/3/2
f 81/2/2 74/2/2 82/2/2
f 75/2/2 76/2/2 83/2/2
f 82/3/2 75/3/2 83/3/2
f 78/3/2 79/3/2 84/3/2
f 71/2/2 78/2/2 84/2/2
f 79/2/2 80/2/2 85/2/2
f 84/3/2 79/3/2 85/3/2
f 80/2/2 81/2/2 85/2/2
f 82/2/2 83/2/2 85/2/2
f 81/2/2 82/2/2 85/2/2
f 85/2/2 83/2/2 86/2/2
f 86/2/2 83/2/2 87/2/2
f 70/1/2 71/1/2 88/1/2
f 71/2/2 84/2/2 89/2/2
f 88/1/2 71/1/2 89/1/2
f 84/2/2 85/2/2 89/2/2
f 85/2/2 86/2/2 89/2/2
f 86/3/2 87/3/2 90/3/2
f 89/2/2 86/2/2 90/2/2
f 87/2/2 83/2/2 91/2/2
f 90/3/2 87/3/2 91/3/2
f 76/1/2 77/1/2 92/1/2
f 91/2/2 83/2/2 92/2/2
f 83/2/2 76/2/2 92/2/2
f 92/1/2 77/1/2 93/1/2
f 96/1/3 95/1/3 94/1/3
f 97/1/3 95/1/3 96/1/3
f 98/1/3 96/1/3 94/1/3
f 99/1/3 95/1/3 97/1/3
f 100/1/3 98/1/3 94/1/3
f 100/1/3 99/1/3 98/1/3
f 101/1/3 95/1/3 99/1/3
f 101/1/3 99/1/3 100/1/3
f 102/1/4 103/1/4 104/1/4
f 104/1/4 103/1/4 105/1/4
f 102/1/4 104/1/4 106/1/4
f 105/1/4 103/1/4 107/1/4
f 102/1/4 106/1/4 108/1/4
f 106/1/4 107/1/4 108/1/4
f 107/1/4 103/1/4 109/1/4
f 108/1/4 107/1/4 109/1/4
f 112/1/5 111/1/5 110/1/5
f 113/1/5 111/1/5 112/1/5
f 114/2/5 113/2/5 112/2/5
f 115/2/5 113/2/5 114/2/5
f 116/3/5 115/3/5 114/3/5
f 117/2/5 113/2/5 115/2/5
f 117/3/5 115/3/5 116/3/5
f 118/2/5 117/2/5 116/2/5
f 119/2/5 113/2/5 117/2/5
f 119/2/5 117/2/5 118/2/5
f 120/2/5 113/2/5 119/2/5
f 121/2/5 113/2/5 120/2/5
f 122/3/5 119/3/5 118/3/5
f 123/2/5 120/2/5 119/2/5
f 123/3/5 119/3/5 122/3/5
f 124/3/5 121/3/5 120/3/5
f 124/2/5 120/2/5 123/2/5
f 125/3/5 121/3/5 124/3/5
f 126/2/5 123/2/5 122/2/5
f 126/2/5 124/2/5 123/2/5
f 126/2/5 125/2/5 124/2/5
f 127/2/5 125/2/5 126/2/5
f 128/2/5 126/2/5 122/2/5
f 129/2/5 126/2/5 128/2/5
f 130/3/5 129/3/5 128/3/5
f 131/2/5 126/2/5 129/2/5
f 131/3/5 129/3/5 130/3/5
f 132/3/5 127/3/5 126/3/5
f 132/2/5 126/2/5 131/2/5
f 133/3/5 127/3/5 132/3/5
f 134/2/5 131/2/5 130/2/5
f 134/2/5 132/2/5 131/2/5
f 134/2/5 133/2/5 132/2/5
f 135/2/5 133/2/5 134/2/5
f 136/1/5 135/1/5 134/1/5
f 137/1/5 135/1/5 136/1/5
f 140/1/5 139/1/5 138/1/5
f 141/1/5 139/1/5 140/1/5
f 142/1/5 139/1/5 141/1/5
f 143/3/5 142/3/5 141/3/5
f 144/2/5 141/2/5 140/2/5
f 144/3/5 143/3/5 141/3/5
f 145/3/5 143/3/5 144/3/5
f 146/2/5 144/2/5 140/2/5
f 146/2/5 145/2/5 144/2/5
f 147/2/5 145/2/5 146/2/5
f 148/2/5 145/2/5 147/2/5
f 149/2/5 147/2/5 146/2/5
f 150/3/5 148/3/5 147/3/5
f 150/2/5 147/2/5 149/2/5
f 151/3/5 148/3/5 150/3/5
f 152/2/5 150/2/5 149/2/5
f 152/2/5 151/2/5 150/2/5
f 153/2/5 151/2/5 152/2/5
f 154/2/5 152/2/5 149/2/5
f 155/3/5 153/3/5 152/3/5
f 155/2/5 152/2/5 154/2/5
f 156/3/5 155/3/5 154/3/5
f 157/3/5 153/3/5 155/3/5
f 157/3/5 155/3/5 156/3/5
f 158/3/5 153/3/5 157/3/5
f 159/3/5 157/3/5 156/3/5
f 160/2/5 158/2/5 157/2/5
f 160/3/5 157/3/5 159/3/5
f 161/2/5 160/2/5 159/2/5
f 161/2/5 158/2/5 160/2/5
f 162/2/5 158/2/5 161/2/5
f 163/2/5 161/2/5 159/2/5
f 163/3/5 162/3/5 161/3/5
f 164/3/5 162/3/5 163/3/5
f 165/2/5 163/2/5 159/2/5
f 165/2/5 164/2/5 163/2/5
f 166/2/5 164/2/5 165/2/5
f 167/1/5 166/1/5 165/1/5
f 168/1/5 166/1/5 167/1/5
f 169/1/6 170/1/6 171/1/6
f 171/1/6 170/1/6 172/1/6
f 171/2/6 172/2/6 173/2/6
f 171/2/6 173/2/6 174/2/6
f 174/2/6 173/2/6 175/2/6
f 174/2/6 175/2/6 176/2/6
f 176/2/6 175/2/6 177/2/6
f 177/2/6 175/2/6 178/2/6
f 178/2/6 175/2/6 179/2/6
f 179/2/6 175/2/6 180/2/6
f 179/1/6 180/1/6 181/1/6
f 181/1/6 180/1/6 182/1/6
f 183/1/6 184/1/6 185/1/6
f 185/1/6 184/1/6 186/1/6
f 186/1/6 184/1/6 187/1/6
f 187/1/6 184/1/6 188/1/6
f 185/2/6 186/2/6 189/2/6
f 189/2/6 186/2/6 190/2/6
f 186/3/6 187/3/6 191/3/6
f 190/2/6 186/2/6 191/2/6
f 187/2/6 188/2/6 192/2/6
f 191/3/6 187/3/6 192/3/6
f 189/3/6 190/3/6 193/3/6
f 190/2/6 191/2/6 194/2/6
f 193/3/6 190/3/6 194/3/6
f 191/2/6 192/2/6 194/2/6
f 194/2/6 192/2/6 195/2/6
f 192/2/6 188/2/6 196/2/6
f 195/2/6 192/2/6 196/2/6
f 194/2/6 195/2/6 197/2/6
f 193/2/6 194/2/6 197/2/6
f 195/3/6 196/3/6 197/3/6
f 196/2/6 188/2/6 198/2/6
f 197/3/6 196/3/6 198/3/6
f 198/2/6 188/2/6 199/2/6
f 193/2/6 197/2/6 200/2/6
f 197/2/6 198/2/6 200/2/6
f 198/3/6 199/3/6 201/3/6
f 200/2/6 198/2/6 201/2/6
f 193/2/6 200/2/6 202/2/6
f 200/3/6 201/3/6 203/3/6
f 202/2/6 200/2/6 203/2/6
f 202/3/6 203/3/6 204/3/6
f 203/3/6 201/3/6 204/3/6
f 201/3/6 199/3/6 205/3/6
f 204/3/6 201/3/6 205/3/6
f 202/3/6 204/3/6 206/3/6
f 193/2/6 202/2/6 206/2/6
f 204/2/6 205/2/6 207/2/6
f 206/3/6 204/3/6 207/3/6
f 206/2/6 207/2/6 208/2/6
f 207/2/6 205/2/6 208/2/6
f 208/2/6 205/2/6 209/2/6
f 193/2/6 206/2/6 210/2/6
f 206/2/6 208/2/6 210/2/6
f 210/2/6 208/2/6 211/2/6
f 208/3/6 209/3/6 212/3/6
f 211/2/6 208/2/6 212/2/6
f 209/2/6 205/2/6 213/2/6
f 212/3/6 209/3/6 213/3/6
f 210/3/6 211/3/6 214/3/6
f 211/2/6 212/2/6 215/2/6
f 214/3/6 211/3/6 215/3/6
f 212/2/6 213/2/6 215/2/6
f 213/2/6 205/2/6 216/2/6
f 215/2/6 213/2/6 216/2/6
f 214/1/6 215/1/6 217/1/6
f 215/1/6 216/1/6 217/1/6
f 217/1/6 216/1/6 218/1/6
