# MagicaVoxel @ Ephtracy

# material
mtllib ocean.mtl
usemtl palette

# normals
vn -1 0 0
vn 1 0 0
vn 0 0 1
vn 0 0 -1
vn 0 -1 0
vn 0 1 0

# texcoords
vt 0.142578 0.5
vt 0.228516 0.5

# verts
v -4.5 0 54
v -4.5 0 18
v -4.5 0 -18
v -4.5 0 -54
v -4.5 2 54
v -4.5 2 18
v -4.5 2 -18
v -4.5 2 -54
v 4.5 0 54
v 4.5 0 18
v 4.5 0 -22
v 4.5 0 -54
v 4.5 1 -18
v 4.5 1 -22
v 4.5 2 54
v 4.5 2 18
v 4.5 2 -18
v 4.5 2 -54
v -4.5 0 54
v -4.5 2 54
v 4.5 0 54
v 4.5 2 54
v -4.5 0 -54
v -4.5 2 -54
v 4.5 0 -54
v 4.5 2 -54
v -4.5 0 54
v 4.5 0 54
v -4.5 0 18
v 4.5 0 18
v -4.5 0 -18
v -3.5 0 -18
v -3.5 0 -22
v 4.5 0 -22
v -4.5 0 -54
v 4.5 0 -54
v -4.5 2 54
v 4.5 2 54
v -4.5 2 18
v 4.5 2 18
v -4.5 2 -18
v 4.5 2 -18
v -4.5 2 -54
v 4.5 2 -54

# faces
f 5/2/1 2/2/1 1/2/1
f 6/1/1 3/1/1 2/1/1
f 6/2/1 2/2/1 5/2/1
f 7/2/1 4/2/1 3/2/1
f 7/1/1 3/1/1 6/1/1
f 8/2/1 4/2/1 7/2/1
f 10/1/2 11/1/2 13/1/2
f 11/2/2 12/2/2 14/2/2
f 13/1/2 11/1/2 14/1/2
f 9/2/2 10/2/2 15/2/2
f 10/1/2 13/1/2 16/1/2
f 15/2/2 10/2/2 16/2/2
f 13/2/2 14/2/2 17/2/2
f 16/1/2 13/1/2 17/1/2
f 14/2/2 12/2/2 18/2/2
f 17/2/2 14/2/2 18/2/2
f 21/2/3 20/2/3 19/2/3
f 22/2/3 20/2/3 21/2/3
f 23/2/4 24/2/4 25/2/4
f 25/2/4 24/2/4 26/2/4
f 29/2/5 28/2/5 27/2/5
f 30/2/5 28/2/5 29/2/5
f 31/1/5 30/1/5 29/1/5
f 32/1/5 30/1/5 31/1/5
f 33/2/5 32/2/5 31/2/5
f 33/1/5 30/1/5 32/1/5
f 34/1/5 30/1/5 33/1/5
f 35/2/5 33/2/5 31/2/5
f 35/2/5 34/2/5 33/2/5
f 36/2/5 34/2/5 35/2/5
f 37/2/6 38/2/6 39/2/6
f 39/2/6 38/2/6 40/2/6
f 39/1/6 40/1/6 41/1/6
f 41/1/6 40/1/6 42/1/6
f 41/2/6 42/2/6 43/2/6
f 43/2/6 42/2/6 44/2/6
